<svg width="83" height="18" viewBox="0 0 83 18" fill="none" xmlns="http://www.w3.org/2000/svg">
<path fill-rule="evenodd" clip-rule="evenodd" d="M16.9114 14.2636C17.8125 11.4335 18.6708 9.55615 19.5863 6.83986C19.9154 5.90125 20.1871 5.37499 20.1013 4.83453C19.944 3.96701 19.3574 3.72528 18.7852 4.46483C18.6994 4.60701 18.5993 4.72078 18.5278 4.84874C18.1845 5.41766 17.8841 6.015 17.4835 6.71174C16.2819 8.77396 15.3808 11.4904 14.7513 12.4148C13.936 13.6946 12.8059 13.4529 12.4626 12.1588C11.5471 12.8271 10.4456 12.1162 10.4885 10.9499C10.5171 9.91177 10.789 8.5891 10.932 7.52252C11.1179 6.21408 11.4898 2.88621 11.4612 1.09417C11.4326 0.866662 11.4183 0.710249 11.3754 0.539623C11.1608 -0.0719445 10.5314 -0.143044 10.0022 0.226657C9.70175 0.425861 9.44431 0.866662 9.31559 1.43557C9.08662 2.26042 9.01511 3.15638 8.90069 4.05233C8.82918 4.64968 7.8422 9.98287 7.61323 10.4094C6.89812 11.8601 4.3804 9.42817 2.50657 8.87348C0.432343 8.30472 -0.85498 9.3713 0.675617 10.2815C1.6912 10.9073 5.08135 13.5382 5.92531 14.4342C6.13998 14.6476 6.18289 14.6618 6.38311 14.8467C6.68345 15.1453 6.86952 15.4156 7.19846 15.7C9.08662 17.4208 12.4197 18.2314 14.9373 16.9373C15.4523 16.667 15.5667 16.5533 15.9244 16.1836C16.5251 15.572 16.6538 15.0315 16.9114 14.2636Z" fill="#85A0AD"/>
<path fill-rule="evenodd" clip-rule="evenodd" d="M48.3799 17.5629H51.1121L52.2421 12.3436C53.7441 12.1587 53.787 13.1969 54.0159 14.3204L54.6167 17.5629H57.3919L56.7195 14.2493C56.5622 13.4386 56.1902 12.7845 55.8899 12.4574C55.7039 12.2725 55.5465 12.1872 55.3319 12.0166C55.7755 11.7462 56.1187 11.6325 56.4621 11.4192C57.0199 11.092 57.5492 10.637 58.0785 9.71262C58.7221 8.58903 59.0512 6.86821 58.4074 5.60243C57.7637 4.29398 56.6909 4.03803 54.8026 4.03803C53.0718 4.03803 51.3553 4.00959 49.6244 4.03803L49.2095 6.17133H50.6829L48.3799 17.5629ZM52.6999 10.2103L53.5296 6.214C54.7311 6.17133 56.7195 5.87273 55.847 8.48949C55.2175 10.3525 54.0302 10.2387 52.6999 10.2103Z" fill="#85A0AD"/>
<path fill-rule="evenodd" clip-rule="evenodd" d="M74.042 17.5624H76.4737L77.332 13.7795C78.3763 13.6941 78.4621 14.2345 78.691 15.3439L79.1345 17.5766L81.6521 17.5483L81.3087 15.8416C80.9368 14.2345 81.0798 13.9359 80.1356 12.9261L82.9965 8.78759L80.3932 8.81603C79.7495 9.68355 79.163 10.7645 78.5909 11.6604H77.7755C77.7326 10.9067 79.1202 5.54506 79.3204 4.05176H75.3008L74.9145 6.18506H76.3736C76.1448 8.0054 74.0706 16.638 74.042 17.5624Z" fill="#85A0AD"/>
<path fill-rule="evenodd" clip-rule="evenodd" d="M28.1386 14.0497H25.8784L25.5781 15.4008H23.7471L26.1217 4.05176L21.7587 4.10863L21.2582 6.19928H22.8458L20.4141 17.5624L27.3947 17.534L28.1386 14.0497Z" fill="#85A0AD"/>
<path fill-rule="evenodd" clip-rule="evenodd" d="M59.9241 17.7763C60.1386 17.8616 60.3819 17.9185 60.7108 17.9612C62.9567 18.1887 64.0867 17.3638 64.7733 16.4679C65.4027 15.6572 65.603 15.0457 65.8605 14.0644C66.2324 12.7275 66.4326 11.1917 65.5887 10.0397C64.6875 8.81654 62.8566 8.43262 61.1256 9.14372C59.7668 9.71263 58.7653 10.8645 58.2648 12.4289C58.0072 13.2396 57.8499 14.1782 57.9357 15.0741C58.0502 16.3541 58.6795 17.307 59.9241 17.7763ZM60.6822 14.875C60.5249 14.3204 60.6107 13.7089 60.8252 12.8983C61.0541 12.0306 61.6978 10.5801 62.785 10.9498C63.6433 11.2058 63.6862 13.7231 62.785 15.0315C62.0984 16.0697 61.0398 16.2262 60.6822 14.875Z" fill="#85A0AD"/>
<path fill-rule="evenodd" clip-rule="evenodd" d="M29.541 17.0646C31.0001 18.8138 33.8611 17.6191 35.1341 17.1783L34.7193 15.3438C33.5892 15.7277 31.9299 16.5668 31.4865 14.8602C33.3603 15.0166 34.9911 14.4192 35.9208 12.8122C38.2382 8.77322 32.4735 7.32258 30.0131 10.5651C29.1548 11.6887 28.7256 12.8834 28.697 14.4477C28.697 14.4335 28.5683 15.8841 29.541 17.0646ZM31.558 13.1251C31.701 12.1865 32.1587 11.1198 33.017 10.9492C33.7037 10.807 33.9755 11.3048 33.8323 11.8878C33.7751 12.1439 33.675 12.3998 33.4462 12.6273C33.017 13.0398 32.3446 13.1536 31.558 13.1251Z" fill="#85A0AD"/>
<path fill-rule="evenodd" clip-rule="evenodd" d="M42.3001 12.5276C42.6721 13.9783 44.7891 14.1773 45.0467 14.8458C45.5331 16.0689 43.273 16.2253 41.9712 15.187L41.0986 17.0217C41.771 17.875 43.8451 18.1025 45.1611 17.8324C46.7489 17.5052 47.6501 16.2253 47.7216 14.6609C47.7645 13.9498 47.6072 13.58 46.9778 13.0112C46.42 12.5276 45.7763 12.3854 45.2612 12.044C44.9895 11.8592 44.8894 11.8165 44.918 11.4753C44.9609 10.8495 45.4758 10.8779 46.2339 10.9064L46.0766 11.845L47.8505 11.8165L49.0091 8.27539L46.8347 8.30383L46.7203 8.82994C45.6332 8.75884 44.3744 8.7304 43.5161 9.39885C43.5161 9.41307 41.8425 10.7642 42.3001 12.5276Z" fill="#85A0AD"/>
<path fill-rule="evenodd" clip-rule="evenodd" d="M67.7625 17.264C67.9914 17.4773 68.3348 17.6765 68.8496 17.8187C69.4218 18.0036 70.0942 18.032 70.7379 17.9325C71.1527 17.8898 71.4532 17.7903 71.7249 17.7192C72.0683 17.6337 72.3543 17.5058 72.6976 17.3778C72.8407 17.3067 72.9981 17.264 73.1554 17.1645L72.7405 15.3442C71.9539 15.6001 69.1358 17.0223 69.4362 13.7798C69.6221 11.9166 70.1943 10.6794 72.2828 10.9354L72.1255 11.8313L73.8849 11.8029L75.0578 8.26172H72.9122L72.7548 8.88737C70.2801 8.63142 68.9497 9.3283 67.9056 10.7221C67.0473 11.8455 66.661 13.4526 66.7756 15.0881C66.8328 15.9129 67.1045 16.7093 67.7625 17.264Z" fill="#85A0AD"/>
<path fill-rule="evenodd" clip-rule="evenodd" d="M36.6787 17.5623H39.0676L40.4695 10.8782L41.8141 10.9066L42.4865 8.8302H40.9416L41.4707 6.19922H39.3395L38.5527 8.8302H37.2795L36.8646 10.8782H37.9519L36.6787 17.5623Z" fill="#85A0AD"/>
<path fill-rule="evenodd" clip-rule="evenodd" d="M12.5609 11.1346C13.0185 10.1533 13.3476 8.70271 13.462 7.80675C13.5764 6.93925 13.319 6.56954 12.4035 6.42722C12.146 6.38455 11.8885 6.39878 11.6597 6.58363C11.3163 6.83971 11.3592 7.29472 11.2162 8.04848C10.9874 9.61288 10.5009 11.2912 11.1733 11.8315C11.9028 12.4146 12.3177 11.7035 12.5609 11.1346Z" fill="#85A0AD"/>
<path fill-rule="evenodd" clip-rule="evenodd" d="M14.5063 12.0442C15.2501 10.8212 16.1656 8.68791 15.7078 7.97682C15.3216 7.40804 14.2344 7.1093 13.9053 8.01947C13.6479 8.73057 13.419 9.83996 13.2331 10.4514C13.0185 11.1198 12.7038 12.0159 12.9755 12.4709C13.4619 13.31 14.1772 12.5562 14.5063 12.0442Z" fill="#85A0AD"/>
<path fill-rule="evenodd" clip-rule="evenodd" d="M42.415 7.59304H44.146L45.3904 4.05176H43.159L42.415 7.59304Z" fill="#85A0AD"/>
</svg>
