<svg width="48" height="48" viewBox="0 0 48 48" fill="none" xmlns="http://www.w3.org/2000/svg">
<path d="M25 9V16C25 16 20.3706 19.0466 14 19.0625C7.63814 19.0784 3 16.125 3 16.125M25 9C25 9 22 5 14 5C6 5 3 9 3 9M25 9C25 9 21 13 14 13C7 13 3 9 3 9M3 9V16.125M3 23.25V16.125M3 23.25V30.375M3 23.25C3 23.25 6 25.1999 13 25.1999C13.6516 25.2322 14.8466 25.1999 15.5 25.1999M3 30.375C3 30.375 8 32 15 32M3 30.375V36.4375M3 36.4375V41.5C3 41.5 5.5 44.5 13.25 44.5C16.2189 44.5 18.4174 44.0597 20 43.5165M3 36.4375C3 36.4375 9 39 15 38.431" stroke="#229BD7" stroke-width="2" stroke-linecap="round"/>
<circle cx="30.5" cy="30.5" r="12.5" stroke="#229BD7" stroke-width="2"/>
<path d="M34.23 25V26.695H28.8V29.02H31.47C31.76 29.02 32.045 29.035 32.325 29.065C33.205 29.165 33.885 29.525 34.365 30.145C34.845 30.765 35.085 31.52 35.085 32.41C35.085 33.3 34.845 34.055 34.365 34.675C33.885 35.295 33.205 35.655 32.325 35.755C32.045 35.785 31.76 35.8 31.47 35.8H27V25H34.23ZM31.395 34.105C31.655 34.105 31.88 34.085 32.07 34.045C32.49 33.955 32.79 33.76 32.97 33.46C33.16 33.15 33.255 32.8 33.255 32.41C33.255 32.02 33.16 31.67 32.97 31.36C32.79 31.05 32.49 30.855 32.07 30.775C31.88 30.735 31.655 30.715 31.395 30.715H28.8V34.105H31.395Z" fill="#229BD7"/>
</svg>
