<svg width="64" height="64" viewBox="0 0 64 64" fill="none" xmlns="http://www.w3.org/2000/svg">
<path d="M15.2888 51.7898L15.2888 38.4999C15.2888 37.9517 15.0347 37.4344 14.6007 37.0994C14.1668 36.7644 13.9127 36.2471 13.9127 35.6989L13.9127 33.8251C13.9127 33.2769 14.1668 32.7596 14.6008 32.4246C15.0348 32.0896 15.2889 31.5723 15.2889 31.0241L15.2888 27.7316C15.2888 27.1335 15.0395 26.5626 14.6008 26.1561C14.1621 25.7497 13.9127 25.1787 13.9127 24.5807L13.9127 22.9215C13.9127 22.4097 14.1261 21.9211 14.5015 21.5733C14.7175 21.3733 14.8822 21.1243 14.9818 20.8473L15.0971 20.5272C15.3682 19.7736 15.9093 19.1475 16.6156 18.77L26.8838 13.282C27.2297 13.0972 27.4457 12.7369 27.4457 12.3447L27.4457 11.7406C27.4457 11.4872 27.6511 11.2818 27.9044 11.2818C28.1578 11.2818 28.3632 11.0764 28.3632 10.8231L28.3632 8.83213C28.3632 8.63277 28.28 8.44245 28.1338 8.30697C27.9876 8.17149 27.9044 7.98116 27.9044 7.7818L27.9044 3.74316C27.9044 3.41001 28.077 3.10064 28.3604 2.92558C28.5122 2.83186 28.687 2.78223 28.8654 2.78223L34.2834 2.78223C34.4618 2.78223 34.6366 2.83186 34.7884 2.92558C35.0718 3.10064 35.2444 3.41002 35.2444 3.74316L35.2444 7.7818C35.2444 7.98116 35.1612 8.17149 35.015 8.30697C34.8687 8.44245 34.7856 8.63277 34.7856 8.83213L34.7856 10.8231C34.7856 11.0764 34.991 11.2818 35.2444 11.2818C35.4977 11.2818 35.7031 11.4872 35.7031 11.7406L35.7031 12.356C35.7031 12.7428 35.911 13.0996 36.2474 13.2904L45.9693 18.8046C46.5972 19.1607 47.0767 19.7299 47.3211 20.409L47.4491 20.7647C47.5674 21.0935 47.7802 21.3799 48.0609 21.5879C48.5116 21.9219 48.7773 22.4496 48.7773 23.0105L48.7773 24.6612C48.7773 25.2132 48.5731 25.7457 48.2039 26.1561C47.8347 26.5665 47.6305 27.099 47.6305 27.651L47.6305 31.3921C47.6305 31.8411 47.8432 32.2635 48.2039 32.5308C48.5646 32.7982 48.7773 33.2206 48.7773 33.6696L48.7773 35.7865C48.7773 36.2849 48.5695 36.7607 48.2039 37.0994C47.8383 37.4381 47.6305 37.9139 47.6305 38.4123L47.6305 40.6055L47.6305 47.6176L47.6305 51.8553C47.6305 52.4242 47.7894 52.9818 48.0892 53.4652C48.3891 53.9487 48.548 54.5063 48.548 55.0751L48.548 56.802C48.548 57.8604 48.1285 58.8756 47.3815 59.6253L46.9679 60.0404C46.2174 60.7936 45.1978 61.217 44.1344 61.217L30.4274 61.217L18.6919 61.217C17.6839 61.217 16.713 60.8364 15.9735 60.1514L15.4236 59.6419C14.6064 58.8849 14.142 57.8215 14.142 56.7076L14.142 55.1407C14.142 54.5341 14.3437 53.9446 14.7154 53.4652C15.0871 52.9858 15.2888 52.3964 15.2888 51.7898Z" stroke="#229BD7" stroke-width="2" stroke-linecap="round"/>
<path d="M20 22.6663L29.3333 17.333" stroke="#229BD7" stroke-width="2" stroke-linecap="round"/>
<path d="M21.333 54.667H41.333" stroke="#229BD7" stroke-width="2" stroke-linecap="round"/>
</svg>
