<svg width="32" height="32" viewBox="0 0 32 32" fill="none" xmlns="http://www.w3.org/2000/svg">
<path d="M30.6663 2L24.6663 5.33333L22.6378 17.2148C22.0967 18.9312 21.3112 19.6585 19.688 19.6585C13.5789 19.6585 12.9854 19.6585 6.87632 19.6585C5.53814 19.6585 4.32214 18.6985 3.71705 17.2148L1.38978 10.2737C1.31414 9.58137 1.67487 9.08101 2.37887 9.08101H19.688" stroke="#229BD7" stroke-width="2" stroke-miterlimit="2.6131" stroke-linecap="round" stroke-linejoin="round"/>
<path d="M21.905 25.8798H5.03223L6.37041 22.1038C6.87659 20.7365 8.13914 19.6602 9.47732 19.6602" stroke="#229BD7" stroke-width="2" stroke-miterlimit="2.6131" stroke-linecap="round" stroke-linejoin="round"/>
<path d="M8.66699 26.667C9.7694 26.667 10.667 27.5586 10.667 28.667C10.667 29.7694 9.7694 30.667 8.66699 30.667C7.56458 30.667 6.66699 29.7754 6.66699 28.667C6.66699 27.5586 7.56458 26.667 8.66699 26.667Z" fill="#229BD7"/>
<path d="M19.333 26.667C20.4354 26.667 21.333 27.5586 21.333 28.667C21.333 29.7694 20.4354 30.667 19.333 30.667C18.2306 30.667 17.333 29.7754 17.333 28.667C17.333 27.5586 18.2306 26.667 19.333 26.667Z" fill="#229BD7"/>
</svg>
