<svg width="24" height="24" viewBox="0 -3 24 24" fill="none" xmlns="http://www.w3.org/2000/svg">
<path d="M14.12 11.12C13.8454 11.4148 13.5141 11.6512 13.1462 11.8151C12.7782 11.9791 12.3809 12.0673 11.9781 12.0744C11.5753 12.0815 11.1752 12.0074 10.8016 11.8565C10.4281 11.7056 10.0887 11.4811 9.80385 11.1962C9.51897 10.9113 9.29439 10.572 9.14351 10.1984C8.99262 9.82486 8.91853 9.42475 8.92563 9.02193C8.93274 8.61912 9.02091 8.22187 9.18488 7.85387C9.34884 7.48588 9.58525 7.15467 9.88 6.88003M9.80385 6.95618C10.0785 6.66143 10.4097 6.42502 10.7777 6.26106C11.1457 6.09709 11.5429 6.00892 11.9458 6.00181C12.3486 5.99471 12.7487 6.0688 13.1222 6.21969C13.4958 6.37057 13.8351 6.59515 14.12 6.88003C14.4049 7.1649 14.6295 7.50424 14.7803 7.87779C14.9312 8.25134 15.0053 8.65146 14.9982 9.05427C14.9911 9.45708 14.9029 9.85433 14.739 10.2223C14.575 10.5903 14.3386 10.9215 14.0438 11.1962M20.84 12.19C17.3526 16.3346 14.1491 16.9649 12 17C5 17 1 9.00002 1 9.00002C2.24389 6.68192 5.5 2.5 9.9 1.24002C10.5883 1.0789 11.2931 0.998364 12 1.00003C19 1.00003 23 9.00002 23 9.00002C22.393 10.1356 21.6691 11.2048 20.84 12.19Z" stroke="#B7C8D6" stroke-width="2" stroke-linecap="round" stroke-linejoin="round"/>
</svg>
