<svg width="22" height="22" viewBox="0 0 22 22" fill="none" xmlns="http://www.w3.org/2000/svg">
<path d="M10.9997 5.52348C11.9521 5.52348 12.8568 5.8092 13.714 6.28539C14.5711 6.76158 15.2378 7.42825 15.714 8.28539C16.1902 9.14253 16.4759 10.0473 16.4759 10.9997C16.4759 11.9997 16.1902 12.9044 15.714 13.7616C15.2378 14.6187 14.5711 15.2854 13.714 15.7616C12.8568 16.2378 11.9521 16.4759 10.9997 16.4759C9.99967 16.4759 9.09491 16.2378 8.23777 15.7616C7.38063 15.2854 6.71396 14.6187 6.23777 13.7616C5.76158 12.9044 5.52348 11.9997 5.52348 10.9997C5.52348 10.0473 5.76158 9.14253 6.23777 8.28539C6.71396 7.42825 7.38063 6.76158 8.23777 6.28539C9.09491 5.8092 9.99967 5.52348 10.9997 5.52348ZM10.9997 14.5711C11.9521 14.5711 12.8092 14.2378 13.5235 13.5235C14.1902 12.8568 14.5711 11.9997 14.5711 10.9997C14.5711 10.0473 14.1902 9.19015 13.5235 8.47586C12.8092 7.8092 11.9521 7.42825 10.9997 7.42825C9.99967 7.42825 9.14253 7.8092 8.47586 8.47586C7.76158 9.19015 7.42825 10.0473 7.42825 10.9997C7.42825 11.9997 7.76158 12.8568 8.47586 13.5235C9.14253 14.2378 9.99967 14.5711 10.9997 14.5711ZM17.9997 5.28539C17.9997 4.95206 17.8568 4.66634 17.6187 4.38063C17.333 4.14253 17.0473 3.99967 16.714 3.99967C16.333 3.99967 16.0473 4.14253 15.8092 4.38063C15.5235 4.66634 15.4282 4.95206 15.4282 5.28539C15.4282 5.66634 15.5235 5.95206 15.8092 6.19015C16.0473 6.47586 16.333 6.5711 16.714 6.5711C17.0473 6.5711 17.333 6.47586 17.5711 6.19015C17.8092 5.95206 17.9521 5.66634 17.9997 5.28539ZM21.6187 6.5711C21.6187 7.47586 21.6663 8.95205 21.6663 10.9997C21.6663 13.0949 21.6187 14.5711 21.5711 15.4759C21.5235 16.3806 21.3806 17.1425 21.1901 17.8092C20.9044 18.6187 20.4282 19.333 19.8568 19.9044C19.2854 20.4759 18.5711 20.9044 17.8092 21.1901C17.1425 21.4282 16.333 21.5711 15.4282 21.6187C14.5235 21.6663 13.0473 21.6663 10.9997 21.6663C8.90444 21.6663 7.42825 21.6663 6.52348 21.6187C5.61872 21.5711 4.85682 21.4282 4.19015 21.1425C3.38063 20.9044 2.66634 20.4759 2.09491 19.9044C1.52348 19.333 1.09491 18.6187 0.809198 17.8092C0.571103 17.1425 0.428246 16.3806 0.380627 15.4759C0.333008 14.5711 0.333008 13.0949 0.333008 10.9997C0.333008 8.95205 0.333008 7.47586 0.380627 6.5711C0.428246 5.66634 0.571103 4.85682 0.809198 4.19015C1.09491 3.42825 1.52348 2.71396 2.09491 2.14253C2.66634 1.5711 3.38063 1.09491 4.19015 0.809198C4.85682 0.618722 5.61872 0.475865 6.52348 0.428246C7.42825 0.380627 8.90444 0.333008 10.9997 0.333008C13.0473 0.333008 14.5235 0.380627 15.4282 0.428246C16.333 0.475865 17.1425 0.618722 17.8092 0.809198C18.5711 1.09491 19.2854 1.5711 19.8568 2.14253C20.4282 2.71396 20.9044 3.42825 21.1901 4.19015C21.3806 4.85682 21.5235 5.66634 21.6187 6.5711ZM19.333 17.2854C19.5235 16.7616 19.6187 15.9044 19.714 14.714C19.714 14.0473 19.7616 13.0473 19.7616 11.7616V10.2378C19.7616 8.95205 19.714 7.95205 19.714 7.28539C19.6187 6.09491 19.5235 5.23777 19.333 4.71396C18.9521 3.76158 18.2378 3.04729 17.2854 2.66634C16.7616 2.47586 15.9044 2.38063 14.714 2.28539C13.9997 2.28539 12.9997 2.23777 11.7616 2.23777H10.2378C8.95205 2.23777 7.95205 2.28539 7.28539 2.28539C6.09491 2.38063 5.23777 2.47586 4.71396 2.66634C3.71396 3.04729 3.04729 3.76158 2.66634 4.71396C2.47586 5.23777 2.33301 6.09491 2.28539 7.28539C2.23777 7.99967 2.23777 8.99967 2.23777 10.2378V11.7616C2.23777 13.0473 2.23777 14.0473 2.28539 14.714C2.33301 15.9044 2.47586 16.7616 2.66634 17.2854C3.04729 18.2854 3.76158 18.9521 4.71396 19.333C5.23777 19.5235 6.09491 19.6663 7.28539 19.714C7.95205 19.7616 8.95205 19.7616 10.2378 19.7616H11.7616C13.0473 19.7616 14.0473 19.7616 14.714 19.714C15.9044 19.6663 16.7616 19.5235 17.2854 19.333C18.2378 18.9521 18.9521 18.2378 19.333 17.2854Z" fill="white"/>
</svg>
