<svg width="32" height="32" viewBox="0 0 32 32" fill="none" xmlns="http://www.w3.org/2000/svg">
<path d="M16 10.5239C16.9524 10.5239 17.8572 10.8096 18.7143 11.2858C19.5715 11.7619 20.2381 12.4286 20.7143 13.2858C21.1905 14.1429 21.4762 15.0477 21.4762 16C21.4762 17 21.1905 17.9048 20.7143 18.7619C20.2381 19.6191 19.5715 20.2858 18.7143 20.7619C17.8572 21.2381 16.9524 21.4762 16 21.4762C15 21.4762 14.0953 21.2381 13.2381 20.7619C12.381 20.2858 11.7143 19.6191 11.2381 18.7619C10.7619 17.9048 10.5238 17 10.5238 16C10.5238 15.0477 10.7619 14.1429 11.2381 13.2858C11.7143 12.4286 12.381 11.7619 13.2381 11.2858C14.0953 10.8096 15 10.5239 16 10.5239ZM16 19.5715C16.9524 19.5715 17.8096 19.2381 18.5238 18.5239C19.1905 17.8572 19.5715 17 19.5715 16C19.5715 15.0477 19.1905 14.1905 18.5238 13.4762C17.8096 12.8096 16.9524 12.4286 16 12.4286C15 12.4286 14.1429 12.8096 13.4762 13.4762C12.7619 14.1905 12.4286 15.0477 12.4286 16C12.4286 17 12.7619 17.8572 13.4762 18.5239C14.1429 19.2381 15 19.5715 16 19.5715ZM23 10.2858C23 9.95242 22.8572 9.66671 22.6191 9.38099C22.3334 9.1429 22.0476 9.00004 21.7143 9.00004C21.3334 9.00004 21.0476 9.1429 20.8096 9.38099C20.5238 9.66671 20.4286 9.95242 20.4286 10.2858C20.4286 10.6667 20.5238 10.9524 20.8096 11.1905C21.0476 11.4762 21.3334 11.5715 21.7143 11.5715C22.0476 11.5715 22.3334 11.4762 22.5715 11.1905C22.8096 10.9524 22.9524 10.6667 23 10.2858ZM26.6191 11.5715C26.6191 12.4762 26.6667 13.9524 26.6667 16C26.6667 18.0953 26.6191 19.5715 26.5715 20.4762C26.5238 21.381 26.381 22.1429 26.1905 22.8096C25.9048 23.6191 25.4286 24.3334 24.8572 24.9048C24.2857 25.4762 23.5715 25.9048 22.8095 26.1905C22.1429 26.4286 21.3334 26.5715 20.4286 26.6191C19.5238 26.6667 18.0476 26.6667 16 26.6667C13.9048 26.6667 12.4286 26.6667 11.5238 26.6191C10.6191 26.5715 9.85717 26.4286 9.1905 26.1429C8.38098 25.9048 7.66669 25.4762 7.09526 24.9048C6.52384 24.3334 6.09526 23.6191 5.80955 22.8096C5.57145 22.1429 5.4286 21.381 5.38098 20.4762C5.33336 19.5715 5.33336 18.0953 5.33336 16C5.33336 13.9524 5.33336 12.4762 5.38098 11.5715C5.4286 10.6667 5.57145 9.85718 5.80955 9.19052C6.09526 8.42861 6.52384 7.71433 7.09526 7.1429C7.66669 6.57147 8.38098 6.09528 9.1905 5.80956C9.85717 5.61909 10.6191 5.47623 11.5238 5.42861C12.4286 5.38099 13.9048 5.33337 16 5.33337C18.0476 5.33337 19.5238 5.38099 20.4286 5.42861C21.3334 5.47623 22.1429 5.61909 22.8095 5.80956C23.5715 6.09528 24.2857 6.57147 24.8572 7.1429C25.4286 7.71433 25.9048 8.42861 26.1905 9.19052C26.381 9.85718 26.5238 10.6667 26.6191 11.5715ZM24.3334 22.2858C24.5238 21.7619 24.6191 20.9048 24.7143 19.7143C24.7143 19.0477 24.7619 18.0477 24.7619 16.7619V15.2381C24.7619 13.9524 24.7143 12.9524 24.7143 12.2858C24.6191 11.0953 24.5238 10.2381 24.3334 9.71433C23.9524 8.76195 23.2381 8.04766 22.2857 7.66671C21.7619 7.47623 20.9048 7.38099 19.7143 7.28576C19 7.28576 18 7.23814 16.7619 7.23814H15.2381C13.9524 7.23814 12.9524 7.28576 12.2857 7.28576C11.0953 7.38099 10.2381 7.47623 9.71431 7.66671C8.71431 8.04766 8.04764 8.76195 7.66669 9.71433C7.47622 10.2381 7.33336 11.0953 7.28574 12.2858C7.23812 13 7.23812 14 7.23812 15.2381V16.7619C7.23812 18.0477 7.23812 19.0477 7.28574 19.7143C7.33336 20.9048 7.47622 21.7619 7.66669 22.2858C8.04764 23.2858 8.76193 23.9524 9.71431 24.3334C10.2381 24.5239 11.0953 24.6667 12.2857 24.7143C12.9524 24.7619 13.9524 24.7619 15.2381 24.7619H16.7619C18.0476 24.7619 19.0476 24.7619 19.7143 24.7143C20.9048 24.6667 21.7619 24.5239 22.2857 24.3334C23.2381 23.9524 23.9524 23.2381 24.3334 22.2858Z" fill="url(#paint0_linear)"/>
<defs>
<linearGradient id="paint0_linear" x1="6.76571" y1="25.2768" x2="26.5325" y2="8.16556" gradientUnits="userSpaceOnUse">
<stop stop-color="#FFDD55"/>
<stop offset="0.5" stop-color="#FF543E"/>
<stop offset="1" stop-color="#C837AB"/>
</linearGradient>
</defs>
</svg>
