<svg width="30" height="30" viewBox="0 0 30 30" fill="none" xmlns="http://www.w3.org/2000/svg">
<path fill-rule="evenodd" clip-rule="evenodd" d="M24 24.3809C26.4653 22.015 28 18.6867 28 15C28 7.8203 22.1797 2 15 2C7.8203 2 2 7.8203 2 15C2 18.6867 3.53466 22.015 6 24.3809V23.4C6 19.534 9.13401 16.4 13 16.4H17C20.866 16.4 24 19.534 24 23.4V24.3809ZM22 25.9564V23.4C22 20.6386 19.7614 18.4 17 18.4H13C10.2386 18.4 8 20.6386 8 23.4V25.9564C10.0206 27.25 12.4227 28 15 28C17.5773 28 19.9794 27.25 22 25.9564ZM15 30C23.2843 30 30 23.2843 30 15C30 6.71573 23.2843 0 15 0C6.71573 0 0 6.71573 0 15C0 23.2843 6.71573 30 15 30ZM15 13C16.5464 13 17.8 11.7464 17.8 10.2C17.8 8.6536 16.5464 7.4 15 7.4C13.4536 7.4 12.2 8.6536 12.2 10.2C12.2 11.7464 13.4536 13 15 13ZM15 15C17.651 15 19.8 12.851 19.8 10.2C19.8 7.54903 17.651 5.4 15 5.4C12.349 5.4 10.2 7.54903 10.2 10.2C10.2 12.851 12.349 15 15 15Z" fill="#229BD7"/>
</svg>
