<svg width="40" height="40" viewBox="0 0 40 40" fill="none" xmlns="http://www.w3.org/2000/svg">
<path d="M20.9375 9.35712C23.5215 9.35712 25.6163 7.26245 25.6163 4.67856C25.6163 2.09466 23.5215 0 20.9375 0C18.3535 0 16.2588 2.09466 16.2588 4.67856C16.2588 7.26245 18.3535 9.35712 20.9375 9.35712Z" fill="#85A0AD"/>
<path d="M20.9378 40.0004C22.488 40.0004 23.7447 38.7437 23.7447 37.1935C23.7447 35.6434 22.488 34.3867 20.9378 34.3867C19.3876 34.3867 18.1309 35.6434 18.1309 37.1935C18.1309 38.7437 19.3876 40.0004 20.9378 40.0004Z" fill="#85A0AD" fill-opacity="0.8"/>
<path d="M9.44066 13.6505C11.7664 13.6505 13.6518 11.7652 13.6518 9.43952C13.6518 7.11385 11.7664 5.22852 9.44066 5.22852C7.11489 5.22852 5.22949 7.11385 5.22949 9.43952C5.22949 11.7652 7.11489 13.6505 9.44066 13.6505Z" fill="#85A0AD" fill-opacity="0.95"/>
<path d="M32.4341 34.7694C33.7261 34.7694 34.7735 33.7221 34.7735 32.4301C34.7735 31.1382 33.7261 30.0908 32.4341 30.0908C31.1421 30.0908 30.0947 31.1382 30.0947 32.4301C30.0947 33.7221 31.1421 34.7694 32.4341 34.7694Z" fill="#85A0AD" fill-opacity="0.75"/>
<path d="M4.6786 24.6782C6.74529 24.6782 8.42068 23.0029 8.42068 20.9363C8.42068 18.8697 6.74529 17.1943 4.6786 17.1943C2.61191 17.1943 0.936523 18.8697 0.936523 20.9363C0.936523 23.0029 2.61191 24.6782 4.6786 24.6782Z" fill="#85A0AD" fill-opacity="0.9"/>
<path d="M37.1945 22.8049C38.2274 22.8049 39.0648 21.9676 39.0648 20.9347C39.0648 19.9018 38.2274 19.0645 37.1945 19.0645C36.1616 19.0645 35.3242 19.9018 35.3242 20.9347C35.3242 21.9676 36.1616 22.8049 37.1945 22.8049Z" fill="#85A0AD" fill-opacity="0.7"/>
<path d="M7.12582 30.1178C5.84608 31.3975 5.84608 33.4681 7.12582 34.7478C8.40405 36.0275 10.4778 36.0275 11.756 34.7478C13.0357 33.4681 13.0357 31.3975 11.756 30.1178C10.4778 28.8366 8.40557 28.8245 7.12582 30.1178Z" fill="#85A0AD" fill-opacity="0.85"/>
<path d="M32.432 10.8414C33.2067 10.8414 33.8347 10.2135 33.8347 9.43879C33.8347 8.66412 33.2067 8.03613 32.432 8.03613C31.6573 8.03613 31.0293 8.66412 31.0293 9.43879C31.0293 10.2135 31.6573 10.8414 32.432 10.8414Z" fill="#85A0AD" fill-opacity="0.65"/>
</svg>
