<svg width="48" height="48" viewBox="0 0 48 48" fill="none" xmlns="http://www.w3.org/2000/svg">
<path d="M47.9326 26.7173C47.9325 26.7171 47.9325 26.717 47.9324 26.7168L38.8698 3.96136C38.6775 3.47786 38.1294 3.24183 37.6459 3.43416C37.6456 3.43428 37.6452 3.4344 37.6449 3.43464L0.879122 18.0744C0.729186 18.1392 0.599155 18.2426 0.502221 18.3741C0.19646 18.5329 0.00329788 18.8474 0 19.1919V43.6905C0 44.2109 0.421894 44.6328 0.942253 44.6328H40.5169C41.0372 44.6328 41.4591 44.2109 41.4591 43.6905V30.3105L47.4066 27.9417C47.89 27.7489 48.1254 27.2007 47.9326 26.7173ZM39.5746 42.7482H1.88451V20.1342H39.5746V42.7482ZM15.7215 18.2544L31.4986 11.9677C32.9066 13.4477 34.8577 14.2889 36.9005 14.2969L38.4741 18.2544H15.7215ZM41.4591 28.2866V19.1919C41.4591 18.6716 41.0372 18.2497 40.5169 18.2497H40.5018L38.5052 13.235C38.483 13.1932 38.4572 13.1534 38.4279 13.1163C38.3268 12.6625 37.9066 12.3528 37.4432 12.3907C35.5425 12.564 33.6831 11.7633 32.503 10.2631C32.2094 9.90073 31.6933 9.81062 31.2941 10.0521C31.2493 10.0574 31.2049 10.0656 31.1612 10.0766L11.8997 17.7465C11.6666 17.8379 11.4802 18.0192 11.3824 18.2497H5.53291L37.4677 5.53397L45.834 26.5415L41.4591 28.2866Z" fill="#229BD7"/>
<path d="M4.4423 36.387C6.27168 36.9277 7.7032 38.3575 8.24617 40.1861C8.36525 40.5853 8.73238 40.8588 9.14885 40.8589C9.19773 40.8558 9.24626 40.8485 9.29396 40.8372C9.33624 40.8492 9.37947 40.8581 9.42305 40.8636H32.0371C32.076 40.8585 32.1144 40.8507 32.1521 40.8401C32.6228 40.9545 33.0973 40.6659 33.2119 40.1951C33.2122 40.1933 33.2127 40.1917 33.2131 40.1899C33.7546 38.3593 35.1864 36.9276 37.0169 36.386C37.4608 36.2503 37.7367 35.808 37.6633 35.3495C37.6759 35.3038 37.685 35.2572 37.6906 35.2101V27.6721C37.6851 27.6248 37.6757 27.5782 37.6624 27.5326C37.7362 27.0741 37.4603 26.6315 37.016 26.4961C35.1854 25.9547 33.754 24.5224 33.214 22.6913C33.0776 22.2443 32.6309 21.9678 32.17 22.0449C32.1264 22.0328 32.082 22.024 32.0371 22.0186H9.42305C9.37558 22.0242 9.32859 22.0336 9.28265 22.0468C8.82436 21.9738 8.38221 22.2495 8.24617 22.6932C7.70426 24.5234 6.27263 25.9547 4.4423 26.4961C3.99838 26.6318 3.72254 27.0742 3.79591 27.5326C3.78366 27.5784 3.77483 27.625 3.76953 27.6721V35.2101C3.77495 35.2544 3.78378 35.2982 3.79591 35.3411C3.71865 35.8024 3.99508 36.2498 4.4423 36.387ZM5.65404 28.0546C7.54608 27.2947 9.04568 25.7951 9.8056 23.9031H31.6536C32.4139 25.7951 33.9138 27.2947 35.8061 28.0546V34.8275C33.9147 35.5883 32.4153 37.0877 31.6546 38.9791H9.8056C9.04485 37.0877 7.54549 35.5883 5.65404 34.8275V28.0546Z" fill="#229BD7"/>
<path d="M10.3626 32.8551C11.1431 32.8551 11.776 32.2222 11.776 31.4417C11.776 30.6612 11.1431 30.0283 10.3626 30.0283C9.58206 30.0283 8.94922 30.6612 8.94922 31.4417C8.94922 32.2224 9.58206 32.8551 10.3626 32.8551ZM10.3626 30.9706C10.6228 30.9706 10.8337 31.1815 10.8337 31.4417C10.8337 31.7019 10.6228 31.9128 10.3626 31.9128C10.1024 31.9128 9.89147 31.7019 9.89147 31.4417C9.89147 31.1815 10.1024 30.9706 10.3626 30.9706Z" fill="#229BD7"/>
<path d="M31.0931 32.8551C31.8736 32.8551 32.5065 32.2222 32.5065 31.4417C32.5065 30.6612 31.8736 30.0283 31.0931 30.0283C30.3125 30.0283 29.6797 30.6612 29.6797 31.4417C29.6797 32.2224 30.3125 32.8551 31.0931 32.8551ZM31.0931 30.9706C31.3533 30.9706 31.5642 31.1815 31.5642 31.4417C31.5642 31.7019 31.3533 31.9128 31.0931 31.9128C30.8329 31.9128 30.6219 31.7019 30.6219 31.4417C30.6219 31.1815 30.8329 30.9706 31.0931 30.9706Z" fill="#229BD7"/>
<path d="M19.9538 32.9972V34.0514H23.5692V35.5028H19.9538V37H18.1077V35.5028H17V34.0514H18.1077V32.9972H17V31.4236H18.1077V26H22.2923C22.6205 26 22.9179 26.0204 23.1846 26.0611C24.1077 26.2037 24.8051 26.5907 25.2769 27.2222C25.759 27.8537 26 28.6329 26 29.5597C26 30.4968 25.759 31.2606 25.2769 31.8514C24.8051 32.4421 24.1077 32.8037 23.1846 32.9361C22.9179 32.9769 22.6205 32.9972 22.2923 32.9972H19.9538ZM19.9538 31.4236H22.2154C22.4923 31.4236 22.7282 31.3931 22.9231 31.3319C23.3333 31.2199 23.6359 31.0162 23.8308 30.7208C24.0359 30.4153 24.1385 30.0486 24.1385 29.6208C24.1385 29.1931 24.041 28.8111 23.8462 28.475C23.6615 28.1287 23.3538 27.9046 22.9231 27.8028C22.7385 27.7519 22.5026 27.7264 22.2154 27.7264H19.9538V31.4236Z" fill="#229BD7"/>
</svg>
