<svg width="40" height="40" viewBox="0 0 40 40" fill="none" xmlns="http://www.w3.org/2000/svg">
<path d="M39.9863 6.57538C39.6996 5.12139 38.9812 3.76943 37.9086 2.66481L37.9024 2.65831C37.353 2.08469 36.4426 1.29605 35.2256 0.796307L35.1979 0.784949C34.0233 0.264044 32.7628 0 31.4517 0C29.5126 0 27.6785 0.578762 26.1476 1.67387L26.1373 1.68124C24.8212 2.63151 23.9527 3.9894 23.8452 4.16239C23.8403 4.16996 23.8356 4.17763 23.8311 4.1853C23.1406 5.35583 22.7757 6.68265 22.7757 8.02239C22.7757 8.3006 22.7914 8.58222 22.8227 8.85927C22.8518 9.11817 23.0194 9.3463 23.2687 9.46696C23.4266 9.54336 23.5916 9.60694 23.7612 9.65723C24.4371 11.5702 25.9133 13.1001 27.79 13.9605C26.9855 14.3404 26.263 14.8428 25.638 15.4572C25.3202 15.7696 25.3365 16.2611 25.6744 16.5549C26.0123 16.8486 26.5438 16.8336 26.8616 16.5212C27.162 16.2259 27.4907 15.9636 27.8452 15.7361C28.3537 17.068 29.6641 18.0438 31.1546 18.0438H31.2799C32.7729 18.0438 34.0821 16.998 34.5605 15.583C36.334 16.611 37.4687 18.4426 37.4687 20.4019V28.4687L29.8295 33.0521C29.4404 33.2856 29.3296 33.7665 29.5822 34.1263C29.743 34.3555 30.0125 34.4802 30.2875 34.4802C30.4442 34.4802 30.6027 34.4397 30.7439 34.355L38.7657 29.542C39.0043 29.3988 39.1484 29.1536 39.1484 28.8905V20.4019C39.1484 17.6517 37.488 15.1865 34.8638 13.9565C37.3489 12.8096 39.1062 10.495 39.2784 7.79911C39.5155 7.6004 39.7216 7.36693 39.8864 7.10435C39.9869 6.94475 40.0222 6.75711 39.9863 6.57538ZM31.28 16.4907H31.1547C30.1495 16.4907 29.3003 15.5899 29.3003 14.5235C29.3003 14.5102 29.3 14.497 29.2993 14.4838C29.9505 14.6421 30.6316 14.7259 31.3301 14.7259C31.927 14.7259 32.5096 14.6644 33.0699 14.5478C33.0042 15.5977 32.196 16.4907 31.28 16.4907ZM31.33 13.1727C28.7974 13.1727 26.5519 11.7777 25.5682 9.68674C26.7344 9.38173 27.6264 8.46689 27.8146 7.34014C28.3157 7.39965 28.8235 7.42965 29.333 7.42965C31.0413 7.42965 32.687 7.09852 34.1609 6.46443C34.5408 7.67059 35.7472 8.55455 37.1727 8.55455C37.2767 8.55455 37.38 8.5497 37.4823 8.54018C36.8901 11.1787 34.3488 13.1727 31.33 13.1727ZM37.1727 7.00145C36.3697 7.00145 35.7164 6.39754 35.7164 5.65511V5.22293C35.7164 4.94035 35.5504 4.68009 35.2829 4.54331C35.0153 4.40643 34.6886 4.41488 34.4299 4.56525C32.952 5.4231 31.1895 5.87654 29.3329 5.87654C28.6068 5.87654 27.8855 5.80577 27.1892 5.66618C26.9411 5.61638 26.6818 5.67317 26.484 5.82062C26.2863 5.96808 26.1713 6.19029 26.1713 6.42511V6.89622C26.1713 7.63855 25.5181 8.24255 24.7152 8.24255C24.6602 8.24255 24.6058 8.23974 24.552 8.2342C24.5396 8.23246 24.5271 8.231 24.5146 8.22983C24.4958 8.2275 24.4772 8.22469 24.4586 8.22168C24.4564 8.15509 24.4552 8.08869 24.4552 8.02248C24.4552 6.94495 24.7476 5.87829 25.3009 4.93714C25.3031 4.93336 25.3072 4.92685 25.3072 4.92685C25.3143 4.91491 26.073 3.69885 27.1697 2.90643L27.1753 2.90245C28.4093 2.01974 29.888 1.5532 31.4517 1.5532C32.5094 1.5532 33.5254 1.76589 34.4715 2.18535C34.4878 2.19264 34.5121 2.20283 34.5438 2.21574C35.4779 2.59938 36.195 3.22027 36.6349 3.67759C36.6397 3.68284 36.6447 3.68798 36.6497 3.69322C37.4423 4.50642 37.9962 5.4861 38.2637 6.54277C37.989 6.8305 37.5917 7.00145 37.1727 7.00145ZM24.1767 26.8712C26.0799 25.8357 27.3601 23.9214 27.3601 21.7362C27.3601 20.7528 27.1008 19.8242 26.6423 19.0059C26.6258 18.9716 26.607 18.9389 26.586 18.9078C25.4957 17.0484 23.3655 15.7829 20.9217 15.7829C18.4773 15.7829 16.3467 17.0488 15.2567 18.9091C15.2363 18.9394 15.2179 18.9713 15.2019 19.0047C14.7428 19.8232 14.4833 20.7522 14.4833 21.7362C14.4833 23.9211 15.7629 25.8349 17.6655 26.8705C15.3104 27.9963 13.8186 30.2309 13.8186 32.704V35.5365C13.8186 35.802 13.9652 36.049 14.2074 36.1916L20.4707 39.8786C20.6084 39.9595 20.765 40 20.9218 40C21.0776 40 21.2334 39.96 21.3704 39.8799L27.6485 36.2123C27.8933 36.0693 28.0411 35.8198 28.0398 35.5521L28.025 32.7003C28.0121 30.2214 26.5219 27.9941 24.1767 26.8712ZM20.9217 17.3361C22.3836 17.3361 23.6934 17.9486 24.5671 18.9108C23.4353 19.2107 22.1942 19.3671 20.9219 19.3671C19.6491 19.3671 18.4079 19.2107 17.2763 18.9108C18.1499 17.9486 19.4598 17.3361 20.9217 17.3361ZM16.163 21.7362C16.163 21.2317 16.2553 20.7466 16.4251 20.2949C17.8111 20.7053 19.349 20.9203 20.9219 20.9203C22.4943 20.9203 24.0321 20.7053 25.4182 20.2949C25.588 20.7466 25.6803 21.2317 25.6803 21.7362C25.6803 24.1624 23.5457 26.1363 20.9217 26.1363C18.2978 26.1363 16.163 24.1624 16.163 21.7362ZM22.4124 27.5285C22.3075 28.2631 21.6106 28.7598 20.98 28.7598H20.8778C20.21 28.7598 19.4683 28.2375 19.3723 27.5153C19.8687 27.629 20.3877 27.6895 20.9216 27.6895C21.4345 27.6895 21.9338 27.6337 22.4124 27.5285ZM20.9234 38.3039L15.4982 35.1103V32.7041C15.4982 30.9965 16.4313 29.4373 17.9418 28.5183C18.4666 29.6257 19.7037 30.313 20.8778 30.313H20.98C22.2475 30.313 23.3679 29.5502 23.8519 28.4906C25.3842 29.4041 26.3362 30.9755 26.3451 32.7078L26.3577 35.1293L20.9234 38.3039ZM14.8907 17.4582C15.1355 17.0939 15.0146 16.615 14.6207 16.3886C14.3649 16.2416 14.0997 16.1084 13.8276 15.9897C14.8655 15.4991 15.7836 14.7964 16.5124 13.9174C16.8125 14.0137 17.1347 14.0661 17.4698 14.0661C19.0838 14.0661 20.3968 12.852 20.3968 11.3596V9.42968C20.3968 6.9764 19.3833 4.65291 17.543 2.8874C15.708 1.12704 13.2444 0.104453 10.6061 0.00796016C10.3768 -0.00019415 10.1627 -0.00213565 9.9528 0.00262103C7.32629 0.0612544 4.84874 1.04424 2.97654 2.77043C1.0571 4.54011 0 6.90515 0 9.42978V11.3597C0 12.8521 1.31305 14.0662 2.92709 14.0662C3.2622 14.0662 3.5843 14.0139 3.88435 13.9176C4.68717 14.8858 5.7198 15.6402 6.88923 16.1327C4.29767 17.393 2.69476 19.8324 2.69476 22.5339V28.8907C2.69476 29.1538 2.8388 29.399 3.07754 29.5422L10.6968 34.1136C10.838 34.1983 10.9965 34.2388 11.1532 34.2388C11.4282 34.2388 11.6978 34.1139 11.8585 33.8848C12.111 33.525 12.0002 33.0441 11.6112 32.8107L4.37452 28.4689V22.5339C4.37452 20.737 5.27939 19.0872 6.79527 18.0226C7.31516 19.4175 8.65015 20.4657 10.1262 20.4657H10.2516C11.8547 20.4657 13.1343 19.1239 13.5849 17.6249C13.635 17.6518 13.6846 17.6795 13.7338 17.7078C14.128 17.9343 14.6459 17.8224 14.8907 17.4582ZM5.00433 6.60722C4.46135 7.45993 4.17432 8.43593 4.17432 9.42978V11.3597C4.17432 11.7276 3.98702 12.0559 3.6959 12.2672C3.67091 12.2822 3.64708 12.2984 3.6244 12.3154C3.42525 12.4402 3.18515 12.513 2.92699 12.513C2.23923 12.513 1.67976 11.9957 1.67976 11.3597V9.42968C1.67976 5.11829 5.33157 1.6595 9.99302 1.55524C10.1673 1.55126 10.3463 1.55301 10.5403 1.5599C15.1253 1.72794 18.717 5.18469 18.717 9.42968V11.3596C18.717 11.9956 18.1574 12.5129 17.4696 12.5129C17.2115 12.5129 16.9713 12.44 16.772 12.3152C16.7494 12.2983 16.7257 12.2822 16.7008 12.2672C16.4097 12.0559 16.2223 11.7275 16.2223 11.3596V9.42968C16.2223 6.68848 14.0138 4.31965 11.0852 3.9196C10.8549 3.88796 10.6209 3.94639 10.439 4.08055C10.2571 4.21471 10.1434 4.41255 10.1251 4.62709C10.079 5.16993 9.97254 5.7052 9.80782 6.22465H5.72799C5.43057 6.22465 5.15519 6.37017 5.00433 6.60722ZM10.2516 18.9125H10.1262C9.17675 18.9125 8.2448 17.8467 8.2448 16.7607C8.2448 16.6937 8.23546 16.6278 8.21761 16.5646C8.8555 16.7146 9.51974 16.7927 10.1985 16.7927C10.841 16.7927 11.4707 16.7226 12.0772 16.588C12.0201 17.7173 11.0958 18.9125 10.2516 18.9125ZM10.1985 15.2395C8.24092 15.2395 6.43423 14.4155 5.24726 13.0078C5.62752 12.551 5.85397 11.9793 5.85397 11.3596V9.42968C5.85397 8.85762 5.98563 8.2941 6.23738 7.77785H10.414C10.7656 7.77785 11.0799 7.57545 11.2018 7.27044C11.4118 6.74526 11.5702 6.20349 11.6756 5.65171C13.3572 6.21766 14.5427 7.72359 14.5427 9.42968V11.3596C14.5427 11.9793 14.7691 12.551 15.1495 13.0078C13.9626 14.4156 12.156 15.2395 10.1985 15.2395Z" fill="white"/>
</svg>
