<svg width="12" height="20" viewBox="0 0 12 20" fill="none" xmlns="http://www.w3.org/2000/svg">
<path d="M9.99193 12.8212C10.6171 12.3845 10.9991 12.057 11.1727 11.8023C11.3811 11.5111 11.3811 11.1109 11.2075 10.6742C11.0338 10.3831 10.7907 10.1647 10.5129 10.0919C10.0961 10.0192 9.71409 10.1283 9.29733 10.4558L8.88058 10.747C8.53328 10.9653 8.15125 11.1109 7.76922 11.2564C7.17882 11.4384 6.58841 11.5111 5.99801 11.5111C5.37287 11.5111 4.78247 11.4384 4.22679 11.2564C3.81003 11.1109 3.46274 10.9653 3.11544 10.747L2.69868 10.4558C2.28192 10.1283 1.86517 10.0192 1.51787 10.0919C1.17057 10.1647 0.962195 10.3831 0.823276 10.6742C0.614898 11.1109 0.614898 11.5111 0.823276 11.8023C0.962195 12.057 1.37895 12.3845 2.00409 12.8212C2.73341 13.3306 3.7753 13.6581 5.16449 13.8037L1.79571 17.3335C1.44841 17.661 1.37895 18.0249 1.51787 18.4252C1.65679 18.8255 1.8999 19.0802 2.31665 19.2258C2.69868 19.3713 3.04598 19.2986 3.35855 18.9711L5.99801 16.2054L8.6722 19.0074C8.95003 19.335 9.29733 19.4077 9.67936 19.2622C10.0614 19.1166 10.3392 18.8255 10.4781 18.4252C10.6171 18.0249 10.5129 17.661 10.235 17.3335L6.86625 13.8037C8.18598 13.6581 9.22787 13.3306 9.99193 12.8212ZM1.48314 5.39767C1.48314 6.27102 1.65679 7.03521 2.07355 7.763C2.4903 8.4908 3.04598 9.03664 3.74057 9.47332C4.43517 9.91 5.16449 10.0919 5.99801 10.0919C6.79679 10.0919 7.56084 9.91 8.25544 9.47332C8.95003 9.03664 9.47098 8.4908 9.88774 7.763C10.3045 7.03521 10.5129 6.27102 10.5129 5.39767C10.5129 4.52431 10.3045 3.76012 9.88774 3.03233C9.47098 2.30453 8.95003 1.75869 8.25544 1.32201C7.56084 0.885331 6.79679 0.666992 5.99801 0.666992C5.16449 0.666992 4.43517 0.885331 3.74057 1.32201C3.04598 1.75869 2.4903 2.30453 2.07355 3.03233C1.65679 3.76012 1.48314 4.52431 1.48314 5.39767ZM3.7753 5.39767C3.7753 4.74265 3.98368 4.1968 4.43517 3.76012C4.85193 3.32345 5.37287 3.06872 5.99801 3.06872C6.58841 3.06872 7.10936 3.32345 7.56084 3.76012C7.9776 4.1968 8.22071 4.74265 8.22071 5.39767C8.22071 6.05268 7.9776 6.59853 7.56084 7.03521C7.10936 7.47188 6.58841 7.69022 5.99801 7.69022C5.37287 7.69022 4.85193 7.47188 4.43517 7.03521C3.98368 6.59853 3.7753 6.05268 3.7753 5.39767Z" fill="white"/>
</svg>
