<svg width="20" height="20" viewBox="0 0 20 20" fill="none" xmlns="http://www.w3.org/2000/svg">
<g clip-path="url(#clip0)">
<path d="M4.62791 14.2145L0.310072 9.8967C-0.109941 9.47669 0.0368195 8.764 0.588596 8.54411C2.88224 7.63003 4.90643 7.48629 6.5301 7.79992C6.58168 7.80988 6.63074 7.81996 6.67736 7.83L11.8924 3.39299C11.8427 2.58885 12.0066 1.8397 12.3145 1.16763C12.4783 0.810246 12.6477 0.546759 12.7766 0.386512C13.085 0.00343078 13.6575 -0.027456 14.0052 0.320243L19.6875 6.00163C20.0369 6.351 20.0039 6.92684 19.6168 7.23396C19.3008 7.48462 18.9481 7.67746 18.5672 7.81853C17.9212 8.05775 17.2629 8.13352 16.6559 8.10976L12.1799 13.3712C12.1876 13.4163 12.1954 13.4639 12.2031 13.514C12.4629 15.2038 12.3096 17.2312 11.4456 19.4015C11.2259 19.9535 10.5129 20.1005 10.0929 19.6803L5.79703 15.3837L1.50055 19.6802C1.17769 20.003 0.654207 20.003 0.331348 19.6802C0.00849152 19.3573 0.00849152 18.8338 0.331348 18.511L4.62791 14.2145ZM10.3177 17.5666C10.6964 16.1629 10.7383 14.8678 10.5688 13.7653C10.5371 13.5593 10.5073 13.4235 10.4914 13.3663C10.4175 13.1017 10.4799 12.8176 10.658 12.6083L15.6714 6.71528C15.8585 6.49532 16.1469 6.38894 16.4321 6.43467C16.4406 6.43602 16.4722 6.44005 16.5234 6.4447C16.891 6.47807 17.3064 6.45858 17.7047 6.35735L13.6515 2.30479C13.5362 2.70868 13.5025 3.14412 13.5783 3.60347C13.6256 3.88974 13.5193 4.17981 13.2983 4.36781L7.41934 9.36965C7.1936 9.56171 6.8823 9.61821 6.60346 9.5178C6.55351 9.49982 6.42244 9.46316 6.2165 9.4234C5.17065 9.22138 3.8886 9.2542 2.41801 9.66623L6.65307 13.9013L10.3177 17.5666Z" fill="white"/>
</g>
<defs>
<clipPath id="clip0">
<rect width="19.8621" height="19.8621" fill="white" transform="matrix(-1 0 0 1 19.9297 0.0693359)"/>
</clipPath>
</defs>
</svg>
