<svg width="20" height="20" viewBox="0 0 20 20" fill="none" xmlns="http://www.w3.org/2000/svg">
<path d="M10.9375 9.0625H14.1451C14.6172 9.0625 15 9.48223 15 10C15 10.5178 14.6172 10.9375 14.1451 10.9375H10.9375V14.1451C10.9375 14.6172 10.5178 15 10 15C9.48223 15 9.0625 14.6172 9.0625 14.1451V10.9375H5.85492C5.38276 10.9375 5 10.5178 5 10C5 9.48223 5.38276 9.0625 5.85492 9.0625H9.0625V5.85492C9.0625 5.38276 9.48223 5 10 5C10.5178 5 10.9375 5.38276 10.9375 5.85492V9.0625Z" fill="#007BC2"/>
</svg>
