<svg width="20" height="20" viewBox="0 0 20 20" fill="none" xmlns="http://www.w3.org/2000/svg">
<g clip-path="url(#clip0)">
<path d="M19.1663 1.25L15.4163 3.33333L14.1485 10.7593C13.8103 11.832 13.3194 12.2865 12.3049 12.2865C8.48667 12.2865 8.11576 12.2865 4.29758 12.2865C3.46122 12.2865 2.70122 11.6865 2.32303 10.7593L0.868489 6.42108C0.821216 5.98836 1.04667 5.67563 1.48667 5.67563H12.3049" stroke="#229BD7" stroke-width="2" stroke-miterlimit="2.6131" stroke-linecap="round" stroke-linejoin="round"/>
<path d="M13.691 16.1744H3.14551L3.98187 13.8144C4.29823 12.9598 5.08733 12.2871 5.92369 12.2871" stroke="#229BD7" stroke-width="2" stroke-miterlimit="2.6131" stroke-linecap="round" stroke-linejoin="round"/>
<path d="M5.41699 16.667C6.106 16.667 6.66699 17.2242 6.66699 17.917C6.66699 18.606 6.106 19.167 5.41699 19.167C4.72799 19.167 4.16699 18.6098 4.16699 17.917C4.16699 17.2242 4.72799 16.667 5.41699 16.667Z" fill="#229BD7"/>
<path d="M12.083 16.667C12.772 16.667 13.333 17.2242 13.333 17.917C13.333 18.606 12.772 19.167 12.083 19.167C11.394 19.167 10.833 18.6098 10.833 17.917C10.833 17.2242 11.394 16.667 12.083 16.667Z" fill="#229BD7"/>
</g>
<defs>
<clipPath id="clip0">
<rect width="20" height="20" fill="white"/>
</clipPath>
</defs>
</svg>
