<svg width="20" height="20" viewBox="0 0 20 20" fill="none" xmlns="http://www.w3.org/2000/svg">
<g clip-path="url(#clip0)">
<path d="M14.322 4.31934C13.9266 4.31934 13.6061 4.63984 13.6061 5.03531C13.6061 5.43078 13.9266 5.75129 14.322 5.75129C16.6645 5.75129 18.5702 7.65703 18.5702 9.99949C18.5702 12.3422 16.6643 14.2479 14.322 14.2479H9.07145C8.67598 14.2479 8.35547 14.5684 8.35547 14.9639C8.35547 15.3594 8.67598 15.6799 9.07145 15.6799H14.322C17.454 15.6799 20.0022 13.1317 20.0022 9.99945C20.0022 6.86754 17.454 4.31934 14.322 4.31934Z" fill="#007BC2"/>
<path d="M10.0118 14.963L12.7615 11.7551C13.019 11.4551 12.9841 11.0031 12.6839 10.7458C12.3841 10.4885 11.9319 10.5226 11.6746 10.8234L8.52403 14.4988C8.29348 14.7676 8.29419 15.1644 8.52547 15.4324L11.6758 19.084C11.8173 19.2479 12.0171 19.3322 12.2181 19.3322C12.3839 19.3322 12.5503 19.2752 12.6856 19.1582C12.9849 18.9 13.0183 18.4479 12.76 18.1484L10.0118 14.963Z" fill="#007BC2"/>
<path d="M10.9308 4.31934H5.68019C2.5482 4.31934 0 6.86754 0 9.99949C0 13.1317 2.5482 15.6799 5.68019 15.6799C6.07566 15.6799 6.39617 15.3594 6.39617 14.9639C6.39617 14.5685 6.07566 14.248 5.68019 14.248C3.3377 14.248 1.43199 12.3422 1.43199 9.99953C1.43199 7.65703 3.33773 5.75133 5.68019 5.75133H10.9308C11.3263 5.75133 11.6468 5.43082 11.6468 5.03535C11.6468 4.63988 11.3263 4.31934 10.9308 4.31934Z" fill="#007BC2"/>
<path d="M11.4711 4.56876L8.32074 0.917202C8.06273 0.617905 7.61023 0.584507 7.31093 0.842749C7.0114 1.10123 6.978 1.55326 7.23648 1.85255L9.98445 5.03798L7.2348 8.24611C6.97753 8.54634 7.01238 8.99837 7.31261 9.25564C7.44769 9.37138 7.61331 9.42794 7.77824 9.42794C7.97992 9.42794 8.18062 9.34298 8.32238 9.17783L11.4725 5.5024C11.703 5.23369 11.7023 4.83677 11.4711 4.56876Z" fill="#007BC2"/>
</g>
<defs>
<clipPath id="clip0">
<rect width="20" height="20" fill="white"/>
</clipPath>
</defs>
</svg>
