<svg width="88" height="88" viewBox="0 0 88 88" fill="none" xmlns="http://www.w3.org/2000/svg">
<g filter="url(#filter0_d)">
<circle cx="44" cy="32" r="24" fill="#EF5026"/>
<g clip-path="url(#clip0)">
<path d="M38.6279 36.2145L34.3101 31.8967C33.8901 31.4767 34.0368 30.764 34.5886 30.5441C36.8822 29.63 38.9064 29.4863 40.5301 29.7999C40.5817 29.8099 40.6307 29.82 40.6774 29.83L45.8924 25.393C45.8427 24.5889 46.0066 23.8397 46.3145 23.1676C46.4783 22.8102 46.6477 22.5468 46.7766 22.3865C47.085 22.0034 47.6575 21.9725 48.0052 22.3202L53.6875 28.0016C54.0369 28.351 54.0039 28.9268 53.6168 29.234C53.3008 29.4846 52.9481 29.6775 52.5672 29.8185C51.9212 30.0578 51.2629 30.1335 50.6559 30.1098L46.1799 35.3712C46.1876 35.4163 46.1954 35.4639 46.2031 35.514C46.4629 37.2038 46.3096 39.2312 45.4456 41.4015C45.2259 41.9535 44.5129 42.1005 44.0929 41.6803L39.797 37.3837L35.5006 41.6802C35.1777 42.003 34.6542 42.003 34.3313 41.6802C34.0085 41.3573 34.0085 40.8338 34.3313 40.511L38.6279 36.2145ZM44.3177 39.5666C44.6964 38.1629 44.7383 36.8678 44.5688 35.7653C44.5371 35.5593 44.5073 35.4235 44.4914 35.3663C44.4175 35.1017 44.4799 34.8176 44.658 34.6083L49.6714 28.7153C49.8585 28.4953 50.1469 28.3889 50.4321 28.4347C50.4406 28.436 50.4722 28.4401 50.5234 28.4447C50.891 28.4781 51.3064 28.4586 51.7047 28.3574L47.6515 24.3048C47.5362 24.7087 47.5025 25.1441 47.5783 25.6035C47.6256 25.8897 47.5193 26.1798 47.2983 26.3678L41.4193 31.3696C41.1936 31.5617 40.8823 31.6182 40.6035 31.5178C40.5535 31.4998 40.4224 31.4632 40.2165 31.4234C39.1707 31.2214 37.8886 31.2542 36.418 31.6662L40.6531 35.9013L44.3177 39.5666Z" fill="white"/>
</g>
</g>
<defs>
<filter id="filter0_d" x="0" y="0" width="88" height="88" filterUnits="userSpaceOnUse" color-interpolation-filters="sRGB">
<feFlood flood-opacity="0" result="BackgroundImageFix"/>
<feColorMatrix in="SourceAlpha" type="matrix" values="0 0 0 0 0 0 0 0 0 0 0 0 0 0 0 0 0 0 127 0"/>
<feOffset dy="12"/>
<feGaussianBlur stdDeviation="10"/>
<feColorMatrix type="matrix" values="0 0 0 0 0.133333 0 0 0 0 0.607843 0 0 0 0 0.843137 0 0 0 0.2 0"/>
<feBlend mode="normal" in2="BackgroundImageFix" result="effect1_dropShadow"/>
<feBlend mode="normal" in="SourceGraphic" in2="effect1_dropShadow" result="shape"/>
</filter>
<clipPath id="clip0">
<rect width="19.8621" height="19.8621" fill="white" transform="matrix(-1 0 0 1 53.9297 22.0693)"/>
</clipPath>
</defs>
</svg>
