<svg width="22" height="13" viewBox="0 0 22 13" fill="none" xmlns="http://www.w3.org/2000/svg">
<path d="M21.1905 1.49199C21.1112 1.86699 20.794 2.50449 20.2388 3.36699C19.8423 4.00449 19.3665 4.71699 18.8113 5.54199C18.3355 6.21699 18.0579 6.55449 18.0579 6.55449C17.8993 6.77949 17.82 6.96699 17.82 7.07949C17.82 7.22949 17.8993 7.37949 18.0579 7.52949L18.4148 7.90449C20.3181 9.77949 21.3888 11.0545 21.6267 11.7295C21.706 12.0295 21.6663 12.292 21.5077 12.442C21.3491 12.592 21.1509 12.667 20.8336 12.667H18.4941C18.1769 12.667 17.939 12.592 17.701 12.4045C17.5424 12.3295 17.2252 12.067 16.8287 11.617C16.4321 11.167 16.0753 10.792 15.758 10.492C14.6874 9.55449 13.8943 9.06699 13.4185 9.06699C13.1806 9.06699 13.022 9.10449 12.9427 9.17949C12.8634 9.25449 12.8237 9.44199 12.8237 9.66699C12.7841 9.85449 12.7841 10.2295 12.7841 10.8295V11.8045C12.7841 12.1045 12.7048 12.3295 12.5461 12.442C12.3082 12.592 11.8324 12.667 11.1186 12.667C9.84974 12.667 8.62049 12.3295 7.35159 11.617C6.0827 10.942 4.97241 9.92949 4.02074 8.61699C3.10872 7.49199 2.35531 6.32949 1.76052 5.12949C1.28468 4.22949 0.88815 3.40449 0.610579 2.61699C0.412314 2.01699 0.333008 1.56699 0.333008 1.30449C0.333008 0.891992 0.570926 0.666992 1.12607 0.666992H3.4656C3.74317 0.666992 3.94143 0.741992 4.10005 0.854492C4.25866 1.00449 4.37762 1.22949 4.49658 1.52949C4.85345 2.54199 5.28964 3.51699 5.84478 4.45449C6.32062 5.35449 6.79645 6.06699 7.27229 6.59199C7.74812 7.15449 8.105 7.41699 8.38257 7.41699C8.54119 7.41699 8.62049 7.37949 8.6998 7.26699C8.7791 7.15449 8.81876 6.92949 8.81876 6.59199V3.32949C8.7791 2.95449 8.6998 2.57949 8.54119 2.27949C8.46188 2.12949 8.30327 1.94199 8.14466 1.71699C7.94639 1.49199 7.86708 1.34199 7.86708 1.19199C7.86708 1.04199 7.90674 0.929492 8.0257 0.816992C8.14466 0.741992 8.30327 0.666992 8.46188 0.666992H12.1496C12.3875 0.666992 12.5461 0.741992 12.6254 0.854492C12.7048 1.00449 12.7841 1.19199 12.7841 1.49199V5.84199C12.7841 6.06699 12.8237 6.25449 12.903 6.32949C12.9823 6.44199 13.0616 6.47949 13.1806 6.47949C13.2995 6.47949 13.4582 6.44199 13.6168 6.36699C13.7754 6.29199 13.9737 6.10449 14.2512 5.80449C14.7271 5.27949 15.2425 4.64199 15.758 3.85449C16.0753 3.32949 16.4321 2.72949 16.7494 2.05449L17.1459 1.30449C17.3045 0.891992 17.6614 0.666992 18.1372 0.666992H20.4767C21.1112 0.666992 21.3491 0.966992 21.1905 1.49199Z" fill="#ffffff"/>
</svg>
