<svg width="40" height="40" viewBox="0 0 40 40" fill="none" xmlns="http://www.w3.org/2000/svg">
<path d="M7.23008 14.4602C11.2167 14.4602 14.4602 11.2167 14.4602 7.23008C14.4602 3.24344 11.2167 0 7.23008 0C3.24344 0 0 3.24344 0 7.23008C0 11.2167 3.24344 14.4602 7.23008 14.4602ZM7.23008 1.5625C10.3552 1.5625 12.8977 4.105 12.8977 7.23008C12.8977 10.3552 10.3552 12.8977 7.23008 12.8977C4.105 12.8977 1.5625 10.3552 1.5625 7.23008C1.5625 4.105 4.105 1.5625 7.23008 1.5625Z" fill="#004F91"/>
<path d="M7.85258 8.94735C8.00508 9.0993 8.20461 9.17524 8.40414 9.17524C8.60445 9.17524 8.80492 9.09867 8.9575 8.94555C9.26203 8.63992 9.26125 8.14524 8.9557 7.84063L8.01758 6.90563V3.4375C8.01758 3.00609 7.66773 2.65625 7.23633 2.65625C6.80492 2.65625 6.45508 3.00609 6.45508 3.4375V7.23008C6.45508 7.43774 6.53781 7.63688 6.68477 7.78344L7.85258 8.94735Z" fill="#004F91"/>
<path d="M39.2188 25.9372H34.4104C33.7495 24.997 32.7563 24.3311 31.6236 24.0834L28.1889 23.3324C29.5945 22.3845 30.5207 20.7776 30.5207 18.9584V17.0508V16.1682V15.9696C30.5207 13.0624 28.1555 10.6973 25.2484 10.6973C22.3412 10.6973 19.976 13.0624 19.976 15.9696V16.1682V17.0508V18.9584C19.976 20.7752 20.8998 22.3805 22.3024 23.3289L18.8699 24.082C18.7233 24.1141 18.5791 24.1536 18.4375 24.1993V17.7341C18.4375 17.3027 18.0877 16.9528 17.6562 16.9528H12.3438C11.9123 16.9528 11.5625 17.3027 11.5625 17.7341C11.5625 18.1655 11.9123 18.5153 12.3438 18.5153H16.875V29.4528H11.5625V25.5466C11.5625 24.2542 10.5111 23.2028 9.21875 23.2028C7.92641 23.2028 6.875 24.2542 6.875 25.5466V29.4528H1.5625V18.5153H6.09375C6.52516 18.5153 6.875 18.1655 6.875 17.7341C6.875 17.3027 6.52516 16.9528 6.09375 16.9528H0.78125C0.349844 16.9528 0 17.3027 0 17.7341V30.2341C0 30.6655 0.349844 31.0153 0.78125 31.0153H6.875V32.4997H6.79688C5.46141 32.4997 4.375 33.5861 4.375 34.9216V35.3122H0.78125C0.349844 35.3122 0 35.662 0 36.0934V39.2184C0 39.6498 0.349844 39.9997 0.78125 39.9997H39.2188C39.6502 39.9997 40 39.6498 40 39.2184V36.0934V32.9684V29.8434V26.7184C40 26.287 39.6502 25.9372 39.2188 25.9372ZM34.4671 35.3122H30V33.7497H38.4375V35.3122H34.4671ZM38.4375 32.1872H30V30.6247H38.4375V32.1872ZM38.4375 29.0622H30V27.4997H33.9745C33.9769 27.4997 33.9792 27.5002 33.9815 27.5002C33.9839 27.5002 33.9864 27.4997 33.9888 27.4997H38.4375V29.0622ZM21.5384 15.9697C21.5384 13.9241 23.2027 12.2598 25.2483 12.2598C27.1962 12.2598 28.7982 13.7688 28.9469 15.6791L27.1308 14.6122C26.8018 14.4188 26.3813 14.4916 26.1363 14.784C25.3452 15.7281 24.1849 16.2697 22.9531 16.2697H21.5385V16.1684V15.9697H21.5384ZM21.5384 17.8321H22.9531C24.4238 17.8321 25.8203 17.2713 26.8754 16.2743L28.9582 17.498V18.9584C28.9582 21.0041 27.2939 22.6683 25.2484 22.6683C23.2028 22.6683 21.5385 21.004 21.5385 18.9584V17.8321H21.5384ZM26.4722 24.0859L25.2366 27.3901L23.9988 24.0799C24.3996 24.1777 24.8178 24.2308 25.2483 24.2308C25.6697 24.2308 26.0791 24.1797 26.4722 24.0859ZM17.6562 31.0153C18.0877 31.0153 18.4375 30.6655 18.4375 30.2341V25.8885C18.6785 25.7615 18.9355 25.6673 19.2047 25.6082L22.6219 24.8585L24.5049 29.8942C24.6191 30.1995 24.9107 30.4018 25.2366 30.4018C25.5626 30.4018 25.8542 30.1995 25.9684 29.8941L27.8515 24.8581L31.2898 25.6099C31.5916 25.6759 31.878 25.7876 32.1416 25.9371H29.2188C28.7873 25.9371 28.4375 26.287 28.4375 26.7184V29.8434V32.9684V35.3121H16.8109V31.0152H17.6562V31.0153ZM15.2484 31.0153V35.3122H14.0625V34.9216C14.0625 33.5861 12.9761 32.4997 11.6406 32.4997H11.5625V31.0153H15.2484ZM8.4375 25.5466C8.4375 25.1158 8.78797 24.7653 9.21875 24.7653C9.64953 24.7653 10 25.1158 10 25.5466V32.4997H8.4375V25.5466ZM5.9375 34.9216C5.9375 34.4477 6.32305 34.0622 6.79688 34.0622H7.65625H10.7812H11.6406C12.1145 34.0622 12.5 34.4477 12.5 34.9216V35.3122H5.9375V34.9216ZM38.4375 38.4372H1.5625V36.8747H38.4375V38.4372Z" fill="#004F91"/>
<path d="M8.66641 17.182C8.52109 17.3273 8.4375 17.5289 8.4375 17.7344C8.4375 17.9398 8.52102 18.1414 8.66641 18.2866C8.81172 18.432 9.01328 18.5156 9.21875 18.5156C9.42422 18.5156 9.62578 18.432 9.77102 18.2866C9.91641 18.1414 10 17.9398 10 17.7344C10 17.5289 9.91641 17.3273 9.77102 17.182C9.62578 17.0367 9.42422 16.9531 9.21875 16.9531C9.01328 16.9531 8.81172 17.0366 8.66641 17.182Z" fill="#004F91"/>
</svg>
