<svg width="1132" height="453" viewBox="0 0 1132 453" fill="none" xmlns="http://www.w3.org/2000/svg">
<path d="M829.5 95C874.4 46.2262 793.281 23.2124 759.553 18.4852C633.085 0.757816 626.16 60.2925 564.238 59.5624C490.901 58.6976 461.716 26.2682 374.908 38.3745C305.858 48.0043 323.154 103.764 207.546 125.923C11.4996 163.5 164.481 238.536 258.916 261.921C327.015 278.785 374.436 281.566 363.683 307.755C345.984 350.86 410.828 368.722 448.245 380.829C485.662 392.936 606.892 411.097 674.991 360.507C753.288 302.339 826.903 309.917 870.306 311.646C913.71 313.376 1035.55 299.334 1063 246.5C1106.73 162.325 773.375 155.967 829.5 95Z" fill="url(#paint0_linear)"/>
<path fill-rule="evenodd" clip-rule="evenodd" d="M570.026 224.202C555.936 222.551 543.78 218.024 533.559 210.624C523.523 203.245 516.076 193.821 511.219 182.351C506.383 170.695 504.791 157.822 506.443 143.732L514.007 79.2136C515.659 65.1235 520.174 53.0605 527.553 43.0247C534.953 32.8035 544.389 25.2642 555.859 20.4067C567.514 15.571 580.387 13.979 594.478 15.6309C608.568 17.2827 620.631 21.798 630.667 29.1767C640.888 36.5772 648.416 46.1052 653.252 57.7609C658.109 69.2312 659.712 82.0114 658.06 96.1016L650.497 160.62C648.845 174.71 644.319 186.866 636.918 197.087C629.539 207.123 620.022 214.558 608.367 219.394C596.896 224.252 584.116 225.854 570.026 224.202ZM573.775 192.222C580.635 193.026 587.134 192.096 593.272 189.433C599.596 186.791 604.764 182.792 608.775 177.436C612.807 171.895 615.226 165.694 616.03 158.834L624.148 89.5887C624.952 82.729 624.023 76.2299 621.359 70.0913C618.718 63.7674 614.626 58.5891 609.085 54.5564C603.729 50.5455 597.621 48.1379 590.761 47.3338C583.901 46.5296 577.309 47.4483 570.986 50.0899C564.847 52.7533 559.761 56.8557 555.729 62.3972C551.718 67.7533 549.31 73.8612 548.506 80.7208L540.388 149.967C539.584 156.826 540.503 163.418 543.144 169.742C545.808 175.881 549.817 180.955 555.173 184.966C560.715 188.999 566.915 191.417 573.775 192.222ZM415.416 224.164L326.379 231.265L323.863 199.725L377.475 58.3756L415.714 55.3257L362.381 196.653L412.901 192.624L408.738 140.43L442.79 137.714L446.952 189.908L465.932 188.394L468.448 219.934L449.468 221.448L452.117 254.662L418.065 257.378L415.416 224.164ZM697.564 246.423L786.396 237.1L789.873 270.238L823.847 266.673L820.369 233.535L839.305 231.548L836.003 200.08L817.067 202.068L811.602 149.994L777.628 153.559L783.093 205.633L732.69 210.923L782.477 68.3074L744.326 72.3111L694.261 214.956L697.564 246.423Z" fill="#229BD7"/>
<mask id="mask0" mask-type="alpha" maskUnits="userSpaceOnUse" x="0" y="150" width="984" height="303">
<path d="M699.5 162.001C592.984 193.46 595.135 150.577 524 150.577C451.915 150.578 457.726 172.578 391.856 172.578C346.856 172.578 322.58 151.367 267 156.578C203 162.578 218.357 205.578 61.222 219.675C-91.077 233.339 80.9801 287.428 181.429 312.281C253.864 330.203 304.306 333.158 292.868 360.991C274.042 406.801 343.015 425.784 382.815 438.651C422.614 451.518 551.565 470.818 624 417.053C707.284 355.235 755.332 385.85 801.5 387.688C847.668 389.526 920.657 410.969 949.856 354.819C973.121 310.082 1031 213.501 905.271 201.5C838.5 219.675 779.052 138.506 699.5 162.001Z" fill="#AFE7FF"/>
</mask>
<g mask="url(#mask0)">
<path fill-rule="evenodd" clip-rule="evenodd" d="M570.026 224.203C555.936 222.552 543.78 218.025 533.559 210.625C523.523 203.246 516.076 193.822 511.219 182.352C506.383 170.696 504.791 157.823 506.443 143.733L514.007 79.2146C515.659 65.1244 520.174 53.0615 527.553 43.0257C534.953 32.8045 544.389 25.2652 555.859 20.4077C567.514 15.572 580.387 13.98 594.478 15.6319C608.568 17.2837 620.631 21.799 630.667 29.1777C640.888 36.5782 648.416 46.1062 653.252 57.7619C658.109 69.2322 659.712 82.0124 658.06 96.1026L650.497 160.621C648.845 174.711 644.319 186.867 636.918 197.088C629.539 207.124 620.022 214.559 608.367 219.395C596.896 224.253 584.116 225.855 570.026 224.203ZM573.775 192.222C580.635 193.027 587.134 192.097 593.272 189.434C599.596 186.792 604.764 182.793 608.775 177.437C612.807 171.896 615.226 165.695 616.03 158.835L624.148 89.5896C624.952 82.7299 624.023 76.2308 621.359 70.0923C618.718 63.7684 614.626 58.5901 609.085 54.5574C603.729 50.5465 597.621 48.1389 590.761 47.3347C583.901 46.5305 577.309 47.4493 570.986 50.0909C564.847 52.7543 559.761 56.8567 555.729 62.3982C551.718 67.7542 549.31 73.8621 548.506 80.7218L540.388 149.968C539.584 156.827 540.503 163.419 543.144 169.743C545.808 175.882 549.817 180.956 555.173 184.967C560.715 189 566.915 191.418 573.775 192.222ZM415.416 224.165L326.379 231.266L323.863 199.726L377.475 58.3765L415.714 55.3267L362.381 196.654L412.901 192.625L408.738 140.431L442.79 137.715L446.952 189.909L465.932 188.395L468.448 219.935L449.468 221.449L452.117 254.663L418.065 257.379L415.416 224.165ZM697.564 246.424L786.396 237.101L789.873 270.239L823.847 266.674L820.369 233.536L839.305 231.549L836.003 200.081L817.067 202.069L811.602 149.995L777.628 153.56L783.093 205.634L732.69 210.924L782.477 68.3083L744.326 72.3121L694.261 214.957L697.564 246.424Z" fill="url(#paint1_linear)"/>
</g>
<defs>
<linearGradient id="paint0_linear" x1="254" y1="34.4999" x2="960" y2="351.5" gradientUnits="userSpaceOnUse">
<stop stop-color="#D7F3FF"/>
<stop offset="1" stop-color="#B4E6FB"/>
</linearGradient>
<linearGradient id="paint1_linear" x1="414" y1="42.001" x2="943.5" y2="347.001" gradientUnits="userSpaceOnUse">
<stop stop-color="#9BDEFF"/>
<stop offset="1" stop-color="#5CC2F4"/>
</linearGradient>
</defs>
</svg>
