<svg width="86" height="88" viewBox="0 0 86 88" fill="none" xmlns="http://www.w3.org/2000/svg">
<path d="M85.4667 75.2248L76.4582 60.2689L77.265 53.3974H78.4122C80.4453 53.3974 82.0997 51.7503 82.0997 49.7237V45.5164C82.0997 43.492 80.4453 41.8438 78.4122 41.8438H73.3536V37.0251C73.3536 37.012 73.3547 36.9989 73.3547 36.9857C73.3547 36.6828 73.2493 36.4039 73.0736 36.1841C73.0736 36.183 73.0725 36.183 73.0725 36.1819L68.6056 30.5889V25.8905C68.6056 24.3407 67.341 23.0797 65.7854 23.0797H60.5829C60.55 23.013 60.516 22.9485 60.483 22.8861C59.8419 21.6853 58.0756 20.1476 55.2323 18.3157C54.6428 17.9373 54.2915 17.2909 54.2915 16.5855V13.17C54.8459 12.8966 55.2279 12.3268 55.2279 11.6695V4.49717C55.2279 2.01782 53.2036 0 50.7138 0H45.7979C43.3081 0 41.2837 2.01782 41.2837 4.49717V11.6695C41.2837 12.3268 41.6647 12.8966 42.2201 13.17V16.5855C42.2201 17.2909 41.8678 17.9373 41.2782 18.3168C40.8084 18.6186 40.2825 18.9697 39.7468 19.3492C39.7512 19.2497 39.7534 19.1491 39.7534 19.0485C39.7534 15.2578 36.6576 12.1736 32.8526 12.1736C29.0466 12.1736 25.9519 15.2578 25.9519 19.0485C25.9519 19.533 26.0046 20.0218 26.1078 20.4965C26.2626 21.2281 26.4075 21.9095 26.5425 22.5438C24.9683 21.9882 23.1482 22.2387 21.7627 23.3652C20.7407 24.1964 20.1051 25.3742 19.9722 26.6823C19.8383 27.9903 20.2247 29.271 21.0547 30.2826C21.272 30.5517 21.5245 30.7999 21.8012 31.0209L25.6533 34.1138C23.4852 36.02 22.0811 38.7717 21.968 41.846H15.7918L15.5218 41.3407C15.5624 41.32 15.603 41.2981 15.6425 41.2773C19.7801 39.0845 23.2305 35.4841 21.8209 32.8429C20.4114 30.2028 15.4856 31.0406 11.348 33.2334C11.3073 33.2541 11.2667 33.276 11.2272 33.2979L9.4883 30.0398C9.52892 30.0191 9.56953 29.9972 9.61015 29.9764C11.6718 28.8838 13.4513 27.5189 14.6205 26.1311C16.5482 23.8464 16.1794 22.2759 15.7875 21.5431C15.3955 20.8104 14.2944 19.627 11.315 19.942C9.50696 20.1334 7.37504 20.8399 5.31448 21.9325C5.27386 21.9543 5.23326 21.9751 5.19374 21.997L3.88954 19.5559C3.1628 18.1943 2.79396 16.7255 2.79396 15.1922C2.79396 11.7351 4.69422 8.58094 7.75487 6.95902C9.95924 5.79098 12.4897 5.54819 14.8774 6.27439C17.2651 7.00168 19.2257 8.61156 20.3993 10.8077L22.6278 14.9844C22.9637 15.6132 23.7464 15.8517 24.3777 15.517C25.0089 15.1834 25.2482 14.4025 24.9123 13.7737L22.6827 9.59696C19.5924 3.80707 12.3502 1.60441 6.53851 4.6831C2.63256 6.75342 0.205357 10.7792 0.205357 15.1922C0.205357 17.1247 0.68947 19.0528 1.60393 20.7666L12.8585 41.846H7.5891C5.55599 41.846 3.90164 43.4931 3.90164 45.5186V49.7259C3.90164 51.7514 5.55599 53.3996 7.5891 53.3996H8.73521L9.5421 60.2711L0.533576 75.227C0.0209061 76.0779 -0.128397 77.0786 0.11202 78.041C0.353535 79.0035 0.957334 79.8161 1.81252 80.3268C2.24395 80.5849 2.71382 80.7511 3.21002 80.8211C3.38676 80.8463 3.56132 80.8583 3.73587 80.8583C5.03346 80.8583 6.2509 80.1846 6.93263 79.0527L10.9616 72.3638L11.2525 74.8475C11.3304 75.5037 11.8892 75.9871 12.5358 75.9871C12.5852 75.9871 12.6368 75.9849 12.6873 75.9784C13.3965 75.8953 13.9047 75.2555 13.8224 74.5478L13.1429 68.7427L22.3863 53.3974H63.6162L72.8596 68.7427L71.236 82.5732C71.046 84.1973 69.665 85.4222 68.0238 85.4222H17.9808C16.3396 85.4222 14.9586 84.1973 14.7687 82.5721L14.4273 79.6651C14.3438 78.9586 13.7016 78.4523 12.9914 78.5354C12.2822 78.6185 11.7739 79.2583 11.8573 79.9659L12.1987 82.8707C12.5402 85.7952 15.0278 88 17.9819 88H68.0249C70.9801 88 73.4667 85.7952 73.8081 82.8707L75.042 72.3616L79.0709 79.0505C80.1413 80.8266 82.4357 81.3745 84.191 80.3257C85.9552 79.2681 86.5282 76.9867 85.4667 75.2248ZM12.5599 35.5082C16.7272 33.299 19.341 33.6949 19.5331 34.0525C19.7241 34.4102 18.5912 36.7911 14.424 38.9992C14.3845 39.0211 14.3438 39.0418 14.3032 39.0626L12.4392 35.5716C12.4798 35.5508 12.5193 35.529 12.5599 35.5082ZM6.52535 24.2073C8.27523 23.2799 10.1195 22.6587 11.584 22.5045C12.8706 22.3688 13.4371 22.6379 13.4975 22.7527C13.5578 22.8665 13.4667 23.4855 12.6346 24.472C11.6861 25.5963 10.1393 26.772 8.38829 27.6994C8.34877 27.7213 8.30817 27.742 8.26755 27.7628L6.40461 24.2718C6.44522 24.25 6.48583 24.2292 6.52535 24.2073ZM74.2779 56.6499L72.3184 53.3974H74.6589L74.2779 56.6499ZM48.0417 41.8438V37.4352L52.1222 32.3278H66.6867L69.3774 35.6974H63.5151C62.8005 35.6974 62.2209 36.2749 62.2209 36.9868C62.2209 37.6988 62.7994 38.2763 63.5151 38.2763H70.7661V41.8449H48.0417V41.8438ZM66.017 25.8894V29.7489H52.7919V25.8894C52.7919 25.7614 52.8962 25.6575 53.0246 25.6575H59.6992C59.7102 25.6575 59.7212 25.6586 59.7333 25.6586C59.7453 25.6586 59.7563 25.6575 59.7673 25.6575H65.7843C65.9128 25.6586 66.017 25.7625 66.017 25.8894ZM45.7957 2.57669H50.7116C51.7731 2.57669 52.6371 3.43741 52.6371 4.49608V10.7639H43.869V4.49608C43.8701 3.43741 44.7341 2.57669 45.7957 2.57669ZM42.679 20.4812C44.0096 19.6259 44.8054 18.1691 44.8054 16.5844V13.3417H51.7007V16.5844C51.7007 18.1691 52.4955 19.6259 53.826 20.4801C55.6154 21.6328 56.6825 22.4859 57.3181 23.0786H53.0246C51.469 23.0786 50.2044 24.3385 50.2044 25.8883V30.5867L45.7364 36.1808C45.5542 36.4094 45.4542 36.6915 45.4542 36.9836V41.8427H43.7362C43.622 38.7684 42.2201 36.0168 40.052 34.1105C40.4867 33.7616 40.9972 33.3526 41.6131 32.8571L43.9008 31.0209C44.1742 30.8032 44.4245 30.5561 44.6452 30.2859C45.4806 29.2677 45.8659 27.9859 45.7331 26.679C45.5991 25.371 44.9635 24.1931 43.9393 23.3619C42.9172 22.5318 41.6306 22.1468 40.3198 22.2803C40.2441 22.2879 40.1673 22.2978 40.0926 22.3087C40.7996 21.7476 41.6778 21.1264 42.679 20.4812ZM38.1836 27.1558C38.5392 26.6538 38.8631 25.021 40.5811 24.8471C41.2058 24.7837 41.8173 24.9663 42.3047 25.3622C42.7921 25.7581 43.0951 26.3192 43.1587 26.9415C43.24 27.7431 42.9085 28.5131 42.2816 29.0129L39.9905 30.8513C39.0607 31.5983 38.3746 32.1495 37.8213 32.5925C37.5863 32.4722 37.347 32.3606 37.1033 32.2567L38.1836 27.1558ZM32.8494 14.7503C35.2272 14.7503 37.1626 16.6785 37.1626 19.0474C37.1626 19.3547 37.1308 19.6598 37.0649 19.9617L36.5621 22.3306C36.5599 22.3437 36.5555 22.3557 36.5544 22.3688L34.6091 31.5371C34.0361 31.4441 33.4488 31.396 32.8494 31.396C32.2511 31.396 31.6638 31.4441 31.0907 31.5371L31.0742 31.4616C30.6252 29.3399 30.1433 27.0651 28.6338 19.9562C28.568 19.6544 28.535 19.3492 28.535 19.0474C28.5361 16.6785 30.4715 14.7503 32.8494 14.7503ZM23.0603 28.6574C22.2403 27.6567 22.3907 26.1781 23.3941 25.3611C24.5347 24.4348 26.2813 24.7607 26.9784 26.1179L27.5174 27.1613C28.0037 29.4525 28.2781 30.7496 28.5416 31.9931L28.5976 32.2556C28.3539 32.3595 28.1146 32.4711 27.8796 32.5914C23.1679 28.7887 23.3271 28.9855 23.0603 28.6574ZM32.8494 33.9738C37.2932 33.9738 40.9324 37.4681 41.1443 41.8438H24.5533C24.7663 37.4692 28.4055 33.9738 32.8494 33.9738ZM11.3381 53.3974H13.6797L11.7201 56.6499L11.3381 53.3974ZM4.71178 77.7239C4.47466 78.1176 4.02678 78.3309 3.5701 78.2663H3.56899C3.4186 78.2445 3.27478 78.1941 3.14194 78.1143C2.87957 77.9579 2.69513 77.7086 2.62048 77.4133C2.54583 77.118 2.59195 76.8117 2.74893 76.5504L11.9781 61.228C11.9792 61.2269 11.9803 61.2259 11.9803 61.2248L17.0477 52.8112C17.0653 52.7838 17.0829 52.7554 17.0982 52.7269L19.9206 48.0417C20.0776 47.7803 20.3279 47.5965 20.6243 47.5222C20.7166 47.4992 20.8099 47.4872 20.9032 47.4872C21.1085 47.4872 21.3093 47.5429 21.4905 47.6501C22.0306 47.9739 22.2074 48.6749 21.8824 49.2141L20.5595 51.4102C20.5442 51.4331 20.531 51.4561 20.5178 51.4791L4.71178 77.7239ZM23.9364 50.8196L24.1043 50.5418C24.617 49.6909 24.7663 48.6902 24.5248 47.7278C24.2833 46.7653 23.6795 45.9527 22.8243 45.442C21.9702 44.9313 20.9658 44.7825 19.9997 45.0231C19.0325 45.2637 18.2179 45.8653 17.7053 46.7172L15.2331 50.8207H7.58693C6.98094 50.8207 6.48803 50.3296 6.48803 49.7259V45.5186C6.48803 44.9149 6.98094 44.4238 7.58693 44.4238H78.4122C79.0182 44.4238 79.5111 44.9149 79.5111 45.5186V49.7259C79.5111 50.3307 79.0182 50.8207 78.4122 50.8207H70.7661L68.2938 46.7172C67.7812 45.8653 66.9655 45.2637 65.9984 45.0231C65.0312 44.7825 64.0289 44.9313 63.1737 45.442C62.3196 45.9527 61.7159 46.7653 61.4744 47.7278C61.2329 48.6913 61.3822 49.6909 61.8948 50.5418L62.0617 50.8196H23.9364ZM82.4279 78.2663C82.4027 78.262 81.6716 78.3648 81.2863 77.7239C80.318 76.1162 65.0246 50.7288 64.1135 49.2152C63.7885 48.676 63.9642 47.9749 64.5054 47.6512C65.0477 47.3264 65.7492 47.5014 66.0752 48.0417C67.0303 49.6275 73.0868 59.6816 74.0123 61.2193C74.0145 61.2226 74.0167 61.2259 74.0189 61.2291L83.248 76.5515C83.6729 77.258 83.2271 78.1537 82.4279 78.2663Z" fill="#007BC2"/>
</svg>
