<svg width="87" height="105" viewBox="0 0 87 105" fill="none" xmlns="http://www.w3.org/2000/svg">
<path d="M12.6664 91.2358L19.8125 94.8081V102.797C19.8125 103.617 20.4772 104.281 21.2969 104.281H37.0312C37.8509 104.281 38.5156 103.617 38.5156 102.797V83.4184C38.5156 78.8707 35.1041 75.0992 30.5904 74.6467C30.5729 74.6418 24.3115 73.6642 21.4066 70.7593L18.073 67.4272C16.9514 66.3054 15.4605 65.6875 13.875 65.6875V53.8125C13.875 50.5386 11.2114 47.875 7.9375 47.875C4.66356 47.875 2 50.5386 2 53.8125V73.9762C2 77.5622 2.99661 81.0702 4.88191 84.1208C6.76707 87.1713 9.45898 89.6317 12.6664 91.2358ZM4.96875 53.8125C4.96875 52.1755 6.30053 50.8438 7.9375 50.8438C9.57447 50.8438 10.9062 52.1755 10.9062 53.8125V66.4833C9.09591 67.5301 7.9375 69.4817 7.9375 71.625C7.9375 73.2103 8.5553 74.7011 9.67704 75.8228L17.2785 83.4258C17.8579 84.0054 18.7979 84.0057 19.3777 83.4259C19.9574 82.8463 19.9575 81.9065 19.3779 81.3267L11.7764 73.7236C11.2153 73.1627 10.9062 72.4174 10.9062 71.625C10.9062 70.3686 11.7014 69.2435 12.8852 68.8253C12.8857 68.8252 12.8861 68.8249 12.8866 68.8247H12.8867C13.9103 68.4619 15.1247 68.6772 15.9741 69.5265L19.3077 72.8588C22.7493 76.3003 30.2687 77.5955 30.2837 77.5996C33.2842 77.9003 35.5469 80.402 35.5469 83.4184V101.312H22.7812V93.8906C22.7812 93.3283 22.4634 92.8143 21.9607 92.563L13.9942 88.5804C8.4272 85.7963 4.96875 80.2004 4.96875 73.9762V53.8125Z" fill="#007BC2"/>
<path d="M78.1328 89.1406C78.9526 89.1406 79.6172 88.4761 79.6172 87.6563C79.6172 86.8365 78.9526 86.1719 78.1328 86.1719C77.313 86.1719 76.6484 86.8365 76.6484 87.6563C76.6484 88.4761 77.313 89.1406 78.1328 89.1406Z" fill="#007BC2"/>
<path d="M80.0625 47.875C76.7886 47.875 74.125 50.5386 74.125 53.8125V65.6875C72.5395 65.6875 71.0486 66.3053 69.9273 67.4267L66.5931 70.7595C63.7525 73.6004 57.4353 74.6414 57.4203 74.6457C52.8959 75.0993 49.4844 78.8707 49.4844 83.4185V102.797C49.4844 103.617 50.1491 104.281 50.9688 104.281H66.7031C67.5228 104.281 68.1875 103.617 68.1875 102.797V94.8081L73.0459 92.3794C73.779 92.0127 74.0763 91.1212 73.7098 90.3878C73.3433 89.6547 72.4521 89.3573 71.7184 89.7238L66.0393 92.5627C65.5366 92.8144 65.2188 93.3283 65.2188 93.8906V101.312H52.4531V83.4184C52.4531 80.402 54.7158 77.9003 57.727 77.5984C57.742 77.5943 65.0636 76.4874 68.692 72.8588L72.0262 69.5261C72.8759 68.6764 74.0915 68.4624 75.1133 68.8246H75.1134C75.1139 68.8247 75.1143 68.825 75.1148 68.8252C76.2986 69.2436 77.0938 70.3688 77.0938 71.625C77.0938 72.4174 76.7847 73.1627 76.2238 73.7239L68.6223 81.3269C68.0426 81.9067 68.0428 82.8464 68.6224 83.4261C69.2019 84.0056 70.142 84.0057 70.7216 83.4259L78.3231 75.823C79.4447 74.7012 80.0625 73.2103 80.0625 71.625C80.0625 69.4817 78.9041 67.5301 77.0938 66.4833V53.8125C77.0938 52.1755 78.4255 50.8438 80.0625 50.8438C81.6995 50.8438 83.0312 52.1755 83.0312 53.8125V73.9762C83.0312 76.6921 82.3459 79.3883 81.0492 81.7734C80.6574 82.4936 80.9239 83.3949 81.6442 83.7865C82.3643 84.1779 83.2659 83.9116 83.6574 83.1914C85.19 80.3726 86 77.1861 86 73.9762V53.8125C86 50.5386 83.3364 47.875 80.0625 47.875Z" fill="#007BC2"/>
<path d="M55.2487 28.9332C55.2487 35.3835 49.9404 40.6402 43.4312 40.6402C36.922 40.6402 31.6109 35.3835 31.6123 28.9332C31.6123 22.4871 36.922 17.2275 43.4312 17.2275" stroke="#007BC2" stroke-width="3" stroke-miterlimit="22.9256" stroke-linecap="round" stroke-linejoin="round"/>
<path fill-rule="evenodd" clip-rule="evenodd" d="M43.5282 46.4604C53.4222 46.4604 61.4907 38.4701 61.4907 28.6656C61.4907 18.8698 53.4244 10.873 43.5282 10.873C33.6342 10.873 25.5635 18.8676 25.5635 28.6656C25.5613 38.4701 33.6342 46.4604 43.5282 46.4604Z" stroke="#007BC2" stroke-width="3" stroke-miterlimit="22.9256" stroke-linecap="round" stroke-linejoin="round"/>
<path d="M46.815 57.2763L51.8154 65.8553L56.0228 55.3556L67.8253 56.6994L57.7089 39.9044" stroke="#007BC2" stroke-width="3" stroke-miterlimit="22.9256" stroke-linecap="round" stroke-linejoin="round"/>
<path d="M47.7812 45.9922L36.1143 65.8561L31.9069 55.3565L20.1044 56.7002L29.8176 40.8413" stroke="#007BC2" stroke-width="3" stroke-miterlimit="22.9256" stroke-linecap="round" stroke-linejoin="round"/>
</svg>
