<svg width="50" height="93" viewBox="0 0 50 93" fill="none" xmlns="http://www.w3.org/2000/svg">
<path d="M46.6776 40.3617L44.9345 53.4792C44.6083 53.7707 44.1829 53.9253 43.7461 53.9122C42.9346 53.9122 42.5794 53.5626 41.8278 52.7707C40.8119 51.3931 39.2018 50.5796 37.4896 50.5796C35.7774 50.5796 34.1674 51.3931 33.1515 52.7707C32.4064 53.5635 32.0447 53.914 31.2322 53.914C30.4196 53.914 30.0654 53.5654 29.3344 52.7773C28.3185 51.3968 26.7066 50.5815 24.9925 50.5815C23.2784 50.5815 21.6665 51.3968 20.6506 52.7773C19.9121 53.5673 19.5504 53.915 18.751 53.915C17.9516 53.915 17.5842 53.5654 16.8326 52.7716C15.8008 51.4165 14.2048 50.6087 12.502 50.5787C10.7935 50.6068 9.19 51.4165 8.1535 52.7754C7.41407 53.5635 7.05326 53.9122 6.25386 53.9122C5.81995 53.9281 5.39542 53.7772 5.06928 53.4904L3.32241 40.3617C3.25587 39.761 2.86975 39.2436 2.31308 39.0094C1.7564 38.7751 1.11632 38.8603 0.640235 39.2324C0.164155 39.6045 -0.0729484 40.2042 0.0198311 40.8012L6.47878 89.3905C6.72619 91.0221 8.12445 92.2301 9.7748 92.2385H40.2252C41.8831 92.2273 43.2841 91.008 43.525 89.3671L49.9802 40.8012C50.0729 40.2042 49.8358 39.6035 49.3598 39.2315C48.8837 38.8594 48.2436 38.7741 47.6869 39.0084C47.1302 39.2436 46.7441 39.761 46.6776 40.3617ZM40.2261 88.9135H16.4755L14.2563 71.1851C14.142 70.2713 13.3089 69.6238 12.3961 69.7381C11.4833 69.8524 10.8347 70.6856 10.9491 71.5984L13.1149 88.9285H9.78229L5.55567 57.1595C5.78622 57.2044 6.01957 57.2326 6.25386 57.2447C7.95669 57.2166 9.55362 56.4097 10.5864 55.0555C11.3361 54.2627 11.6913 53.9122 12.5029 53.9122C13.3145 53.9122 13.6697 54.2608 14.4025 55.049C15.4184 56.4294 17.0303 57.2447 18.7444 57.2447C20.4585 57.2447 22.0704 56.4294 23.0863 55.049C23.8229 54.2589 24.1847 53.9112 24.9841 53.9112C25.7835 53.9112 26.1593 54.2608 26.9034 55.0546C27.9193 56.4341 29.5303 57.2475 31.2434 57.2475C32.9565 57.2475 34.5675 56.4332 35.5834 55.0546C36.3219 54.2664 36.6818 53.9178 37.4812 53.9178C38.2806 53.9178 38.6564 54.2674 39.4005 55.0593C40.4389 56.4135 42.0396 57.2194 43.7461 57.2457C43.9804 57.2354 44.2138 57.2082 44.4443 57.166L40.2261 88.9135Z" fill="#007BC2"/>
<path d="M11.6702 65.5757C12.5904 65.5757 13.3365 64.8297 13.3365 63.9094C13.3365 62.9892 12.5904 62.2432 11.6702 62.2432C10.7499 62.2432 10.0039 62.9892 10.0039 63.9094C10.0039 64.8297 10.7499 65.5757 11.6702 65.5757Z" fill="#007BC2"/>
<path d="M28.7919 4.60318C27.8276 3.18525 26.9767 1.88071 26.1829 0.689572C26.0695 0.519008 25.8989 0.349381 25.7293 0.235984C25.0489 -0.217605 24.1408 0.00918933 23.6872 0.689572C22.9497 1.88071 22.0987 3.12808 21.0781 4.60318C16.5975 11.1821 9.9043 21.1086 9.9043 26.7803C9.9043 30.9207 11.6062 34.6637 14.3287 37.3862C17.0511 40.0515 20.7942 41.7534 24.9346 41.7534C29.075 41.7534 32.818 40.0515 35.5405 37.329C38.2629 34.6066 39.9648 30.8635 39.9648 26.7231C39.9658 21.0514 33.2725 11.1821 28.7919 4.60318ZM33.4993 35.2879C31.2876 37.4996 28.2812 38.8041 24.9346 38.8041C21.588 38.8041 18.5825 37.4434 16.3698 35.2879C14.1581 33.0762 12.8536 30.0697 12.8536 26.7231C12.8536 21.9586 19.2628 12.4866 23.5166 6.19168C24.0274 5.45413 24.481 4.71658 24.9346 4.09336C25.3882 4.71751 25.8417 5.45413 26.3525 6.19168C30.6063 12.5438 37.0156 21.9595 37.0156 26.7231C37.0165 30.0697 35.6548 33.0752 33.4993 35.2879Z" fill="#007BC2"/>
<path d="M33.7265 25.7029C32.9327 25.6457 32.2514 26.2698 32.1952 27.0636C32.138 28.311 31.7416 29.5021 31.1174 30.5236C30.4933 31.5451 29.5861 32.4523 28.5084 33.0193C27.828 33.4167 27.544 34.3238 27.9414 35.0042C28.395 35.798 29.3021 36.0248 29.9835 35.6284C31.5148 34.7774 32.7631 33.5301 33.6131 32.1121C34.5203 30.6942 35.031 28.9923 35.0882 27.2342C35.1444 26.4395 34.5212 25.7591 33.7265 25.7029Z" fill="#007BC2"/>
</svg>
