<svg width="834" height="658" viewBox="0 0 834 658" fill="none" xmlns="http://www.w3.org/2000/svg">
<g clip-path="url(#clip0)">
<path d="M90.5815 43.0783C94.5847 40.3495 98.5882 37.6202 102.591 34.8915C102.021 34.5707 101.45 34.2505 100.88 33.9298C100.162 39.1139 99.4443 44.2986 98.7261 49.4823C98.6609 49.9538 98.9605 50.4232 99.3966 50.594C103.964 52.3877 108.532 54.1805 113.1 55.9742C113.09 55.3167 113.082 54.6591 113.073 54.0017C107.554 55.5882 102.036 57.1743 96.518 58.7608C95.0631 59.1792 94.4265 65.0221 94.1169 66.1821C93.3297 69.128 92.5431 72.0743 91.7563 75.0196C92.4144 75.0107 93.0714 75.0019 93.7289 74.9925C91.4726 70.9667 89.2164 66.9419 86.9601 62.9161C86.7058 62.4619 86.3522 62.2473 85.8265 62.2771C79.4539 62.6351 73.0813 62.9931 66.7091 63.3505C66.9779 63.9821 67.2458 64.6139 67.5146 65.2455C72.1768 60.8522 76.8385 56.4586 81.5007 52.0653C81.8172 51.7675 82.0799 51.2416 81.8287 50.8093C78.9015 45.7663 75.9747 40.7236 73.0479 35.68C72.5918 36.1492 72.1352 36.6179 71.6791 37.087C77.6326 39.1338 83.587 41.1805 89.5405 43.2273C90.8337 43.6717 91.619 41.6912 90.3162 41.2431C84.3627 39.1963 78.4082 37.1497 72.4547 35.1029C71.6787 34.8357 70.5874 35.6508 71.0859 36.5099C74.0132 41.553 76.9399 46.5956 79.8668 51.6392C79.9761 51.2202 80.085 50.8018 80.1949 50.3832C75.5327 54.7764 70.8711 59.1701 66.2089 63.5633C65.4179 64.3086 65.9182 65.5199 67.0144 65.4583C73.387 65.1003 79.7596 64.7423 86.1318 64.3849C85.7541 64.1718 85.3763 63.9586 84.9982 63.746C87.2545 67.7718 89.5106 71.7966 91.7669 75.8225C92.1618 76.5261 93.4685 76.8114 93.7395 75.7954C94.4072 73.2964 95.0749 70.7973 95.742 68.2979C96.2403 66.4335 96.738 64.5686 97.2363 62.7042C97.3884 62.1355 97.5403 61.5658 97.6924 60.9971C97.987 59.895 98.0709 60.5143 97.3824 60.7122C102.889 59.1289 108.395 57.5461 113.902 55.9628C114.844 55.6921 114.67 54.3018 113.874 53.9902C109.307 52.1965 104.739 50.4037 100.171 48.61C100.395 48.9809 100.618 49.3513 100.842 49.7217C101.559 44.5375 102.277 39.3528 102.996 34.1691C103.129 33.2045 102.012 32.7111 101.284 33.2075C97.2812 35.9362 93.2776 38.6655 89.2745 41.3943C88.1376 42.1708 89.4541 43.8468 90.5815 43.0783Z" fill="#D9E3FF"/>
</g>
<g clip-path="url(#clip1)">
<path d="M7.5286 485.417C6.77503 480.196 6.35128 474.946 5.95861 469.688C5.83463 468.022 4.68196 463.891 5.97288 462.434C8.53017 459.547 11.4299 456.967 14.3869 454.5C15.6889 453.414 18.2386 450.515 20.096 450.599C23.1166 450.736 27.0965 452.992 29.981 453.987C34.4218 455.52 41.0048 457.309 44.0923 461.052C48.6063 466.525 53.1285 471.982 57.7811 477.34C66.0776 486.893 74.985 495.96 82.6503 506.044C83.2481 506.831 83.4266 508.045 82.5579 508.754C72.0724 517.304 61.0531 525.164 49.9379 532.871C49.1949 533.386 48.0876 533.062 47.5093 532.47C38.8485 523.605 30.808 514.102 22.6853 504.75C18.8286 500.311 14.9896 495.857 11.1593 491.394C10.2299 490.311 8.28888 488.745 8.00984 487.278C7.77085 486.02 7.05165 484.869 7.91469 485.886C7.01967 484.831 8.59022 483.363 9.48686 484.42C8.77774 483.583 9.1466 484.174 10.3608 484.618C11.907 485.182 12.7882 486.597 13.8195 487.813C17.5182 492.177 21.231 496.532 24.9543 500.875C33.2946 510.606 41.5536 520.493 50.4614 529.717C49.6514 529.583 48.8428 529.45 48.0328 529.317C58.9106 521.866 69.6756 514.238 79.9366 505.954C79.9057 506.857 79.8751 507.761 79.8442 508.663C74.1074 501.041 67.6338 494.013 61.2993 486.888C57.4352 482.541 53.6112 478.158 49.9038 473.677C46.7505 469.866 43.7986 464.114 39.5003 461.481C34.0045 458.114 27.5324 456.357 21.5086 454.18C18.0337 452.925 10.8156 461.372 8.5682 463.7C7.40317 464.908 8.29783 463.379 8.32895 463.979C8.40708 465.483 8.49802 466.986 8.58896 468.49C8.92168 473.961 9.34708 479.432 9.87158 484.888C10.015 486.384 7.75359 486.972 7.5286 485.417Z" fill="#D9E3FF"/>
<path d="M33.2397 466.555C34.1929 469.524 34.9316 473.163 32.7445 475.768C31.2466 477.552 28.4551 477.565 26.4434 476.819C24.2686 476.013 22.2692 474.505 21.0767 472.5C19.8365 470.413 20.0982 467.709 22.1176 466.202C23.2394 465.365 24.5262 464.871 25.8884 464.561C26.6377 464.39 27.4002 464.288 28.1643 464.214C29.5556 464.078 31.5941 463.919 32.044 465.652C31.8435 465.369 31.6429 465.085 31.4426 464.803C31.6549 464.972 31.8684 465.141 32.0808 465.31C32.2155 465.417 32.3505 465.525 32.4852 465.632C32.6186 465.738 33.2744 466.167 32.7178 465.818C34.0084 466.631 32.7461 468.629 31.4552 467.816C31.9873 468.151 31.4249 467.801 31.2623 467.722C31.0825 467.635 30.9015 467.546 30.7218 467.459C30.4774 467.341 30.2327 467.221 29.9883 467.102C30.664 466.856 31.3385 466.609 32.0142 466.362C32.222 465.472 31.892 466.716 31.8184 466.833C31.634 467.125 31.386 467.297 31.0955 467.468C30.8321 467.624 30.3361 467.766 30.0183 467.817C29.6368 467.877 29.2516 467.895 28.8667 467.92C28.7427 467.928 28.6178 467.938 28.4932 467.948C29.0973 467.899 28.5292 467.946 28.4042 467.96C27.5624 468.05 26.7257 468.193 25.9106 468.421C25.7479 468.466 25.5867 468.518 25.426 468.572C24.9909 468.717 25.906 468.375 25.3842 468.59C25.1055 468.704 24.8362 468.839 24.5781 468.993C24.4257 469.084 24.0081 469.389 24.611 468.951C24.5182 469.019 24.43 469.092 24.3423 469.167C24.2608 469.238 24.1839 469.314 24.1098 469.392C23.7974 469.721 24.4142 468.98 24.1558 469.341C24.0995 469.419 24.0498 469.501 24.0028 469.584C23.7946 469.953 24.1931 469.131 24.064 469.45C24.0301 469.534 24.0025 469.62 23.9788 469.707C23.8509 470.166 24.0361 469.269 23.9952 469.587C23.9658 469.816 24.0226 470.509 23.9466 469.679C23.9651 469.881 24.0076 470.079 24.0633 470.273C24.1136 470.448 24.2765 470.856 24.0011 470.133C24.0363 470.226 24.0768 470.317 24.1187 470.408C24.2131 470.612 24.3241 470.807 24.4436 470.997C24.5354 471.143 24.8095 471.522 24.3788 470.924C24.4427 471.014 24.5105 471.1 24.5793 471.186C24.7321 471.378 24.8968 471.56 25.0675 471.738C25.229 471.905 25.4004 472.065 25.5752 472.219C25.6194 472.258 25.6644 472.296 25.7095 472.334C25.9219 472.514 25.3172 472.014 25.5355 472.189C25.6446 472.276 25.7554 472.36 25.8681 472.443C26.2701 472.738 26.6983 472.998 27.1419 473.228C27.2885 473.304 27.7407 473.509 27.0977 473.214C27.204 473.263 27.3131 473.309 27.4209 473.354C27.6516 473.448 27.8877 473.53 28.1273 473.601C28.3406 473.666 28.5537 473.729 28.7716 473.777C28.8248 473.789 28.8779 473.8 28.9308 473.81C29.1907 473.862 28.433 473.726 28.6942 473.768C28.8162 473.787 28.9391 473.8 29.0627 473.811C29.2666 473.828 29.4727 473.83 29.6774 473.82C29.7878 473.814 29.1261 473.888 29.5669 473.825C29.6796 473.809 29.7918 473.785 29.9032 473.757C29.9966 473.733 30.0888 473.704 30.1805 473.673C29.5237 473.899 29.913 473.775 30.0692 473.701C30.1564 473.66 30.2407 473.611 30.3236 473.562C30.6805 473.346 29.9653 473.85 30.2933 473.584C30.3718 473.521 30.4444 473.451 30.5155 473.381C30.552 473.345 30.5859 473.308 30.6207 473.269C30.7863 473.086 30.3352 473.624 30.4908 473.428C30.6418 473.238 30.7662 473.029 30.876 472.812C30.994 472.58 30.699 473.205 30.8053 472.962C30.83 472.905 30.8533 472.847 30.8752 472.788C30.9228 472.666 30.9629 472.541 31.0003 472.416C31.0406 472.282 31.0735 472.147 31.1041 472.012C31.1196 471.94 31.1341 471.869 31.1471 471.796C31.2189 471.407 31.1031 472.08 31.1479 471.81C31.2654 471.098 31.2806 470.37 31.2553 469.65C31.2476 469.439 31.2329 469.229 31.2169 469.018C31.2428 469.356 31.2126 468.973 31.2071 468.923C31.1947 468.806 31.1815 468.69 31.168 468.573C31.1085 468.071 31.0272 467.572 30.9359 467.075C30.6557 465.561 32.7796 465.119 33.2397 466.555Z" fill="#D9E3FF"/>
<path d="M57.1462 499.598C54.6211 500.169 53.7364 496.26 56.2615 495.688C58.7865 495.117 59.6713 499.026 57.1462 499.598Z" fill="#D9E3FF"/>
<path d="M42.4377 486.451C47.7955 493.942 52.3961 503.258 54.8243 512.159C55.37 514.159 52.2771 515.324 51.3961 513.437C47.4552 505.004 43.9684 496.166 40.2882 487.601C39.6564 486.129 41.5376 485.191 42.4377 486.451Z" fill="#D9E3FF"/>
<path d="M37.5153 501.198C35.5988 501.632 34.9274 498.665 36.8439 498.232C38.7601 497.797 39.4318 500.764 37.5153 501.198Z" fill="#D9E3FF"/>
</g>
<g clip-path="url(#clip2)">
<path d="M742.487 597.36C730.874 597.009 719.243 597.05 707.628 596.891C697.993 596.758 688.481 597.613 679.812 592.98C665.511 585.335 652.134 575.487 638.935 566.101C639.174 566.684 639.413 567.268 639.653 567.851C643.112 554.928 646.664 542.024 649.974 529.062C651.198 524.269 652.301 519.447 653.291 514.6C653.338 514.367 654.298 509.245 653.849 509.374C656.097 508.731 658.647 509.137 660.972 509.173C670.272 509.32 679.812 508.964 689.068 508.068C690.465 507.933 690.414 506.082 689.052 505.924C682.214 505.126 675.31 505.707 668.453 505.935C663.249 506.108 657.488 505.065 652.483 506.501C651.989 506.642 651.473 507.074 651.382 507.609C647.979 527.696 641.896 547.376 636.638 567.046C636.446 567.762 636.783 568.388 637.355 568.795C650.791 578.342 664.405 588.252 679.024 595.919C687.117 600.164 695.581 599.527 704.566 599.612C717.212 599.732 729.859 599.297 742.504 599.471C743.866 599.488 743.845 597.4 742.487 597.36Z" fill="#D9E3FF"/>
<path d="M757.119 536.654C753.254 546.278 751.008 556.794 748.33 566.805C745.608 576.982 743.012 587.303 741.188 597.682C740.869 599.498 743.582 600.281 743.994 598.433C746.293 588.112 748.5 577.798 751.104 567.547C753.657 557.497 757.055 547.297 758.521 537.029C758.655 536.098 757.469 535.782 757.119 536.654Z" fill="#D9E3FF"/>
<path d="M734.424 523.271C742.174 526.586 747.227 537.109 755.856 538.167C756.759 538.278 757.337 536.869 756.622 536.311C752.781 533.314 748.761 530.8 745.099 527.489C742.132 524.808 739.095 522.53 735.255 521.279C734.101 520.903 733.289 522.786 734.424 523.271Z" fill="#D9E3FF"/>
<path d="M689.3 504.673C681.963 503.361 676.291 498.686 671.439 493.241C667.525 488.848 665.37 483.929 668.306 478.332C670.482 474.184 675.27 470.85 679.062 468.394C698.841 455.588 706.352 496.222 704.537 508.844C704.219 511.057 707.287 511.45 707.563 509.23C708.947 498.06 704.957 485.227 700.272 475.212C695.54 465.098 688.124 461.351 678.032 466.614C669.069 471.287 661.216 480.14 666.301 490.326C669.855 497.442 680.563 507.224 689.091 506.304C689.954 506.212 690.289 504.85 689.3 504.673Z" fill="#D9E3FF"/>
<path d="M710.286 510.605C716.805 497.278 731.744 482.326 747.918 487.306C757.459 490.244 754.749 500.376 752.671 507.58C749.941 517.043 743.415 519.079 735.361 523.002C733.233 524.039 735.081 527.205 737.195 526.175C746.28 521.75 752.862 518.808 755.529 508.343C757.375 501.1 759.451 492.045 752.582 486.848C745.168 481.237 734.096 484.289 726.947 488.486C718.8 493.268 712.331 501.309 708.797 509.984C708.453 510.834 709.887 511.423 710.286 510.605Z" fill="#D9E3FF"/>
<path d="M716.395 509.897C719.778 505.488 724.995 502.484 730.06 500.389C731.81 499.664 745.754 496.241 742.517 502.534C741.474 504.562 744.539 505.87 745.395 503.737C747.949 497.369 741.246 495.807 736.267 496.296C728.204 497.088 719.787 502.683 715.321 509.266C714.861 509.945 715.922 510.515 716.395 509.897Z" fill="#D9E3FF"/>
<path d="M711.304 510.51C726.45 509.953 749.847 510.05 753.159 490.923C753.371 489.697 751.698 489.234 751.288 490.423C745.227 508.002 726.162 506.218 711.031 508.539C709.896 508.714 710.185 510.551 711.304 510.51Z" fill="#D9E3FF"/>
<path d="M670.187 485.481C686.522 472.457 694.538 502.063 700.676 512.03C701.751 513.776 704.44 512.229 703.43 510.438C697.078 499.163 686.277 469.178 669.287 484.572C668.662 485.138 669.557 485.984 670.187 485.481Z" fill="#D9E3FF"/>
<path d="M679 482.385C680.565 485.61 681.633 489.18 683.943 491.988C686.933 495.622 691.139 500.074 695.36 502.218C696.398 502.745 697.554 501.682 696.973 500.615C694.831 496.686 689.973 494.2 686.84 491.031C684.076 488.235 682.898 484.319 680.309 481.385C679.65 480.64 678.608 481.579 679 482.385Z" fill="#D9E3FF"/>
<path d="M656.414 509.748C658.258 510.691 660.046 511.784 661.805 512.878C663.458 513.907 664.989 515.165 666.859 515.77C667.769 516.063 668.386 514.853 667.764 514.211C665.084 511.446 660.686 509.371 657.023 508.295C656.168 508.042 655.609 509.336 656.414 509.748Z" fill="#D9E3FF"/>
<path d="M683.901 526.765C686.52 528.594 689.333 530.139 692.014 531.876C694.441 533.448 697.107 535.544 700.016 535.977C701.075 536.135 702.15 534.859 701.172 533.985C698.998 532.043 696.007 530.847 693.495 529.348C690.652 527.651 687.804 526.001 684.601 525.089C683.557 524.793 683.086 526.196 683.901 526.765Z" fill="#D9E3FF"/>
<path d="M699.81 535.453C696.522 544.938 694.3 554.902 691.877 564.639C689.492 574.223 685.967 584.644 685.723 594.553C685.696 595.652 687.183 595.7 687.525 594.783C690.983 585.518 692.163 574.973 694.539 565.351C696.95 555.588 699.992 545.882 701.881 536.007C702.141 534.647 700.264 534.145 699.81 535.453Z" fill="#D9E3FF"/>
<path d="M701.449 535.902C705.528 536.345 709.677 535.974 713.768 535.816C716.581 535.707 719.957 536.174 722.595 535.091C723.631 534.666 723.662 533.362 722.588 532.955C719.915 531.943 716.547 532.565 713.743 532.692C709.556 532.88 705.275 533.022 701.185 534C700.036 534.275 700.427 535.791 701.449 535.902Z" fill="#D9E3FF"/>
<path d="M737.601 536.779C743.028 537.601 748.739 538.814 754.239 538.377C755.278 538.295 755.605 536.719 754.482 536.473C749.074 535.295 743.378 535.187 737.877 534.602C736.643 534.471 736.371 536.593 737.601 536.779Z" fill="#D9E3FF"/>
<path d="M668.317 516.337C664.202 536.452 656.901 555.895 653.48 576.131C653.187 577.865 655.809 578.61 656.153 576.846C660.074 556.694 666.907 537.049 669.586 516.677C669.694 515.864 668.491 515.488 668.317 516.337Z" fill="#D9E3FF"/>
<path d="M683.724 523.143C677.05 530.095 675.586 541.804 673.525 550.798C670.915 562.189 667.024 573.437 665.029 584.948C664.758 586.509 666.861 587.077 667.401 585.582C674.667 565.447 675.816 543.583 684.836 524.006C685.154 523.313 684.316 522.526 683.724 523.143Z" fill="#D9E3FF"/>
<path d="M676.172 515.766C677.337 512.93 682.47 511.852 685.063 511.159C687.627 510.475 691.011 510.47 693.325 509.163C694.027 508.767 693.818 507.781 693.112 507.549C690 506.524 685.16 508.465 682.243 509.467C679.245 510.497 675.461 511.979 674.469 515.312C674.134 516.431 675.753 516.784 676.172 515.766Z" fill="#D9E3FF"/>
<path d="M672.448 516.021C673.287 520.094 677.469 523.432 680.446 526.009C681.303 526.751 682.368 526.577 683.023 525.684C687.292 519.868 695.282 514.431 702.602 516.319C703.921 516.66 705.157 514.864 704.009 513.894C696.77 507.775 684.238 518.233 680.196 524.027C681.055 523.919 681.914 523.81 682.773 523.702C679.591 521.079 676.95 517.986 674.012 515.115C673.315 514.437 672.261 515.121 672.448 516.021Z" fill="#D9E3FF"/>
<path d="M715.563 513.541C720.883 514.485 725.937 515.47 730.666 518.231C733.949 520.147 733.408 520.886 731.622 523.535C730.253 525.566 728.431 527.28 726.686 528.977C727.301 528.98 727.916 528.983 728.531 528.986C724.143 523.381 714.818 515.844 707.22 516.526C706.262 516.612 705.689 517.978 706.694 518.491C709.79 520.069 713.212 520.786 716.345 522.407C720.325 524.463 723.88 527.331 726.676 530.823C727.121 531.378 728.058 531.294 728.521 530.832C731.377 527.991 736.65 523.659 735.404 519.129C734.836 517.068 730.381 515.278 728.744 514.524C724.829 512.719 720.271 512.293 716.054 511.704C714.867 511.539 714.339 513.325 715.563 513.541Z" fill="#D9E3FF"/>
<path d="M699.027 512.749C700.044 517.16 703.686 519.34 708.021 519.501C711.629 519.634 718.435 517.581 719.94 514.023C720.316 513.135 719.718 512.277 718.732 512.446C715.883 512.933 713.399 515.438 710.499 516.279C706.063 517.568 703.041 515.618 700.483 512.141C699.96 511.432 698.813 511.824 699.027 512.749Z" fill="#D9E3FF"/>
<path d="M723.273 540.965C718.056 559.415 713.65 578.124 709.451 596.83C709.07 598.527 711.718 599.228 712.057 597.527C715.815 578.68 719.76 559.921 724.409 541.268C724.592 540.533 723.479 540.235 723.273 540.965Z" fill="#D9E3FF"/>
<path d="M737.006 534.482C732.85 544.011 731.028 555.112 728.504 565.177C725.801 575.956 723.331 586.795 721.443 597.747C721.154 599.424 723.724 600.127 724.015 598.435C725.903 587.482 728.378 576.641 731.002 565.846C733.467 555.706 737.392 545.268 738.552 534.896C738.64 534.096 737.327 533.745 737.006 534.482Z" fill="#D9E3FF"/>
<path d="M729.178 530.501C730.045 531.725 731.031 532.855 732.269 533.721C733.594 534.647 735.229 535.74 736.889 535.484C737.432 535.4 737.748 534.606 737.43 534.166C736.666 533.112 735.484 532.78 734.364 532.178C732.965 531.426 731.588 530.619 730.377 529.586C729.762 529.061 728.645 529.751 729.178 530.501Z" fill="#D9E3FF"/>
</g>
<g clip-path="url(#clip3)">
<path d="M578.904 321.961C578.193 317.322 577.483 312.682 576.772 308.043C577.376 308.235 577.98 308.428 578.584 308.62C575.384 312.553 572.184 316.487 568.985 320.42C568.694 320.778 568.164 320.875 567.755 320.679C563.466 318.627 559.178 316.574 554.89 314.522C555.362 314.095 555.834 313.666 556.306 313.238C558.827 318.197 561.348 323.155 563.869 328.114C564.533 329.421 560.813 333.732 560.196 334.718C558.628 337.221 557.06 339.725 555.492 342.228C555.064 341.756 554.636 341.285 554.208 340.812C558.552 339.752 562.894 338.692 567.238 337.632C567.727 337.512 568.113 337.621 568.439 338.013C572.395 342.766 576.351 347.518 580.307 352.27C579.682 352.497 579.057 352.724 578.432 352.951C578.465 346.745 578.5 340.539 578.533 334.333C578.535 333.912 578.735 333.379 579.207 333.271C584.714 332.014 590.221 330.757 595.729 329.5C595.697 330.133 595.667 330.766 595.636 331.399C590.253 328.532 584.869 325.664 579.486 322.798C578.317 322.175 579.201 320.31 580.379 320.937C585.763 323.804 591.146 326.672 596.529 329.539C597.231 329.912 597.375 331.224 596.437 331.438C590.929 332.695 585.422 333.952 579.915 335.21C580.139 334.855 580.364 334.502 580.588 334.147C580.554 340.353 580.52 346.559 580.486 352.765C580.481 353.818 579.292 354.264 578.611 353.446C574.656 348.694 570.7 343.941 566.744 339.189C567.144 339.316 567.545 339.443 567.945 339.57C563.602 340.631 559.259 341.691 554.916 342.751C554.157 342.936 553.091 342.199 553.632 341.335C554.962 339.211 556.292 337.087 557.623 334.964C558.615 333.379 559.608 331.794 560.6 330.21C560.902 329.726 561.206 329.242 561.508 328.759C562.095 327.822 561.6 328.172 561.915 328.79C559.4 323.842 556.884 318.894 554.369 313.946C553.938 313.1 555.038 312.305 555.784 312.663C560.073 314.715 564.36 316.768 568.649 318.82C568.238 318.906 567.829 318.993 567.418 319.079C570.618 315.146 573.818 311.212 577.017 307.279C577.612 306.547 578.7 307.013 578.829 307.856C579.539 312.496 580.25 317.136 580.96 321.775C581.161 323.094 579.104 323.268 578.904 321.961Z" fill="#D9E3FF"/>
</g>
<g clip-path="url(#clip4)">
<path d="M676.173 22.9493C679.735 19.5833 683.297 16.2167 686.859 12.8508C686.238 12.6217 685.617 12.3932 684.996 12.164C685.108 17.4569 685.22 22.7504 685.332 28.0429C685.343 28.5243 685.717 28.9452 686.18 29.046C691.029 30.1069 695.878 31.1668 700.728 32.2277C700.613 31.5725 700.5 30.917 700.385 30.2618C695.127 32.7293 689.869 35.1962 684.611 37.6638C683.225 38.3144 683.524 44.2523 683.4 45.4604C683.085 48.5288 682.771 51.5975 682.456 54.6652C683.112 54.551 683.767 54.4372 684.422 54.3226C681.524 50.6625 678.627 47.0033 675.729 43.3432C675.403 42.9302 675.015 42.7724 674.495 42.8864C668.187 44.2634 661.879 45.6404 655.572 47.0168C655.941 47.6047 656.31 48.1928 656.679 48.7807C660.633 43.6468 664.586 38.5125 668.54 33.3786C668.809 33.0305 668.987 32.4631 668.667 32.0715C664.936 27.5027 661.207 22.9342 657.476 18.3647C657.096 18.9063 656.715 19.4475 656.334 19.989C662.608 21.081 668.883 22.1727 675.157 23.2647C676.52 23.5017 676.987 21.3979 675.614 21.1588C669.34 20.0668 663.065 18.9751 656.791 17.8832C655.974 17.7405 655.014 18.7292 655.649 19.5075C659.38 24.0763 663.11 28.6449 666.84 33.2143C666.882 32.7783 666.924 32.3429 666.967 31.9073C663.013 37.0412 659.06 42.1755 655.106 47.3094C654.435 48.1803 655.129 49.3102 656.214 49.0733C662.522 47.6963 668.829 46.3192 675.137 44.9428C674.726 44.7904 674.314 44.6379 673.902 44.486C676.8 48.1461 679.697 51.8053 682.595 55.4654C683.102 56.1051 684.453 56.181 684.561 55.1229C684.828 52.5199 685.095 49.917 685.362 47.3138C685.561 45.3718 685.76 43.4296 685.96 41.4876C686.02 40.8953 686.081 40.3019 686.142 39.7095C686.26 38.5616 686.443 39.1667 685.787 39.4746C691.033 37.0123 696.28 34.5503 701.527 32.088C702.425 31.667 702.028 30.3061 701.184 30.1221C696.335 29.0612 691.486 28.0013 686.636 26.9404C686.919 27.2751 687.201 27.6095 687.484 27.9435C687.371 22.6507 687.259 17.3572 687.147 12.0646C687.126 11.0798 685.932 10.7657 685.284 11.3779C681.722 14.7438 678.16 18.1104 674.598 21.4764C673.587 22.4339 675.17 23.8973 676.173 22.9493Z" fill="#D9E3FF"/>
</g>
<g clip-path="url(#clip5)">
<path d="M363.474 412.519C365.754 409.818 366.692 405.928 363.595 403.416C360.947 401.269 356.733 401.41 354.099 403.497C352.584 404.697 351.719 406.42 351.413 408.302C351.116 410.122 351.572 410.815 352.671 412.154C353.944 413.706 355.603 415.032 357.566 415.57C360.524 416.379 362.007 414.409 363.602 412.354C364.169 411.622 362.897 410.647 362.314 411.365C359.81 414.451 356.581 412.751 354.491 410.342C354.259 410.074 354.047 409.791 353.842 409.501C353.786 409.422 353.733 409.341 353.679 409.26C354.03 409.796 353.905 408.771 353.932 408.591C354.134 407.288 354.78 406.068 355.862 405.286C357.629 404.007 360.079 404.095 361.923 405.139C364.47 406.582 363.372 409.557 362.185 411.529C361.717 412.311 362.865 413.24 363.474 412.519Z" fill="#D9E3FF"/>
<path d="M356.787 440.491C364.76 429.125 372.665 417.907 381.587 407.241C382.489 406.162 380.979 404.607 380.018 405.68C370.738 416.058 362.426 427.694 355.226 439.583C354.616 440.591 356.13 441.428 356.787 440.491Z" fill="#D9E3FF"/>
<path d="M381.222 436.64C384.525 434.243 384.046 430.46 380.808 428.249C379.295 427.216 377.368 426.939 375.601 427.325C374.265 427.617 371.99 428.973 371.95 430.505C371.894 432.628 372.193 434.912 373.192 436.808C373.835 438.027 375.021 438.949 376.415 439.085C378.269 439.266 380.079 437.595 381.39 436.511C382.115 435.912 381.149 434.664 380.382 435.211C379.874 435.574 379.088 436.294 378.427 436.322C378.156 436.333 377.876 436.397 377.614 436.462C377.302 436.508 377.287 436.522 377.57 436.508C377.386 436.479 377.201 436.457 377.015 436.445C376.353 436.389 375.961 436.196 375.588 435.633C374.75 434.372 374.584 432.652 374.514 431.178C374.504 430.988 374.5 430.798 374.499 430.607C374.498 430.562 374.499 430.516 374.499 430.471C374.494 431.11 374.757 430.583 375.009 430.35C375.995 429.44 377.442 429.477 378.643 429.825C381.363 430.614 382.287 433.356 380.214 435.341C379.546 435.98 380.447 437.203 381.222 436.64Z" fill="#D9E3FF"/>
<path d="M353.025 391.63C346.137 392.657 342.018 399.782 339.623 405.629C336.586 413.042 335.175 420.514 336.498 428.487C337.858 436.68 342.558 443.823 349.554 448.301C356.897 453 366.382 452.755 374.397 450.162C381.463 447.876 388.431 443.165 392.938 437.272C397.479 431.334 398.411 423.306 397.86 416.083C396.735 401.336 382.449 392.827 369.144 390.585C363.926 389.705 358.497 389.802 353.339 390.986C352.143 391.26 352.653 393.057 353.844 392.807C366.978 390.051 382.167 393.299 391.145 403.762C396.13 409.573 396.902 417.086 396.135 424.409C395.304 432.348 390.924 438.559 384.538 443.147C377.55 448.167 369.347 451.077 360.677 450.429C350.604 449.676 342.73 442.434 339.27 433.336C336.426 425.859 337.023 417.893 339.432 410.422C341.632 403.601 345.601 394.618 353.386 392.931C354.257 392.742 353.868 391.504 353.025 391.63Z" fill="#D9E3FF"/>
</g>
<g clip-path="url(#clip6)">
<path d="M150.485 300.87C142.192 307.309 134.11 314.031 125.924 320.604C119.135 326.055 112.998 332.125 104.291 333.885C89.9265 336.788 74.9381 337.623 60.3395 338.678C60.8416 338.947 61.3442 339.216 61.8463 339.484C56.82 328.489 51.8698 317.453 46.7175 306.516C44.8117 302.471 42.8057 298.477 40.7059 294.529C40.605 294.34 38.3264 290.218 38.0879 290.567C39.2846 288.825 41.2951 287.64 42.936 286.328C49.5004 281.078 55.9439 275.341 61.8784 269.389C62.7741 268.492 61.6732 267.231 60.6332 267.905C55.4091 271.284 50.9321 275.661 46.2856 279.766C42.7586 282.881 38.1441 285.47 35.4829 289.35C35.2194 289.734 35.1087 290.331 35.353 290.757C44.5409 306.712 51.6271 323.926 59.2822 340.658C59.5608 341.267 60.1556 341.51 60.789 341.464C75.6449 340.385 90.8348 339.457 105.433 336.386C113.516 334.687 119.048 329.373 125.358 324.262C134.238 317.068 142.801 309.487 151.712 302.331C152.671 301.56 151.455 300.117 150.485 300.87Z" fill="#D9E3FF"/>
<path d="M125.748 250.149C128.593 259.079 133.079 267.699 136.974 276.216C140.934 284.875 145.064 293.561 149.766 301.843C150.589 303.291 152.929 302.276 152.153 300.751C147.816 292.236 143.418 283.779 139.334 275.137C135.33 266.665 131.827 257.602 126.94 249.603C126.498 248.877 125.49 249.34 125.748 250.149Z" fill="#D9E3FF"/>
<path d="M102.232 253.883C109.54 251.733 119.117 256.158 125.739 251.93C126.432 251.488 126.024 250.173 125.205 250.196C120.803 250.317 116.555 250.879 112.098 250.68C108.488 250.518 105.06 250.679 101.665 252.017C100.644 252.419 101.162 254.199 102.232 253.883Z" fill="#D9E3FF"/>
<path d="M60.086 266.891C54.2182 270.199 47.576 270.205 41.061 269.202C35.8057 268.394 31.4735 266.206 30.2984 260.617C29.4274 256.474 30.8457 251.395 32.075 247.502C38.488 227.196 67.1048 251.189 73.1033 261.029C74.155 262.754 76.5198 261.262 75.434 259.556C69.9707 250.976 59.8057 244.329 50.7779 240.047C41.6603 235.722 34.337 237.379 30.3326 246.854C26.7759 255.268 26.3988 265.956 35.8036 270.128C42.3748 273.042 55.4656 273.696 60.8787 268.148C61.4271 267.587 60.877 266.444 60.086 266.891Z" fill="#D9E3FF"/>
<path d="M78.1243 258.947C74.9974 245.908 76.8027 226.893 90.9396 221.056C99.2791 217.613 103.221 226.232 105.918 232.448C109.461 240.613 106.085 245.787 102.731 253.156C101.844 255.103 104.954 256.246 105.835 254.312C109.619 246 112.513 240.162 108.349 231.336C105.467 225.226 101.703 217.721 93.9262 218.053C85.5311 218.409 79.5716 226.908 77.0051 233.946C74.0801 241.967 74.1991 251.292 76.7291 259.371C76.9786 260.161 78.3163 259.747 78.1243 258.947Z" fill="#D9E3FF"/>
<path d="M81.9725 254.938C81.7929 249.919 83.6995 244.824 86.0226 240.45C86.8256 238.938 94.572 228.528 95.9382 234.776C96.3783 236.789 99.2665 235.937 98.6354 233.958C96.7508 228.051 91.181 230.82 87.9932 234.025C82.8301 239.218 80.1852 247.96 80.861 255.117C80.9312 255.854 81.9982 255.641 81.9725 254.938Z" fill="#D9E3FF"/>
<path d="M78.7787 258.295C89.0126 249.191 105.372 235.795 96.6733 220.56C96.1157 219.584 94.683 220.224 95.0819 221.288C100.974 237.026 86.662 246.754 77.4539 257.079C76.7638 257.854 78.0228 258.967 78.7787 258.295Z" fill="#D9E3FF"/>
<path d="M35.7232 264.516C39.6116 246.04 62.2343 262.057 72.2468 265.47C74.0003 266.068 74.9846 263.443 73.2501 262.776C62.3352 258.575 37.5533 243.896 34.5728 264.4C34.4633 265.153 35.5741 265.228 35.7232 264.516Z" fill="#D9E3FF"/>
<path d="M40.0827 257.287C43.0287 258.633 45.8271 260.506 49.0531 261.133C53.2281 261.946 58.721 262.627 62.8954 261.692C63.9228 261.462 64.1166 260.056 63.0971 259.647C59.344 258.142 54.528 259.205 50.5214 258.799C46.9866 258.442 43.9121 256.391 40.419 255.836C39.5316 255.697 39.3462 256.951 40.0827 257.287Z" fill="#D9E3FF"/>
<path d="M40.0903 289.351C41.918 288.947 43.7924 288.68 45.6478 288.43C47.3922 288.196 49.1827 288.192 50.8339 287.536C51.637 287.218 51.3703 286.019 50.5675 285.93C47.1093 285.545 42.8496 286.63 39.6781 287.988C38.9373 288.304 39.2921 289.527 40.0903 289.351Z" fill="#D9E3FF"/>
<path d="M69.0368 285.392C71.9137 285.159 74.7633 284.617 77.6307 284.284C80.2267 283.983 83.2905 283.91 85.5671 282.537C86.3957 282.039 86.4105 280.53 85.2263 280.484C82.5933 280.382 79.8212 281.269 77.2083 281.67C74.2503 282.125 71.3166 282.613 68.5593 283.821C67.6618 284.215 68.1407 285.464 69.0368 285.392Z" fill="#D9E3FF"/>
<path d="M85.1221 282.29C88.2889 290.792 92.4746 299.014 96.3896 307.193C100.243 315.244 103.783 324.534 109.316 331.579C109.929 332.361 110.993 331.539 110.704 330.702C107.781 322.257 102.536 314.229 98.6541 306.157C94.7161 297.967 91.2504 289.453 86.8837 281.485C86.2828 280.387 84.6858 281.117 85.1221 282.29Z" fill="#D9E3FF"/>
<path d="M86.522 281.661C89.6197 279.622 92.2967 276.976 95.0569 274.512C96.9549 272.817 99.5757 271.199 100.791 268.927C101.268 268.035 100.539 267.108 99.5567 267.443C97.1114 268.275 95.1227 270.647 93.2419 272.348C90.432 274.889 87.531 277.452 85.2441 280.487C84.6014 281.339 85.7463 282.172 86.522 281.661Z" fill="#D9E3FF"/>
<path d="M112.219 261.468C116.473 258.917 121.151 256.477 124.733 253.007C125.409 252.351 124.73 251.065 123.806 251.54C119.36 253.831 115.328 257.034 111.159 259.792C110.223 260.411 111.255 262.046 112.219 261.468Z" fill="#D9E3FF"/>
<path d="M52.1774 287.093C60.8845 303.478 66.986 321.227 76.2473 337.297C77.0407 338.674 79.2964 337.684 78.5208 336.257C69.6572 319.958 63.1128 302.337 53.2569 286.599C52.8639 285.97 51.8094 286.401 52.1774 287.093Z" fill="#D9E3FF"/>
<path d="M66.83 282.969C66.1798 291.653 71.8978 300.656 75.6371 308.109C80.3729 317.548 84.1348 327.626 89.3682 336.795C90.0776 338.038 91.8703 337.224 91.3861 335.872C84.8627 317.659 73.0814 301.763 68.1009 282.93C67.924 282.265 66.8877 282.199 66.83 282.969Z" fill="#D9E3FF"/>
<path d="M57.3222 282.175C56.5022 279.528 59.4581 275.823 60.8664 273.848C62.2597 271.896 64.6146 269.945 65.4751 267.703C65.7359 267.023 65.0235 266.456 64.3975 266.7C61.6394 267.777 59.384 271.915 57.9276 274.292C56.4309 276.734 54.6476 279.945 55.8739 282.838C56.2845 283.81 57.6158 283.124 57.3222 282.175Z" fill="#D9E3FF"/>
<path d="M54.8735 284.495C57.8024 286.85 62.6371 286.77 66.1944 286.852C67.2192 286.876 67.8609 286.142 67.8034 285.143C67.4313 278.634 69.8705 270.247 76.0574 267.351C77.1723 266.829 77.0006 264.867 75.6421 264.851C67.0763 264.753 64.3624 279.252 64.8797 285.615C65.4164 285.045 65.9521 284.476 66.4887 283.906C62.7615 283.91 59.1411 283.274 55.4422 282.964C54.5663 282.893 54.2257 283.976 54.8735 284.495Z" fill="#D9E3FF"/>
<path d="M83.4905 257.957C87.7406 255.552 91.829 253.331 96.7137 252.533C100.103 251.979 100.153 252.805 100.432 255.679C100.647 257.882 100.364 260.125 100.123 262.312C100.554 261.96 100.985 261.608 101.414 261.256C95.1323 259.876 84.2961 259.99 79.3942 264.837C78.7765 265.449 79.1633 266.73 80.1586 266.509C83.2238 265.827 86.0211 264.358 89.137 263.684C93.0939 262.827 97.2214 262.78 101.179 263.603C101.809 263.735 102.413 263.137 102.47 262.548C102.826 258.925 104.008 252.872 100.532 250.433C98.9503 249.323 94.8155 250.64 93.2411 251.056C89.4745 252.051 86.0532 254.378 82.7756 256.393C81.8533 256.961 82.5133 258.51 83.4905 257.957Z" fill="#D9E3FF"/>
<path d="M71.5124 266.92C74.7593 269.408 78.5511 268.832 81.6652 266.449C84.2561 264.466 87.8168 259.119 86.8179 255.773C86.569 254.938 85.6591 254.684 85.0688 255.37C83.3641 257.348 83.0743 260.523 81.5381 262.778C79.1884 266.229 75.96 266.609 72.1769 265.659C71.4046 265.465 70.8307 266.398 71.5124 266.92Z" fill="#D9E3FF"/>
<path d="M104.644 272.629C111.626 288.488 119.323 304.061 127.16 319.511C127.872 320.914 130.12 319.878 129.378 318.498C121.151 303.201 113.105 287.86 105.61 272.187C105.315 271.569 104.368 272.002 104.644 272.629Z" fill="#D9E3FF"/>
<path d="M110.482 260.21C113.069 269.241 118.188 278.025 122.222 286.491C126.541 295.557 131.057 304.532 136.043 313.25C136.807 314.585 139.003 313.597 138.232 312.249C133.245 303.53 128.731 294.552 124.347 285.519C120.23 277.035 116.958 267.503 111.798 259.608C111.399 259 110.281 259.511 110.482 260.21Z" fill="#D9E3FF"/>
<path d="M102.737 261.94C104.046 262.293 105.383 262.513 106.744 262.404C108.201 262.287 109.968 262.109 110.978 260.974C111.308 260.603 111.071 259.868 110.596 259.745C109.458 259.45 108.443 259.899 107.316 260.124C105.908 260.405 104.485 260.635 103.046 260.612C102.316 260.6 101.934 261.723 102.737 261.94Z" fill="#D9E3FF"/>
</g>
<g clip-path="url(#clip7)">
<path d="M833.943 278.255C833.526 272.996 832.78 267.782 832.002 262.567C831.756 260.915 831.968 256.631 830.387 255.495C827.256 253.244 823.858 251.368 820.429 249.614C818.92 248.843 815.793 246.577 814 247.07C811.084 247.87 807.7 250.949 805.107 252.557C801.114 255.031 795.088 258.23 792.903 262.562C789.708 268.896 786.502 275.217 783.147 281.469C777.164 292.618 770.478 303.428 765.228 314.955C764.818 315.854 764.912 317.078 765.916 317.578C778.03 323.603 790.513 328.836 803.055 333.899C803.893 334.238 804.901 333.677 805.335 332.973C811.825 322.414 817.57 311.371 823.428 300.457C826.21 295.276 828.971 290.084 831.721 284.886C832.389 283.625 833.936 281.669 833.885 280.177C833.84 278.896 834.287 277.615 833.67 278.798C834.31 277.571 832.454 276.486 831.813 277.714C832.32 276.742 832.091 277.399 831.004 278.1C829.621 278.992 829.074 280.567 828.336 281.98C825.692 287.053 823.032 292.12 820.359 297.178C814.373 308.51 808.5 319.976 801.848 330.939C802.608 330.63 803.368 330.322 804.128 330.012C791.874 325.146 779.691 320.083 767.854 314.268C768.084 315.142 768.313 316.017 768.543 316.891C772.455 308.189 777.218 299.906 781.823 291.559C784.633 286.466 787.395 281.347 790.022 276.158C792.256 271.746 793.865 265.484 797.476 261.967C802.093 257.469 808.018 254.327 813.413 250.874C816.525 248.883 825.43 255.528 828.135 257.303C829.538 258.224 828.328 256.93 828.43 257.522C828.686 259.006 828.929 260.493 829.172 261.979C830.056 267.389 830.848 272.819 831.541 278.256C831.732 279.747 834.067 279.822 833.943 278.255Z" fill="#D9E3FF"/>
<path d="M804.703 265.533C804.429 268.64 804.511 272.351 807.219 274.409C809.074 275.819 811.8 275.216 813.597 274.044C815.54 272.777 817.158 270.866 817.878 268.647C818.627 266.338 817.775 263.758 815.473 262.734C814.194 262.165 812.83 261.968 811.433 261.966C810.664 261.964 809.898 262.033 809.136 262.129C807.749 262.305 805.726 262.599 805.67 264.389C805.803 264.068 805.936 263.748 806.069 263.428C805.899 263.64 805.728 263.852 805.558 264.064C805.451 264.198 805.343 264.333 805.235 264.467C805.128 264.6 804.583 265.163 805.049 264.699C803.97 265.777 805.642 267.448 806.722 266.369C806.276 266.813 806.748 266.348 806.889 266.235C807.045 266.11 807.202 265.984 807.358 265.859C807.57 265.69 807.783 265.519 807.995 265.35C807.281 265.258 806.569 265.166 805.855 265.075C805.456 264.253 806.053 265.393 806.15 265.491C806.395 265.734 806.675 265.848 806.996 265.951C807.287 266.045 807.802 266.073 808.123 266.053C808.509 266.028 808.888 265.96 809.269 265.899C809.392 265.88 809.516 265.862 809.64 265.844C809.04 265.93 809.604 265.85 809.729 265.836C810.57 265.738 811.418 265.693 812.263 265.736C812.432 265.744 812.6 265.759 812.769 265.776C813.225 265.821 812.257 265.69 812.814 265.784C813.111 265.834 813.403 265.906 813.689 265.999C813.857 266.054 814.332 266.26 813.648 265.966C813.753 266.012 813.855 266.063 813.957 266.117C814.052 266.168 814.144 266.226 814.234 266.285C814.611 266.537 813.846 265.951 814.178 266.245C814.25 266.309 814.316 266.378 814.381 266.449C814.665 266.763 814.095 266.049 814.291 266.331C814.343 266.406 814.389 266.483 814.431 266.564C814.657 266.983 814.278 266.149 814.389 266.45C814.468 266.667 814.565 267.355 814.456 266.529C814.483 266.73 814.485 266.932 814.473 267.134C814.463 267.316 814.394 267.75 814.503 266.984C814.49 267.082 814.47 267.18 814.449 267.278C814.402 267.498 814.337 267.712 814.262 267.924C814.205 268.087 814.022 268.517 814.309 267.838C814.267 267.94 814.22 268.04 814.172 268.138C814.065 268.359 813.945 268.573 813.817 268.784C813.697 268.983 813.565 269.177 813.428 269.366C813.394 269.414 813.359 269.461 813.323 269.508C813.155 269.73 813.635 269.109 813.461 269.328C813.373 269.437 813.284 269.543 813.192 269.649C812.865 270.026 812.505 270.374 812.123 270.695C811.997 270.802 811.601 271.102 812.163 270.673C812.07 270.744 811.974 270.812 811.879 270.88C811.675 271.023 811.462 271.155 811.244 271.277C811.051 271.387 810.857 271.496 810.655 271.591C810.606 271.614 810.556 271.637 810.507 271.659C810.265 271.766 810.974 271.466 810.728 271.565C810.614 271.611 810.497 271.651 810.378 271.688C810.183 271.75 809.983 271.797 809.781 271.833C809.672 271.851 810.334 271.778 809.89 271.813C809.776 271.822 809.661 271.824 809.547 271.821C809.45 271.819 809.354 271.811 809.258 271.801C809.948 271.876 809.541 271.841 809.372 271.803C809.278 271.782 809.185 271.754 809.094 271.724C808.698 271.592 809.507 271.925 809.128 271.739C809.037 271.694 808.951 271.643 808.867 271.59C808.823 271.562 808.782 271.534 808.739 271.504C808.537 271.362 809.096 271.787 808.901 271.63C808.712 271.478 808.544 271.301 808.389 271.115C808.223 270.914 808.649 271.458 808.491 271.245C808.455 271.195 808.419 271.143 808.385 271.091C808.311 270.982 808.245 270.87 808.181 270.755C808.112 270.634 808.05 270.509 807.99 270.384C807.959 270.318 807.929 270.251 807.901 270.184C807.745 269.819 808.006 270.45 807.903 270.197C807.631 269.529 807.456 268.822 807.321 268.114C807.282 267.907 807.25 267.698 807.219 267.489C807.269 267.824 807.214 267.444 807.208 267.394C807.194 267.277 807.182 267.161 807.169 267.045C807.116 266.542 807.085 266.037 807.065 265.532C807.004 263.994 804.835 264.032 804.703 265.533Z" fill="#D9E3FF"/>
<path d="M788.679 303.038C791.268 303.038 791.268 299.03 788.679 299.03C786.09 299.03 786.09 303.038 788.679 303.038Z" fill="#D9E3FF"/>
<path d="M800.123 286.969C796.551 295.458 794.12 305.56 793.717 314.777C793.626 316.848 796.9 317.302 797.343 315.267C799.325 306.172 800.775 296.782 802.473 287.616C802.765 286.041 800.723 285.542 800.123 286.969Z" fill="#D9E3FF"/>
<path d="M808.18 300.266C810.145 300.266 810.145 297.224 808.18 297.224C806.215 297.223 806.215 300.266 808.18 300.266Z" fill="#D9E3FF"/>
</g>
<g clip-path="url(#clip8)">
<path d="M297.53 618.457C299.452 612.852 301.374 607.246 303.296 601.64C302.503 601.744 301.711 601.848 300.918 601.951C304.007 607.556 307.096 613.163 310.185 618.768C310.466 619.278 311.102 619.518 311.654 619.366C317.436 617.779 323.217 616.191 328.999 614.603C328.509 613.966 328.02 613.328 327.53 612.69C323.29 618.286 319.05 623.881 314.81 629.476C313.692 630.952 317.342 637.143 317.888 638.506C319.272 641.969 320.657 645.432 322.041 648.894C322.679 648.404 323.315 647.914 323.952 647.423C318.799 645.131 313.648 642.839 308.495 640.547C307.914 640.288 307.411 640.337 306.919 640.751C300.944 645.768 294.969 650.786 288.995 655.802C289.72 656.224 290.444 656.647 291.169 657.069C292.518 649.35 293.867 641.632 295.216 633.913C295.308 633.389 295.181 632.681 294.619 632.442C288.066 629.644 281.513 626.846 274.96 624.047C274.857 624.841 274.753 625.635 274.65 626.428C281.973 624.074 289.297 621.719 296.621 619.365C298.211 618.854 297.531 616.338 295.928 616.853C288.605 619.207 281.281 621.562 273.958 623.916C273.003 624.223 272.531 625.821 273.647 626.297C280.2 629.095 286.753 631.893 293.306 634.692C293.106 634.201 292.907 633.711 292.708 633.221C291.359 640.939 290.01 648.658 288.661 656.377C288.432 657.687 289.807 658.507 290.835 657.644C296.81 652.627 302.784 647.609 308.759 642.593C308.233 642.661 307.708 642.728 307.182 642.797C312.335 645.089 317.486 647.381 322.639 649.673C323.54 650.074 325.027 649.396 324.549 648.202C323.375 645.265 322.201 642.327 321.026 639.389C320.15 637.198 319.273 635.006 318.397 632.814C318.13 632.146 317.862 631.476 317.595 630.808C317.077 629.512 317.612 630.057 317.083 630.755C321.314 625.172 325.545 619.588 329.776 614.005C330.5 613.05 329.313 611.815 328.306 612.092C322.524 613.679 316.743 615.267 310.961 616.855C311.451 617.055 311.94 617.254 312.43 617.453C309.341 611.848 306.252 606.242 303.163 600.637C302.588 599.594 301.135 599.928 300.785 600.947C298.863 606.553 296.941 612.159 295.02 617.764C294.475 619.357 296.989 620.036 297.53 618.457Z" fill="#D9E3FF"/>
</g>
<defs>
<clipPath id="clip0">
<rect width="46.6548" height="47.4144" fill="white" transform="translate(83.5312 18.9731) rotate(36.7724)"/>
</clipPath>
<clipPath id="clip1">
<rect width="69" height="87" fill="white" transform="matrix(-0.975333 0.220738 0.220738 0.975333 67.8721 439.715)"/>
</clipPath>
<clipPath id="clip2">
<rect width="112.943" height="130.335" fill="white" transform="translate(664.679 457.877) rotate(14.9752)"/>
</clipPath>
<clipPath id="clip3">
<rect width="45.1985" height="45.9344" fill="white" transform="matrix(-0.984074 -0.17776 -0.17776 0.984074 600.644 311.034)"/>
</clipPath>
<clipPath id="clip4">
<rect width="47.194" height="47.9623" fill="white" transform="translate(665.274) rotate(27.6729)"/>
</clipPath>
<clipPath id="clip5">
<rect width="62" height="62" fill="white" transform="translate(336 390)"/>
</clipPath>
<clipPath id="clip6">
<rect width="102.07" height="117.787" fill="white" transform="translate(16 248.45) rotate(-24.5754)"/>
</clipPath>
<clipPath id="clip7">
<rect width="69" height="87" fill="white" transform="translate(765 247)"/>
</clipPath>
<clipPath id="clip8">
<rect width="57" height="58" fill="white" transform="translate(273 600)"/>
</clipPath>
</defs>
</svg>
