<svg width="1090" height="727" viewBox="0 0 1090 727" fill="none" xmlns="http://www.w3.org/2000/svg">
<path d="M187.724 226.544C195.064 219.954 208.374 226.634 215.304 230.834C223.714 235.924 232.774 243.624 227.754 254.404C227.244 255.494 228.704 256.924 229.574 255.804C237.424 245.654 226.304 234.584 218.154 229.344C210.934 224.704 192.924 215.584 186.134 225.314C185.454 226.304 186.914 227.274 187.724 226.544Z" fill="#FFF5E9"/>
<path d="M166.776 231.954C167.686 231.744 168.256 230.954 169.036 230.464C170.946 229.274 173.196 228.654 175.416 228.414C179.256 228.004 183.316 228.684 186.986 229.794C191.836 231.274 196.606 233.924 197.036 239.644C197.376 244.234 194.526 247.824 193.556 252.084C193.406 252.764 194.266 253.364 194.776 252.794C201.146 245.824 201.316 234.084 192.406 229.394C185.446 225.734 171.966 223.284 166.006 230.104C165.566 230.604 165.596 231.414 166.216 231.764C166.396 231.894 166.556 232.004 166.776 231.954Z" fill="#FFF5E9"/>
<path d="M165.004 233.954C168.614 235.214 172.124 236.524 174.784 239.424C178.764 243.784 175.714 246.994 173.904 251.284C173.474 252.304 174.954 252.934 175.644 252.294C179.154 249.024 180.424 243.354 177.434 239.374C174.684 235.704 169.684 233.144 165.134 233.034C164.574 233.024 164.524 233.794 165.004 233.954Z" fill="#FFF5E9"/>
<path d="M167.754 233.904C166.004 231.194 162.244 234.184 160.434 235.474C158.064 237.164 155.274 239.074 156.174 242.294C157.204 245.984 159.464 249.394 162.904 251.184C166.134 252.864 172.214 254.954 175.554 253.064C176.174 252.714 176.044 251.944 175.554 251.574C173.514 250.004 170.974 250.354 168.484 249.904C165.694 249.394 162.984 248.684 161.054 246.434C159.074 244.124 158.124 241.224 159.954 238.674C161.014 237.194 165.534 234.094 167.534 234.294C167.724 234.294 167.844 234.054 167.754 233.904Z" fill="#FFF5E9"/>
<path d="M173.824 253.504C174.734 255.814 176.974 257.844 179.384 258.504C180.554 258.824 181.734 258.714 182.904 258.494C183.744 258.334 184.614 258.044 185.474 258.044C186.344 258.044 186.714 258.264 187.534 258.084C187.914 258.004 188.124 257.564 188.034 257.204C187.504 255.094 185.044 255.554 183.384 255.964C181.484 256.434 179.964 256.664 178.194 255.624C176.884 254.854 175.844 253.684 174.494 252.984C174.174 252.834 173.664 253.114 173.824 253.504Z" fill="#FFF5E9"/>
<path d="M184.194 258.094C187.564 267.974 204.303 272.284 213.013 268.384C213.683 268.084 213.444 267.064 212.814 266.884C210.304 266.184 208.163 266.744 205.573 266.854C202.533 266.974 199.783 266.544 196.893 265.614C193.833 264.624 191.383 263.014 188.973 260.924C187.453 259.604 186.313 258.484 184.363 257.934C184.273 257.884 184.164 257.984 184.194 258.094Z" fill="#FFF5E9"/>
<path d="M220.264 263.364C222.404 262.184 224.214 260.404 225.944 258.694C227.144 257.504 229.814 255.464 229.574 253.584C229.544 253.334 229.374 253.064 229.074 253.084C227.254 253.214 225.844 255.724 224.664 256.954C222.954 258.754 220.974 260.294 219.324 262.144C218.744 262.794 219.464 263.804 220.264 263.364Z" fill="#FFF5E9"/>
<path d="M229.824 253.624C231.564 255.444 233.804 257.324 234.824 259.674C236.154 262.734 234.544 266.554 232.364 268.794C231.364 269.824 229.894 270.584 228.734 271.424C225.524 273.754 223.154 276.284 218.794 274.544C215.704 273.304 213.544 270.524 211.064 268.444C209.834 267.414 207.624 268.764 208.674 270.294C211.194 273.964 215.924 277.874 220.534 278.314C225.554 278.794 229.974 273.734 233.644 270.974C237.024 268.424 239.774 266.134 238.374 261.544C237.324 258.114 233.944 253.624 230.384 252.694C229.824 252.554 229.434 253.224 229.824 253.624Z" fill="#FFF5E9"/>
<path d="M224.034 277.424C225.834 279.744 228.884 281.034 231.534 282.124C233.444 282.904 235.824 283.494 237.624 282.114C239.224 280.884 239.444 278.844 239.134 276.984C238.694 274.314 237.744 270.974 236.404 268.634C235.684 267.374 234.064 268.304 234.234 269.544C234.554 271.854 239.104 279.254 235.484 280.704C233.854 281.354 230.794 279.644 229.384 279.024C227.754 278.304 226.254 277.394 224.674 276.594C224.114 276.314 223.674 276.964 224.034 277.424Z" fill="#FFF5E9"/>
<path d="M863.758 583.3C856.063 577.128 843.145 584.538 836.46 589.117C828.346 594.666 819.728 602.858 825.339 613.342C825.909 614.402 824.531 615.911 823.6 614.841C815.198 605.143 825.685 593.472 833.531 587.787C840.482 582.753 857.957 572.646 865.278 581.983C866.012 582.934 864.608 583.984 863.758 583.3Z" fill="#FFF5E9"/>
<path d="M884.975 587.537C884.055 587.377 883.442 586.62 882.636 586.175C880.662 585.093 878.381 584.599 876.151 584.482C872.295 584.287 868.279 585.191 864.676 586.504C859.916 588.251 855.301 591.162 855.189 596.897C855.105 601.499 858.15 604.925 859.355 609.124C859.543 609.795 858.718 610.442 858.177 609.901C851.429 603.296 850.607 591.584 859.242 586.405C865.988 582.364 879.311 579.169 885.641 585.647C886.108 586.121 886.123 586.932 885.523 587.316C885.351 587.456 885.197 587.574 884.975 587.537Z" fill="#FFF5E9"/>
<path d="M886.856 589.435C883.321 590.894 879.89 592.397 877.395 595.44C873.663 600.015 876.887 603.05 878.933 607.233C879.419 608.228 877.976 608.939 877.252 608.338C873.565 605.269 871.982 599.678 874.746 595.538C877.288 591.721 882.138 588.887 886.675 588.524C887.233 588.483 887.326 589.249 886.856 589.435Z" fill="#FFF5E9"/>
<path d="M884.107 589.538C885.703 586.735 889.624 589.512 891.503 590.699C893.963 592.255 896.855 594.006 896.135 597.272C895.312 601.013 893.245 604.543 889.91 606.522C886.778 608.379 880.824 610.804 877.384 609.102C876.745 608.787 876.832 608.011 877.301 607.615C879.251 605.934 881.806 606.142 884.267 605.554C887.025 604.89 889.691 604.03 891.493 601.676C893.341 599.26 894.129 596.312 892.16 593.867C891.019 592.448 886.334 589.605 884.348 589.915C884.158 589.926 884.025 589.693 884.107 589.538Z" fill="#FFF5E9"/>
<path d="M879.136 609.445C878.356 611.802 876.232 613.954 873.862 614.747C872.712 615.131 871.528 615.087 870.347 614.932C869.5 614.819 868.615 614.578 867.756 614.626C866.887 614.674 866.53 614.915 865.702 614.78C865.318 614.722 865.084 614.294 865.153 613.93C865.565 611.793 868.047 612.116 869.727 612.433C871.65 612.797 873.181 612.942 874.89 611.805C876.155 610.963 877.129 609.737 878.438 608.963C878.749 608.796 879.274 609.047 879.136 609.445Z" fill="#FFF5E9"/>
<path d="M869.037 614.605C866.221 624.657 849.747 629.891 840.834 626.481C840.148 626.219 840.331 625.187 840.95 624.972C843.417 624.134 845.585 624.574 848.177 624.54C851.219 624.491 853.941 623.909 856.775 622.819C859.775 621.661 862.132 619.917 864.422 617.696C865.866 616.294 866.942 615.112 868.858 614.455C868.945 614.4 869.061 614.493 869.037 614.605Z" fill="#FFF5E9"/>
<path d="M833.316 621.872C831.113 620.813 829.207 619.136 827.385 617.525C826.12 616.404 823.341 614.515 823.476 612.625C823.492 612.374 823.647 612.094 823.948 612.098C825.772 612.126 827.319 614.554 828.566 615.717C830.373 617.419 832.436 618.846 834.186 620.602C834.802 621.218 834.139 622.267 833.316 621.872Z" fill="#FFF5E9"/>
<path d="M823.229 612.679C821.593 614.593 819.461 616.594 818.573 618.997C817.416 622.126 819.236 625.851 821.537 627.966C822.592 628.939 824.102 629.616 825.307 630.39C828.642 632.538 831.149 634.933 835.405 632.953C838.422 631.543 840.424 628.647 842.784 626.433C843.955 625.336 846.237 626.561 845.273 628.147C842.961 631.951 838.456 636.118 833.878 636.814C828.892 637.572 824.198 632.766 820.38 630.214C816.863 627.856 813.99 625.722 815.133 621.062C815.991 617.579 819.116 612.908 822.618 611.781C823.17 611.61 823.597 612.258 823.229 612.679Z" fill="#FFF5E9"/>
<path d="M830.333 636.12C828.665 638.536 825.691 639.994 823.106 641.23C821.242 642.115 818.899 642.836 817.025 641.558C815.359 640.419 815.026 638.395 815.232 636.52C815.523 633.83 816.286 630.442 817.493 628.031C818.142 626.733 819.811 627.572 819.711 628.819C819.52 631.143 815.388 638.785 819.083 640.031C820.747 640.59 823.707 638.712 825.08 638.015C826.668 637.205 828.115 636.213 829.648 635.327C830.191 635.016 830.667 635.641 830.333 636.12Z" fill="#FFF5E9"/>
<path d="M472.468 676.05C465.658 673.81 457.618 676.56 450.748 677.73C449.838 677.88 449.468 679.09 449.898 679.81C453.608 686.03 458.898 691.18 465.388 694.46C472.868 698.24 478.888 697.08 486.738 694.96C487.648 694.71 488.288 693.48 487.688 692.64C485.188 689.19 482.328 686.23 479.518 683.05C475.378 678.38 470.288 668.55 473.988 662.27C475.088 660.41 472.178 658.71 471.088 660.58C468.038 665.8 470.058 673.96 472.678 678.98C475.718 684.8 481.088 688.99 484.958 694.24C485.278 693.47 485.588 692.69 485.908 691.92C483.058 692.71 480.098 693.62 477.158 694.05C473.028 694.65 469.108 693.12 465.548 691.15C460.018 688.1 455.718 683.7 452.358 678.39C452.078 679.08 451.798 679.78 451.508 680.47C453.708 680.04 455.908 679.6 458.098 679.14C462.578 678.19 467.738 676.05 472.318 676.67C472.688 676.71 472.858 676.18 472.468 676.05Z" fill="#FFF5E9"/>
<path d="M484.657 667.34C487.947 667.22 492.957 668.94 495.307 671.11C501.007 676.39 497.087 683.69 492.727 688.2C493.517 688.3 494.307 688.4 495.097 688.51C491.307 681.08 486.127 675.12 480.767 668.77C479.467 667.23 477.257 669.46 478.557 670.98C483.767 677.09 488.797 682.88 492.497 690.03C492.937 690.89 494.217 691.01 494.867 690.34C499.707 685.29 503.597 677.77 498.967 671.24C496.037 667.11 489.497 664.5 484.557 666.49C484.107 666.65 484.117 667.36 484.657 667.34Z" fill="#FFF5E9"/>
<path d="M481.679 658.79C491.569 657.46 501.949 662.83 505.589 672.36C508.899 681.03 506.259 691.16 499.239 697.16C484.729 709.57 461.419 705.87 448.789 692.67C442.279 685.87 438.139 676.28 439.979 666.79C441.619 658.33 447.669 650.59 456.299 648.58C466.999 646.09 477.489 652.82 482.039 662.29C482.389 663.01 484.569 667.33 484.049 668.54C483.899 668.89 481.649 669.71 481.989 669.81C481.749 669.74 481.539 668.8 481.349 668.63C478.759 666.18 477.389 662.89 474.339 660.62C469.019 656.68 462.169 655.22 455.959 657.88C451.949 659.6 445.029 665.38 447.529 670.39C447.679 670.69 448.089 670.93 448.429 670.9C455.339 670.28 465.169 668.93 471.499 672.26C472.619 672.85 473.609 671.18 472.489 670.56C469.249 668.76 465.289 668.56 461.659 668.43C459.109 668.34 456.559 668.38 454.009 668.48C452.699 668.53 450.449 669.15 449.239 668.76C447.929 668.34 446.539 671.75 449.889 666.03C450.709 664.63 451.609 663.32 452.839 662.23C455.899 659.51 460.049 658.25 464.099 658.64C471.619 659.36 477.059 664.91 480.469 671.24C480.629 671.54 481.009 671.76 481.349 671.74C483.169 671.64 484.619 670.68 486.029 669.57C486.309 669.35 486.369 668.91 486.289 668.58C482.959 653.96 468.429 641.52 452.939 647.51C439.599 652.66 434.769 669 439.509 681.65C444.909 696.06 459.499 705.5 474.559 706.52C489.189 707.52 506.049 699.92 508.569 684.13C511.129 668.03 497.079 654.93 481.269 657.18C480.199 657.35 480.649 658.92 481.679 658.79Z" fill="#FFF5E9"/>
<path d="M384.606 485.757C377.296 478.557 377.866 466.967 377.596 457.457C377.276 445.897 378.276 434.577 384.146 424.367C394.706 405.987 408.716 390.487 429.316 383.827C439.096 380.667 451.046 378.117 461.116 381.207C465.856 382.667 470.456 385.637 472.826 390.117C475.866 395.857 474.346 402.477 472.086 408.177C468.356 417.587 462.246 425.807 456.266 433.887C450.016 442.337 444.466 451.077 438.896 459.967C432.906 469.537 426.046 479.187 416.026 484.887C406.066 490.547 394.276 489.997 385.136 483.077C382.776 481.287 379.966 485.117 382.016 487.127C398.926 503.627 423.416 488.707 435.036 473.707C443.206 463.157 449.236 451.117 457.096 440.327C464.216 430.567 472.196 420.847 476.376 409.357C479.906 399.657 479.246 388.777 470.466 382.217C461.566 375.567 449.926 376.457 439.606 378.457C428.416 380.627 417.486 384.677 408.206 391.387C398.816 398.177 392.096 407.697 385.656 417.187C377.386 429.367 374.646 441.917 375.036 456.547C375.306 466.447 374.556 480.487 383.836 486.777C384.436 487.197 385.126 486.267 384.606 485.757Z" fill="#FFF5E9"/>
<path d="M377.946 442.117C375.916 446.057 380.086 451.917 382.586 454.807C385.496 458.177 390.696 463.067 395.516 461.847C396.076 461.707 396.506 460.897 396.116 460.377C393.466 456.937 388.806 455.617 385.766 452.367C384.086 450.557 382.646 448.537 381.466 446.377C380.546 444.707 380.046 443.107 378.426 441.987C378.276 441.887 378.026 441.957 377.946 442.117Z" fill="#FFF5E9"/>
<path d="M385.334 421.987C386.274 427.347 391.044 431.897 395.394 434.817C399.164 437.347 405.524 440.937 410.024 438.667C410.594 438.377 410.674 437.517 410.224 437.097C407.104 434.177 401.814 433.797 398.104 431.567C393.464 428.777 390.594 424.707 386.614 421.247C386.024 420.727 385.204 421.237 385.334 421.987Z" fill="#FFF5E9"/>
<path d="M401.168 400.997C404.368 405.077 408.588 408.407 412.218 412.107C414.998 414.937 418.038 419.927 421.958 420.997C422.708 421.197 423.198 420.527 423.098 419.857C422.498 415.677 417.128 411.847 414.148 409.127C410.468 405.767 406.538 402.077 401.978 399.947C401.268 399.607 400.698 400.397 401.168 400.997Z" fill="#FFF5E9"/>
<path d="M425.797 383.867C426.707 387.687 431.317 390.987 434.117 393.517C436.777 395.927 440.147 400.087 443.917 400.397C444.517 400.447 445.027 399.747 444.837 399.197C443.627 395.667 438.787 393.117 436.057 390.707C433.307 388.277 430.137 384.117 426.547 383.137C426.087 382.997 425.697 383.427 425.797 383.867Z" fill="#FFF5E9"/>
<path d="M393.797 481.867C393.797 483.207 394.597 484.217 395.817 484.697C396.587 484.997 397.667 484.497 398.047 483.787C398.457 483.007 398.367 482.047 397.737 481.397C397.707 481.367 397.677 481.327 397.637 481.297C397.507 481.167 397.507 481.167 397.617 481.287C397.727 481.387 397.787 481.527 397.787 481.687C397.847 482.047 397.887 482.107 397.887 481.857C397.977 480.787 396.887 479.767 395.847 479.817C394.737 479.867 393.797 480.717 393.797 481.867Z" fill="#FFF5E9"/>
<path d="M409.206 479.147C409.506 479.277 409.836 479.457 410.146 479.547C410.436 479.627 410.736 479.627 411.026 479.547C411.466 479.377 411.556 479.337 411.296 479.417C411.966 479.187 412.456 478.497 412.236 477.767C412.266 478.097 412.246 478.007 412.186 477.507C412.106 477.227 411.966 476.987 411.756 476.777C411.516 476.537 411.196 476.387 410.916 476.217C410.146 475.767 409.026 476.017 408.596 476.827C408.216 477.557 408.336 478.777 409.206 479.147Z" fill="#FFF5E9"/>
<path d="M404.457 467.527C404.727 467.647 404.997 467.767 405.277 467.887C405.817 468.117 406.207 468.167 406.787 468.067C406.517 468.067 406.247 468.067 405.977 468.067C406.337 468.147 406.657 468.187 407.027 468.097C407.297 468.027 407.367 467.987 407.517 467.947C408.167 467.787 408.327 467.077 408.087 466.547C408.017 466.387 408.007 466.267 407.907 466.077C407.767 465.807 407.627 465.677 407.497 465.507C407.167 465.087 406.637 464.867 406.177 464.607C405.397 464.177 404.297 464.397 403.857 465.217C403.457 465.947 403.587 467.147 404.457 467.527Z" fill="#FFF5E9"/>
<path d="M418.635 463.357C418.255 464.677 419.035 466.527 420.515 466.777C421.325 466.917 422.065 466.747 422.595 466.067C423.075 465.447 423.155 464.557 422.745 463.877C422.665 463.747 422.205 462.977 422.545 463.617C422.775 464.047 422.705 464.557 422.495 464.987C423.055 463.857 422.705 462.507 421.485 461.987C420.325 461.497 418.995 462.137 418.635 463.357Z" fill="#FFF5E9"/>
<path d="M419.066 451.687C419.846 451.647 420.706 451.627 421.256 450.987C421.686 450.497 421.686 449.867 421.256 449.377C420.696 448.737 419.846 448.717 419.066 448.677C418.276 448.637 417.526 449.397 417.556 450.187C417.586 450.957 418.216 451.727 419.066 451.687Z" fill="#FFF5E9"/>
<path d="M433.328 452.607C434.328 452.607 435.278 451.727 435.228 450.707C435.178 449.677 434.388 448.807 433.328 448.807C432.328 448.807 431.378 449.687 431.428 450.707C431.468 451.737 432.258 452.607 433.328 452.607Z" fill="#FFF5E9"/>
<path d="M431.206 440.737C431.796 440.737 432.356 440.677 432.936 440.607C433.716 440.507 434.486 439.977 434.446 439.097C434.406 438.187 433.776 437.687 432.936 437.587C432.356 437.517 431.796 437.457 431.206 437.457C430.346 437.457 429.516 438.217 429.556 439.107C429.606 439.977 430.286 440.737 431.206 440.737Z" fill="#FFF5E9"/>
<path d="M448.756 440.077C448.916 439.807 449.056 439.547 449.126 439.247C449.276 438.627 449.046 437.717 448.386 437.437C447.926 437.237 447.526 437.167 447.046 437.117C445.516 436.947 444.646 438.897 445.346 440.087C446.096 441.367 448.006 441.357 448.756 440.077Z" fill="#FFF5E9"/>
<path d="M445.996 429.557C446.526 429.537 447.066 429.527 447.566 429.347C448.356 429.077 449.116 428.377 449.116 427.467C449.116 426.597 448.406 425.907 447.646 425.617C447.116 425.417 446.546 425.397 445.986 425.377C444.896 425.337 443.846 426.367 443.896 427.467C443.956 428.567 444.826 429.597 445.996 429.557Z" fill="#FFF5E9"/>
<path d="M449.696 414.607C450.706 414.607 451.666 413.717 451.626 412.677C451.576 411.637 450.776 410.747 449.696 410.747C448.686 410.747 447.726 411.637 447.766 412.677C447.816 413.727 448.616 414.607 449.696 414.607Z" fill="#FFF5E9"/>
<path d="M464.475 416.437C464.935 416.407 465.455 416.447 465.845 416.157C466.455 415.697 466.455 414.947 465.845 414.497C465.455 414.207 464.945 414.247 464.475 414.217C463.045 414.117 463.045 416.527 464.475 416.437Z" fill="#FFF5E9"/>
<path d="M462.356 400.857C462.816 401.017 463.246 401.197 463.746 401.157C464.986 401.057 465.966 399.757 465.226 398.577C464.876 398.017 464.366 397.707 463.836 397.337C462.876 396.677 461.516 397.267 461.106 398.257C460.646 399.357 461.266 400.487 462.356 400.857Z" fill="#FFF5E9"/>
<path d="M462.924 389.077C463.484 389.227 464.094 389.437 464.654 389.197C465.394 388.887 465.854 388.267 465.654 387.427C465.504 386.807 465.104 386.487 464.634 386.117C464.134 385.727 463.564 385.457 462.914 385.667C462.474 385.807 462.094 386.077 461.864 386.477C461.304 387.467 461.824 388.777 462.924 389.077Z" fill="#FFF5E9"/>
<path d="M694.855 452.819C683.825 438.109 692.535 416.779 708.875 410.959C717.385 407.929 727.285 408.439 735.425 412.389C744.615 416.849 747.345 427.269 748.275 436.739C750.255 456.729 730.905 468.789 712.755 463.939C707.445 462.519 702.625 459.739 698.715 455.889C697.895 455.079 697.035 453.639 695.885 453.279C695.735 453.219 694.935 452.959 694.855 452.819C694.795 452.719 694.645 452.809 694.705 452.909C694.775 453.019 694.735 453.609 694.735 453.819C694.715 455.099 695.805 456.169 696.595 457.059C699.815 460.699 704.095 463.439 708.605 465.179C721.635 470.229 737.475 467.389 745.775 455.539C750.125 449.329 750.895 442.109 749.805 434.739C748.695 427.219 746.715 418.339 740.345 413.449C729.075 404.809 710.435 406.109 699.585 414.659C687.745 423.979 685.425 441.289 694.725 452.929C694.775 452.999 694.915 452.899 694.855 452.819Z" fill="#FFF5E9"/>
<path d="M701.015 444.619C698.955 444.019 699.785 447.869 700.265 448.729C701.005 450.049 703.725 451.619 704.545 449.499C705.195 447.809 704.235 444.889 702.955 443.679C701.425 442.219 698.995 443.969 700.175 445.819C700.515 446.349 701.345 446.409 701.665 445.819C701.755 445.679 701.825 445.519 701.885 445.359C701.985 444.959 701.905 444.989 701.665 445.449C701.635 445.629 702.055 446.189 702.135 446.409C702.295 446.839 702.415 447.309 702.465 447.769C702.485 447.979 702.335 449.129 702.695 448.599C702.985 448.429 702.965 448.349 702.625 448.359C702.435 448.279 702.265 448.169 702.115 448.019C701.795 447.709 701.645 447.309 701.525 446.899C701.325 446.189 701.465 445.409 700.965 444.829C701.015 445.019 701.065 445.199 701.115 445.389C701.135 445.319 701.155 445.239 701.175 445.169C701.065 445.279 700.945 445.399 700.835 445.509C700.895 445.499 700.955 445.489 701.015 445.469C701.445 445.379 701.405 444.739 701.015 444.619Z" fill="#FFF5E9"/>
<path d="M708.525 430.349C707.365 431.389 708.165 433.139 709.375 433.729C710.825 434.429 712.505 433.809 713.185 432.369C713.755 431.149 714.385 428.119 712.325 428.009C711.405 427.959 710.395 428.209 709.655 428.749C708.955 429.269 708.205 430.249 708.815 431.109C709.005 431.379 709.405 431.639 709.765 431.489C710.515 431.179 710.695 430.369 711.465 430.089C711.635 430.029 711.975 430.059 712.105 429.959C712.335 429.979 712.295 429.899 712.005 429.719C711.785 429.389 711.715 429.399 711.785 429.769C711.665 430.149 711.765 430.679 711.675 431.099C711.535 431.729 711.255 432.249 710.555 432.309C710.175 432.339 708.945 431.879 709.465 431.309C710.065 430.659 709.165 429.769 708.525 430.349Z" fill="#FFF5E9"/>
<path d="M699.963 432.96C700.033 433.49 700.463 433.84 700.993 433.85C701.173 433.86 701.393 433.74 701.473 433.57C701.693 433.09 701.933 432.51 701.843 431.98C701.753 431.43 701.423 430.92 700.853 430.77C700.203 430.6 699.603 431.05 699.383 431.64C699.153 432.28 699.313 432.84 699.853 433.25C700.103 433.44 700.623 433.38 700.823 433.12C700.963 432.95 701.093 432.79 701.153 432.58C701.173 432.46 701.183 432.33 701.203 432.21C701.203 432.34 701.133 432.44 700.983 432.51C700.593 432.24 700.413 432.23 700.433 432.48C700.423 432.59 700.413 432.69 700.403 432.8C700.383 433.03 700.373 433.21 700.443 433.43C700.493 433.25 700.543 433.07 700.583 432.89C700.523 432.87 700.463 432.85 700.413 432.83C700.303 432.66 699.933 432.69 699.963 432.96Z" fill="#FFF5E9"/>
<path d="M704.214 422.849C704.734 423.319 705.504 423.439 706.094 422.989C706.694 422.529 706.764 421.749 706.444 421.099C706.304 420.809 705.854 420.619 705.544 420.739C705.014 420.939 704.694 421.239 704.514 421.779C704.234 422.639 705.454 423.059 705.914 422.369C705.984 422.269 706.044 422.239 706.154 422.189C705.794 422.099 705.434 421.999 705.074 421.909C705.104 421.969 705.105 421.699 705.255 421.819C704.535 421.239 703.504 422.209 704.214 422.849Z" fill="#FFF5E9"/>
<path d="M706.163 438.229C705.673 438.579 705.423 439.169 705.713 439.749C706.023 440.359 706.733 440.509 707.243 440.079C707.553 439.819 707.453 439.379 707.243 439.109C707.193 439.029 707.113 438.959 707.033 438.919C706.813 438.779 706.803 438.919 707.013 439.349C707.533 438.779 706.833 437.739 706.163 438.229Z" fill="#FFF5E9"/>
<path d="M711.583 453.029C712.543 453.029 712.543 451.539 711.583 451.539C710.623 451.529 710.623 453.029 711.583 453.029Z" fill="#FFF5E9"/>
<path d="M713.596 441.72C712.516 443.37 716.006 444.53 716.876 443.09C717.296 442.39 716.966 441.47 716.376 440.98C715.636 440.38 714.036 440.299 713.386 441.069C713.066 441.449 713.116 442.209 713.716 442.319C714.216 442.399 714.526 442.23 714.996 442.12C715.256 442.06 715.586 442.03 715.736 442.31C716.026 442.87 714.226 442.569 714.416 442.199C714.686 441.659 713.926 441.21 713.596 441.72Z" fill="#FFF5E9"/>
<path d="M725.453 443.619C726.143 444.439 727.333 445.199 728.423 444.709C729.643 444.169 729.333 442.689 728.613 441.869C727.853 441.019 726.463 440.339 725.473 441.239C724.683 441.959 724.633 443.669 725.683 444.189C726.123 444.409 726.563 444.209 726.733 443.759C726.883 443.369 726.803 442.929 726.723 442.529C726.733 442.559 726.583 442.459 726.713 442.559C726.883 442.699 727.133 442.769 727.323 442.919C727.423 443.009 727.723 443.219 727.733 443.369C727.733 443.509 727.613 443.449 727.443 443.469C726.803 443.539 726.313 443.589 725.703 443.299C725.483 443.229 725.313 443.459 725.453 443.619Z" fill="#FFF5E9"/>
<path d="M725.495 433.98C725.375 435.02 726.185 436.05 727.265 436.1C728.535 436.16 729.065 434.37 728.745 433.38C728.315 432.03 726.605 431.79 725.615 432.67C724.755 433.44 724.125 435.22 725.415 435.92C725.765 436.11 726.245 436.08 726.535 435.78C726.775 435.53 726.905 435.25 727.005 434.91C727.045 434.78 727.065 434.65 727.105 434.53C727.075 434.62 727.175 434.44 727.175 434.43C727.215 434.38 727.415 434.25 727.415 434.2C727.335 434.11 727.205 434.09 727.045 434.14C726.955 434.06 726.925 434.03 726.955 434.06C726.945 434.07 726.955 434.24 726.945 434.27C726.925 434.35 726.905 434.43 726.885 434.52C726.795 434.74 726.825 434.74 726.955 434.5C727.095 434.46 727.245 434.42 727.385 434.38C727.015 434.42 726.655 434 726.525 433.69C726.275 433.13 725.545 433.5 725.495 433.98Z" fill="#FFF5E9"/>
<path d="M737.225 433.54C736.205 435.06 736.855 437.309 738.255 438.379C740.025 439.749 741.925 438.64 742.455 436.66C742.915 434.93 742.465 432.44 740.835 431.43C739.055 430.32 736.695 432.54 737.305 434.41C737.485 434.96 738.205 435.39 738.745 435C739.075 434.76 739.325 434.529 739.565 434.199C739.635 434.049 739.715 433.92 739.825 433.8C740.015 433.62 739.935 433.609 739.585 433.759C739.575 433.979 739.935 434.48 739.985 434.75C740.045 435.1 740.045 435.45 739.975 435.8C739.955 435.88 739.805 436.57 739.665 436.59C739.845 436.56 739.145 435.88 739.065 435.78C738.625 435.16 738.495 434.39 738.305 433.66C738.165 433.17 737.495 433.14 737.225 433.54Z" fill="#FFF5E9"/>
<path d="M729.887 420.979C730.527 422.489 732.157 423.749 733.837 423.819C735.747 423.899 735.937 421.709 735.377 420.349C734.767 418.879 733.297 417.829 731.717 417.669C730.257 417.519 727.967 418.609 728.647 420.429C728.887 421.059 729.937 421.419 730.277 420.639C730.597 419.909 730.847 419.549 731.717 419.739C732.427 419.899 733.057 420.399 733.377 421.039C733.457 421.209 733.747 421.799 733.597 421.979C733.867 421.659 733.107 421.579 732.907 421.499C732.157 421.189 731.507 420.719 730.907 420.179C730.337 419.649 729.597 420.309 729.887 420.979Z" fill="#FFF5E9"/>
<path d="M722.344 425.309C722.204 426.689 724.523 426.769 724.453 425.269C724.423 424.569 723.814 424.009 723.114 424.099C722.344 424.189 721.854 424.969 722.004 425.699C722.054 425.939 722.304 426.209 722.544 426.239C723.004 426.309 723.383 426.119 723.513 425.649C723.543 425.539 723.524 425.419 723.544 425.429C723.604 425.459 723.354 425.549 723.304 425.529C723.054 425.459 723.364 425.219 723.364 425.309C723.344 424.639 722.414 424.669 722.344 425.309Z" fill="#FFF5E9"/>
<path d="M715.706 418.86C715.956 419.5 716.816 420.08 717.516 419.86C718.426 419.56 718.736 418.37 718.336 417.58C717.876 416.68 716.807 416.25 715.877 416.72C714.887 417.21 714.236 418.73 715.286 419.48C715.616 419.72 716.137 419.54 716.317 419.21C716.457 418.97 716.476 418.78 716.516 418.52C716.526 418.41 716.526 418.29 716.586 418.19C716.726 417.96 717.027 417.97 717.247 418.11C717.897 418.52 716.576 420.11 715.836 418.81C715.796 418.73 715.676 418.78 715.706 418.86Z" fill="#FFF5E9"/>
<path d="M719.903 453.349C719.313 454.109 719.323 455.059 719.843 455.859C720.323 456.599 721.383 457.649 722.343 457.179C723.303 456.709 723.254 455.259 722.864 454.429C722.444 453.519 721.393 452.919 720.403 453.199C719.543 453.439 719.714 454.749 720.614 454.749C720.904 454.749 721.163 454.779 721.343 455.029C721.443 455.169 721.474 455.319 721.494 455.489C721.504 455.569 721.504 455.659 721.494 455.739C721.414 455.979 721.543 455.959 721.883 455.679C721.873 455.619 721.543 455.469 721.463 455.419C721.283 455.299 721.103 455.159 720.973 454.989C720.753 454.719 720.663 454.389 720.843 454.069C721.173 453.509 720.323 452.799 719.903 453.349Z" fill="#FFF5E9"/>
<path d="M734.365 449.229C733.685 450.019 733.345 451.329 733.925 452.269C734.525 453.229 735.745 453.58 736.795 453.18C737.975 452.72 738.725 451.299 737.975 450.139C737.295 449.089 735.315 448.159 734.265 449.149C733.845 449.549 733.995 450.19 734.435 450.49C734.965 450.85 735.625 450.669 736.135 451.089C736.165 451.109 736.325 451.309 736.255 451.209C736.205 451.139 736.215 451.239 736.235 451.219C736.155 451.299 736.125 451.359 736.065 451.389C735.765 451.519 735.585 451.479 735.385 451.199C735.085 450.779 735.065 450.43 735.355 450C735.745 449.41 734.835 448.689 734.365 449.229Z" fill="#FFF5E9"/>
<path d="M732.414 409.209C737.804 403.989 747.764 405.999 754.004 408.319C761.084 410.949 767.324 416.259 769.864 423.519C772.374 430.709 772.824 441.499 767.674 447.449C762.034 453.969 755.724 455.479 747.474 455.789C745.644 455.859 745.144 458.589 747.034 459.069C756.374 461.459 765.274 455.309 770.714 448.229C776.004 441.359 774.964 429.719 771.924 422.029C768.674 413.839 761.194 408.149 752.924 405.659C746.094 403.599 736.634 402.359 731.874 408.789C731.614 409.109 732.134 409.479 732.414 409.209Z" fill="#FFF5E9"/>
<path d="M752.875 415.919C752.315 417.119 753.225 418.539 754.565 418.579C756.045 418.619 757.175 417.129 757.205 415.749C757.225 414.979 756.945 414.219 756.265 413.809C755.635 413.419 754.815 413.449 754.155 413.729C753.425 414.039 752.895 414.669 752.665 415.419C752.415 416.229 752.505 417.339 753.385 417.739C753.825 417.939 754.195 417.889 754.575 417.589C755.125 417.149 755.065 416.499 755.235 415.969C755.195 416.099 755.325 415.799 755.225 415.939C755.185 415.999 755.465 415.819 755.255 415.909C755.235 415.919 755.225 415.889 755.215 415.899C755.225 415.919 755.215 415.909 755.195 415.869C755.145 415.789 755.135 415.829 755.165 415.989C755.135 416.059 755.125 416.139 755.085 416.219C755.005 416.399 754.885 416.589 754.725 416.699C754.595 416.779 754.535 416.799 754.405 416.759C754.245 416.719 754.335 416.569 754.345 416.539C754.625 415.699 753.255 415.109 752.875 415.919Z" fill="#FFF5E9"/>
<path d="M753.265 428.039C752.795 428.389 752.355 428.9 752.295 429.5C752.225 430.17 752.535 430.879 753.025 431.329C754.175 432.379 756.045 431.919 756.805 430.649C757.505 429.489 757.645 427.579 756.275 426.839C754.745 426.019 752.455 427.439 752.865 429.229C753.005 429.849 753.725 430.219 754.315 430.049C754.675 429.949 754.965 429.749 755.205 429.469C755.135 429.549 755.485 429.09 755.505 429.12C755.515 429.13 755.435 429.199 755.425 429.199C755.325 429.249 755.225 429.229 755.125 429.129C754.945 429.099 754.815 428.999 754.755 428.819C754.695 428.789 754.765 428.749 754.745 428.899C754.775 428.719 754.695 429.129 754.695 429.129C754.685 429.179 754.595 429.429 754.615 429.389C754.645 429.329 754.475 429.529 754.565 429.459C754.665 429.379 754.625 429.479 754.585 429.439C754.505 429.459 754.495 429.459 754.545 429.449C754.615 429.439 754.585 429.429 754.435 429.439C754.485 429.449 754.585 429.5 754.475 429.43C754.405 429.39 754.395 429.409 754.435 429.449C754.365 429.369 754.365 429.309 754.315 429.219C754.215 429.009 754.165 428.999 754.235 428.789C754.425 428.269 753.735 427.689 753.265 428.039Z" fill="#FFF5E9"/>
<path d="M765.485 431.299C765.405 431.019 765.265 430.789 765.025 430.619C764.975 430.579 764.585 430.399 764.725 430.459C764.905 430.529 764.495 430.369 764.475 430.359C763.715 430.239 762.905 430.679 762.915 431.549C762.945 433.259 765.105 433.539 765.935 432.239C766.325 431.629 766.065 430.749 765.455 430.399C764.805 430.019 764.005 430.269 763.615 430.879C763.595 430.909 763.575 430.929 763.565 430.959C763.725 430.799 763.885 430.639 764.045 430.479C764.735 430.479 764.945 430.469 764.675 430.419C764.575 430.399 764.605 430.419 764.775 430.479C764.925 430.629 765.065 430.769 765.215 430.919C765.215 430.909 765.205 430.899 765.205 430.889C765.245 431.179 765.285 431.479 765.325 431.769C765.335 431.749 765.335 431.729 765.345 431.709C765.095 431.959 764.845 432.209 764.595 432.459C764.565 432.469 764.525 432.469 764.495 432.479C764.325 432.429 764.155 432.389 763.985 432.339C764.005 432.359 764.035 432.369 764.055 432.389C764.755 432.929 765.705 432.069 765.485 431.299Z" fill="#FFF5E9"/>
<path d="M757.405 442.94C756.255 443.84 754.915 445.66 756.655 446.8C758.275 447.86 760.795 446.79 762.175 445.78C763.725 444.65 764.315 442.43 762.345 441.37C760.815 440.55 758.675 441.03 757.755 442.51C757.555 442.84 757.575 443.26 757.755 443.59C757.765 443.62 757.785 443.64 757.795 443.67C757.875 443.89 758.095 444.13 758.365 444.1C759.055 444.02 759.305 443.84 759.925 443.54C760.165 443.42 760.405 443.34 760.675 443.34C761.135 443.34 761.215 443.36 761.005 443.7C760.675 444.25 759.295 444.74 758.705 444.89C758.475 444.95 758.105 445.07 757.865 444.97C757.125 444.67 757.695 443.95 758.035 443.56C758.405 443.13 757.845 442.6 757.405 442.94Z" fill="#FFF5E9"/>
<path d="M750.745 450.16C750.245 450.64 750.025 451.24 750.015 451.93C750.015 452.39 750.335 452.76 750.755 452.9C751.745 453.24 752.925 452.769 753.035 451.629C753.145 450.479 751.945 449.66 750.935 450.29C750.615 450.49 750.365 450.86 750.385 451.25C750.385 451.27 750.385 451.299 750.385 451.319C750.415 451.859 750.835 452.41 751.435 452.37C751.555 452.36 751.675 452.349 751.795 452.329C752.225 452.179 752.145 452.16 751.545 452.28C751.385 452.19 751.225 452.09 751.055 452C751.455 451.48 751.495 451.13 751.185 450.96C751.135 450.93 751.085 450.92 751.015 450.93C751.335 451.18 751.665 451.42 751.985 451.67C751.975 451.62 752.025 451.53 752.055 451.5C752.825 450.58 751.625 449.31 750.745 450.16Z" fill="#FFF5E9"/>
<path d="M744.096 409.58C743.416 410.16 743.396 411.26 743.996 411.9C744.696 412.65 745.846 412.15 746.066 411.24C746.276 410.34 745.636 409.45 744.696 409.42C743.676 409.39 742.926 410.49 743.406 411.4C743.546 411.67 743.956 411.86 744.256 411.75C744.426 411.69 744.636 411.64 744.746 411.54C744.856 411.43 745.206 411.71 744.476 411.29C744.176 411.27 744.056 411.15 744.096 410.93C744.066 410.72 744.166 410.55 744.366 410.41C744.536 410.36 744.696 410.32 744.866 410.27C744.836 410.27 744.806 410.28 744.786 410.28C745.016 410.38 745.256 410.47 745.486 410.57C745.246 410.38 745.606 410.76 745.446 410.92C746.336 410.06 745.016 408.79 744.096 409.58Z" fill="#FFF5E9"/>
<path d="M21.5486 308.18C26.3886 308.58 29.7087 308.55 33.1287 312.49C35.9787 315.76 37.4887 320 39.7387 323.65C41.7687 326.95 44.5187 329.82 46.1387 333.37C47.1387 335.57 47.7387 337.85 46.9587 340.28C46.2887 342.35 44.8387 343.11 43.8187 344.79C43.4787 345.34 43.9187 346.04 44.5387 346.05C48.3887 346.09 49.8287 341.37 49.8287 338.1C49.8287 332.07 45.3487 327.82 42.3087 323.06C39.1887 318.19 37.3186 312.19 32.5687 308.56C29.5886 306.28 24.1987 304.09 21.1387 307.22C20.7787 307.58 21.0686 308.14 21.5486 308.18Z" fill="#FFF5E9"/>
<path d="M15.9101 308.17C14.3901 312.69 12.1101 316.57 13.1701 321.46C14.3401 326.84 18.0001 331.53 20.9501 336.03C25.9701 343.67 32.1001 351.13 42.2701 348.91C43.7701 348.58 43.4701 345.99 41.9001 346.19C30.6701 347.61 26.1601 338.95 20.6601 330.8C17.9801 326.82 14.7901 322.44 15.2801 317.4C15.6001 314.1 17.8701 311.48 16.8001 308.17C16.6601 307.73 16.0601 307.74 15.9101 308.17Z" fill="#FFF5E9"/>
<path d="M45.1817 344.79C47.5717 346.35 50.5317 346.62 53.1017 347.9C54.1117 348.4 56.0617 349.29 56.8217 350.16C60.0117 353.81 56.6217 352.86 54.7617 353.46C51.0217 354.67 51.8117 359.13 51.5117 362.46C52.2117 361.93 52.9117 361.4 53.6017 360.86C51.4217 360.07 49.2617 359.49 46.9917 359.03C46.0517 358.84 45.1817 359.3 44.8817 360.23C44.7317 360.69 43.4017 364.99 42.8717 364.95C42.0717 364.89 42.2817 360.09 42.2817 359.71C42.2617 356.14 42.4217 352.58 42.5317 349.02C42.6217 346.02 38.0117 346.04 37.8817 349.02C37.6717 353.74 37.7417 358.57 38.2417 363.28C38.4517 365.24 38.8717 367.22 40.7517 368.31C45.2517 370.91 47.2617 364.2 48.2017 361.16C47.5017 361.56 46.7917 361.96 46.0917 362.36C48.3617 362.79 50.5417 363.37 52.7417 364.07C53.8117 364.41 54.7817 363.5 54.8317 362.47C54.9117 360.98 54.4817 357.5 55.5617 356.33C56.4117 355.42 58.8417 356 59.9817 355.16C61.3817 354.13 61.8717 352.72 61.1417 351.07C59.1517 346.59 49.7917 342.67 45.2817 344.06C44.9417 344.15 44.8917 344.6 45.1817 344.79Z" fill="#FFF5E9"/>
<path d="M23.4504 308.17C26.7604 303.18 23.7504 295.14 20.8304 290.62C20.3704 289.91 19.2204 289.6 18.6004 290.33C17.7504 291.33 16.9604 292.33 16.3204 293.5C16.0504 293.99 15.1404 297.05 14.9104 297.15C14.7204 297.23 13.3004 296.17 12.7704 295.94C11.3904 295.36 10.1004 295.31 8.62041 295.46C7.85041 295.54 7.04041 296.09 7.10041 296.98C7.19041 298.24 7.23041 299.52 7.36041 300.77C7.53041 302.36 7.91041 301.73 6.24041 301.81C4.63041 301.89 2.65041 302.88 1.46041 303.94C1.02041 304.34 0.910406 304.98 1.04041 305.53C1.56041 307.8 4.21041 308.36 6.17041 309.01C9.34041 310.07 12.2304 311.75 15.3604 312.79C16.1604 313.05 17.0804 312.19 16.7804 311.37C16.0104 309.28 14.5404 308.37 12.5204 307.48C11.3604 306.97 4.48041 305.75 4.19041 304.67C4.05041 305.2 3.91041 305.73 3.77041 306.26C5.51041 304.61 8.80041 305.56 10.1404 303.66C11.2704 302.05 10.2804 298.78 10.1304 296.98C9.62041 297.49 9.12041 297.99 8.61041 298.5C11.1004 298.21 14.0504 301.46 16.4304 300.03C16.9404 299.73 17.2604 299.12 17.5204 298.61C18.6604 296.35 18.9004 294.38 20.6004 292.33C19.8604 292.23 19.1204 292.14 18.3704 292.04C20.0304 294.55 21.2604 297.27 21.7804 300.25C22.2404 302.85 21.7104 305.45 22.2704 308.01C22.4104 308.58 23.1704 308.6 23.4504 308.17Z" fill="#FFF5E9"/>
<path d="M18.882 300.709C18.502 302.619 18.062 304.519 18.362 306.469C18.412 306.779 18.872 306.739 18.942 306.469C19.482 304.599 19.262 302.669 19.122 300.749C19.122 300.609 18.912 300.559 18.882 300.709Z" fill="#FFF5E9"/>
<path d="M13.2585 302.519C13.8385 303.579 14.3985 304.649 14.9985 305.699C15.5185 306.609 16.0085 307.579 16.9385 308.119C17.3385 308.349 17.8885 308.059 17.8685 307.579C17.8385 306.499 17.2285 305.609 16.6785 304.709C16.0485 303.679 15.3785 302.669 14.7285 301.659C14.1385 300.739 12.7285 301.549 13.2585 302.519Z" fill="#FFF5E9"/>
<path d="M41.0191 345.589C42.3391 346.159 43.5491 346.919 44.5891 347.929C45.4491 348.769 46.1091 350.229 47.1791 350.759C47.5591 350.949 47.9491 350.719 47.9791 350.299C48.0891 348.909 46.5391 347.499 45.5691 346.679C44.3691 345.659 43.0091 344.899 41.5291 344.359C40.8291 344.099 40.3191 345.279 41.0191 345.589Z" fill="#FFF5E9"/>
<path d="M40.4888 346.28C40.8988 348.06 41.8488 349.74 42.5188 351.44C43.1388 353.01 43.5088 354.75 44.5088 356.12C44.8588 356.6 45.5988 356.44 45.6288 355.82C45.7288 354.03 44.9188 352.33 44.2388 350.71C43.5088 348.99 42.6988 347.11 41.3788 345.76C40.9888 345.37 40.3688 345.78 40.4888 346.28Z" fill="#FFF5E9"/>
<path d="M30.68 318.45C32.4 321 34.07 323.58 35.68 326.21C37.11 328.54 38.35 331.15 40.2 333.17C40.58 333.59 41.32 333.15 41.15 332.62C39.47 327.29 35.14 322.24 31.93 317.72C31.4 316.96 30.15 317.66 30.68 318.45Z" fill="#FFF5E9"/>
<path d="M829.082 268.059C833.712 270.019 839.992 268.169 844.862 267.549C850.542 266.829 856.202 265.939 861.842 264.959C867.952 263.899 874.052 262.729 880.122 261.459C883.362 260.779 888.042 260.769 889.202 257.049C889.482 256.149 888.872 254.949 887.912 254.769C887.752 254.739 887.602 254.709 887.442 254.679C886.902 254.579 886.312 254.739 886.022 255.259C884.552 257.889 876.102 258.209 873.292 258.769C868.162 259.789 863.022 260.719 857.872 261.619C852.732 262.509 847.572 263.329 842.422 264.159C838.142 264.849 832.642 264.669 829.082 267.289C828.842 267.459 828.732 267.919 829.082 268.059Z" fill="#FFF5E9"/>
<path d="M831.162 267.799C825.132 260.189 821.622 244.959 826.172 236.029C828.302 231.859 832.042 228.729 835.572 225.789C839.472 222.549 844.002 217.419 849.182 216.989C858.602 216.209 870.472 218.519 877.062 225.639C884.992 234.209 885.292 245.649 885.022 256.659C884.972 258.849 888.642 259.459 888.942 257.189C890.572 245.049 888.432 231.219 879.442 222.219C875.422 218.189 870.282 215.749 864.752 214.559C859.372 213.399 852.082 212.349 846.682 213.589C841.512 214.779 836.552 220.629 832.642 223.939C828.592 227.359 824.532 231.099 822.522 236.129C820.222 241.889 820.882 248.189 822.192 254.099C823.432 259.679 825.142 265.479 829.602 269.339C830.692 270.289 832.022 268.889 831.162 267.799Z" fill="#FFF5E9"/>
<path d="M826.063 262.638C827.493 261.128 827.763 259.228 828.603 257.328C829.663 254.918 830.843 252.528 832.183 250.258C835.653 244.328 840.373 240.058 847.023 238.048C852.443 236.408 858.113 236.008 863.733 235.838C870.923 235.618 879.053 235.958 883.833 242.158C885.693 244.568 889.103 242.018 887.173 239.578C878.753 228.918 860.803 230.798 849.063 233.778C836.293 237.018 827.803 248.218 824.843 260.778C824.753 261.168 824.833 261.618 825.143 261.898C825.413 262.148 825.673 262.398 825.943 262.648C825.973 262.668 826.033 262.668 826.063 262.638Z" fill="#FFF5E9"/>
<path d="M838.142 256.749C841.442 249.859 845.692 245.349 853.192 243.149C859.282 241.369 868.312 239.629 874.042 243.179C876.722 244.839 877.882 249.119 874.742 250.989C873.582 251.679 872.082 251.909 870.802 252.279C867.162 253.319 863.502 254.319 859.812 255.149C856.302 255.929 852.752 256.579 849.172 256.879C846.742 257.079 841.362 258.209 840.012 255.669C839.612 254.909 838.632 254.919 838.042 255.419C837.802 255.619 837.572 255.819 837.332 256.019C836.712 256.549 836.572 257.719 837.022 258.389C839.452 261.999 844.352 261.079 848.222 260.779C854.352 260.309 860.372 258.959 866.292 257.349C872.232 255.739 885.572 253.069 879.722 243.969C874.702 236.159 863.072 237.639 855.392 239.469C846.982 241.479 838.172 247.219 837.472 256.569C837.472 256.909 838.002 257.049 838.142 256.749Z" fill="#FFF5E9"/>
<path d="M863.71 215.999C863.8 210.969 868.44 205.509 871.95 202.219C875.05 199.309 878.86 197.879 882.89 196.729C888.64 195.099 894.89 194.049 899.1 189.419C900.32 188.079 898.41 186.139 897.1 187.419C890.62 193.729 881 193.049 873.91 198.239C869.24 201.659 861.48 209.689 863.25 216.059C863.33 216.319 863.71 216.259 863.71 215.999Z" fill="#FFF5E9"/>
<path d="M897.913 188.179C897.663 192.689 901.453 195.149 905.023 197.079C911.753 200.709 917.143 206.379 919.183 213.979C923.433 229.799 903.233 240.879 889.973 237.259C887.433 236.569 886.333 240.609 888.883 241.199C901.873 244.199 917.743 237.369 922.243 224.159C924.703 216.959 921.763 209.749 917.443 203.929C915.503 201.309 913.283 198.869 910.513 197.099C906.093 194.279 901.283 193.429 899.133 188.009C898.893 187.369 897.953 187.439 897.913 188.179Z" fill="#FFF5E9"/>
<path d="M879.69 211.818C881.99 208.418 886.18 206.968 889.27 204.398C891.83 202.268 894.25 199.688 895.35 196.498C895.48 196.128 894.95 195.828 894.69 196.118C891.88 199.308 889.61 202.578 886.05 205.038C883.3 206.928 880.52 208.328 878.75 211.278C878.4 211.878 879.31 212.388 879.69 211.818Z" fill="#FFF5E9"/>
<path d="M900.903 202.178C903.013 205.878 906.263 208.908 908.203 212.708C910.493 217.198 908.983 221.308 909.863 225.868C909.993 226.548 910.863 226.368 911.073 225.868C914.893 216.798 908.103 207.438 901.983 201.348C901.423 200.798 900.513 201.498 900.903 202.178Z" fill="#FFF5E9"/>
<path d="M837.942 232.929C840.812 231.759 843.082 229.759 844.962 227.309C846.602 225.179 848.572 222.349 848.282 219.529C848.252 219.189 847.812 218.909 847.532 219.219C845.862 221.139 845.152 223.729 843.662 225.809C841.922 228.229 839.692 230.189 837.492 232.179C837.192 232.459 837.522 233.099 837.942 232.929Z" fill="#FFF5E9"/>
<path d="M853.582 220.579C857.372 224.279 865.472 227.319 870.682 225.579C871.342 225.359 871.352 224.449 870.682 224.229C867.952 223.329 865.002 223.409 862.232 222.619C859.452 221.829 856.932 220.469 854.252 219.439C853.582 219.179 853.112 220.119 853.582 220.579Z" fill="#FFF5E9"/>
<path d="M845.503 257.538C846.903 255.408 848.323 253.288 849.963 251.338C851.203 249.868 853.153 248.508 853.773 246.678C853.913 246.268 853.473 245.868 853.073 245.978C851.023 246.568 849.493 249.008 848.223 250.618C846.693 252.558 845.333 254.588 844.213 256.798C843.793 257.648 844.983 258.348 845.503 257.538Z" fill="#FFF5E9"/>
<path d="M852.79 257.109C854.28 255.539 855.45 253.659 856.76 251.949C858.1 250.199 859.53 248.629 860.59 246.689C860.76 246.369 860.4 245.959 860.07 246.169C856.66 248.379 853.38 252.829 852.01 256.659C851.85 257.099 852.48 257.429 852.79 257.109Z" fill="#FFF5E9"/>
<path d="M863.59 254.239C863.82 253.449 864.03 252.679 864.36 251.919C864.67 251.209 865.14 250.589 865.28 249.809C865.35 249.409 865.05 249.079 864.63 249.159C862.6 249.589 861.86 252.489 862.24 254.239C862.39 254.939 863.41 254.879 863.59 254.239Z" fill="#FFF5E9"/>
<path d="M524.287 660.809C518.107 664.489 514.927 672.209 511.257 678.159C510.807 678.889 511.207 680.079 512.107 680.239C519.557 681.599 527.157 680.959 534.157 677.989C541.507 674.869 544.417 669.639 547.837 662.679C548.397 661.549 547.697 660.409 546.467 660.299C542.097 659.899 537.877 660.179 533.507 660.139C527.477 660.079 517.107 657.309 514.927 650.689C514.257 648.649 511.007 649.529 511.687 651.579C513.677 657.549 521.407 661.479 527.177 662.729C533.467 664.089 540.057 662.919 546.457 663.469C545.997 662.679 545.547 661.879 545.087 661.089C542.107 667.269 539.537 672.359 532.957 675.199C526.557 677.969 519.697 678.589 512.837 677.509C513.117 678.199 513.397 678.899 513.687 679.589C515.017 677.289 516.357 674.999 517.637 672.679C519.707 668.929 521.287 664.039 524.647 661.309C524.957 661.069 524.587 660.629 524.287 660.809Z" fill="#FFF5E9"/>
<path d="M525.757 645.929C527.757 643.589 531.997 641.039 534.907 640.579C542.927 639.299 546.197 646.809 546.777 653.509C547.417 653.029 548.047 652.539 548.687 652.059C540.607 650.009 532.687 649.939 524.387 649.779C522.377 649.739 522.367 652.879 524.387 652.909C532.387 653.019 540.087 653.029 547.887 654.969C548.757 655.189 549.887 654.529 549.797 653.519C549.167 646.599 546.247 638.739 538.357 637.789C533.097 637.159 526.967 640.369 525.027 645.519C524.857 645.909 525.477 646.259 525.757 645.929Z" fill="#FFF5E9"/>
<path d="M507.009 672.309C509.019 669.779 511.089 667.309 513.319 664.979C515.419 662.789 517.819 660.159 520.739 659.089C521.909 658.659 521.429 656.779 520.219 657.189C514.099 659.279 509.379 665.969 505.529 670.829C504.699 671.869 506.169 673.359 507.009 672.309Z" fill="#FFF5E9"/>
<path d="M491.409 658.619C494.119 650.319 501.629 644.589 510.289 643.669C513.939 643.279 517.669 643.729 521.159 644.839C523.369 645.539 526.209 645.809 526.159 647.979C526.129 649.349 526.019 649.159 525.089 649.369C523.079 649.829 519.839 648.609 517.669 648.739C514.849 648.909 512.089 649.509 509.499 650.659C504.129 653.039 500.689 657.429 499.229 663.069C498.899 664.359 500.889 664.909 501.229 663.619C504.139 652.319 515.609 649.279 525.859 651.639C526.179 651.709 526.629 651.659 526.849 651.379C527.969 649.949 528.259 648.239 528.349 646.449C528.369 646.109 528.149 645.729 527.849 645.569C513.839 638.019 494.839 641.669 489.489 658.079C489.089 659.309 491.019 659.829 491.409 658.619Z" fill="#FFF5E9"/>
<path d="M517.347 642.559C523.207 633.739 534.827 629.609 544.677 634.069C555.587 639.009 559.747 650.909 556.697 662.079C551.077 682.7 527.367 694.339 507.487 687.509C506.287 687.099 505.767 688.999 506.967 689.409C529.777 697.219 557.647 681.349 559.577 656.479C560.427 645.559 553.837 635.03 543.327 631.53C533.027 628.11 521.727 632.859 515.927 641.739C515.347 642.619 516.767 643.439 517.347 642.559Z" fill="#FFF5E9"/>
<path d="M921.089 42.6505C921.189 37.8805 920.929 34.5905 924.619 30.8405C927.649 27.7605 931.839 26.0005 935.339 23.5305C938.339 21.4205 940.909 18.6405 944.089 16.8105C946.359 15.5005 948.819 14.6005 951.479 15.2305C953.479 15.7005 954.489 17.1705 956.209 18.0805C956.739 18.3605 957.499 18.0205 957.469 17.3605C957.269 13.5005 952.589 12.3505 949.289 12.5205C943.259 12.8305 939.269 17.5905 934.729 20.9205C930.079 24.3305 924.169 26.5705 920.829 31.5105C918.719 34.6205 916.819 40.1805 920.129 43.0405C920.489 43.3705 921.079 43.1605 921.089 42.6505Z" fill="#FFF5E9"/>
<path d="M921.41 48.2306C925.6 49.3506 929.63 51.3806 934.04 50.3906C939.38 49.1906 943.85 45.2706 948.11 42.0806C955.71 36.4106 963.31 30.0106 960.49 19.4806C960.02 17.7406 957.49 18.4806 957.82 20.2206C959.98 31.6106 950.3 37.1806 942.4 43.1206C939.05 45.6406 935.04 48.5906 930.61 48.4006C927.2 48.2606 924.74 46.0306 921.4 47.3406C921.01 47.5006 920.93 48.1106 921.41 48.2306Z" fill="#FFF5E9"/>
<path d="M956.157 16.7804C957.387 14.6204 957.507 12.1204 958.347 9.79038C958.747 8.67038 959.797 5.88038 960.767 4.87038C964.227 1.29038 963.477 4.68038 964.197 6.56038C965.617 10.2804 969.897 9.24038 973.307 9.34038C972.777 8.64038 972.247 7.94038 971.707 7.25038C971.057 9.47038 970.607 11.6704 970.287 13.9604C970.157 14.8704 970.497 15.8204 971.487 16.0704C972.087 16.2204 976.357 17.2804 976.327 17.7504C976.257 18.8204 971.997 18.6704 971.367 18.7104C967.807 18.9604 964.247 19.0104 960.687 19.1204C957.707 19.2204 957.687 23.8204 960.687 23.7704C965.037 23.7004 969.387 23.3104 973.697 22.7004C976.017 22.3704 978.607 22.1304 979.847 19.8104C982.327 15.1804 975.477 13.4904 972.407 12.7504C972.827 13.3004 973.247 13.8604 973.667 14.4104C973.947 12.2404 974.377 10.2304 974.907 8.12038C975.167 7.09038 974.407 6.01038 973.307 6.03038C971.837 6.05038 968.277 6.70038 967.057 5.77038C966.097 5.04038 966.507 2.48038 965.647 1.41038C964.557 0.0503833 963.137 -0.409617 961.497 0.400383C957.087 2.59038 953.777 12.3204 955.407 16.6804C955.537 17.0004 955.977 17.1104 956.157 16.7804Z" fill="#FFF5E9"/>
<path d="M920.999 40.7304C915.829 37.7404 908.009 41.1803 903.679 44.3603C902.769 45.0303 902.779 46.1403 903.679 46.8103C904.639 47.5303 910.239 49.9203 910.289 50.2203C910.359 50.6403 909.209 52.7003 909.099 53.2703C908.879 54.4603 909.049 55.4403 909.239 56.6103C909.339 57.1903 910.099 57.8104 910.699 57.7304C911.899 57.5704 913.259 57.2504 914.459 57.2304C916.509 57.1904 914.949 56.2904 915.639 58.1904C916.239 59.8604 916.719 61.5704 918.019 62.8504C918.429 63.2504 919.049 63.4403 919.609 63.2703C921.839 62.6103 922.199 60.3703 922.759 58.3104C923.669 54.9704 925.159 51.8604 926.049 48.5704C926.329 47.5304 925.229 46.8603 924.349 47.2703C922.379 48.1903 921.509 49.9304 920.819 51.9404C920.369 53.2504 919.699 59.8004 918.739 60.1204C919.269 60.2604 919.799 60.4004 920.329 60.5403C918.569 58.9004 919.269 55.4104 917.189 54.2104C915.469 53.2204 912.069 54.4904 910.289 54.7504C910.909 55.1004 911.539 55.4604 912.159 55.8104C911.739 53.4704 914.929 50.1604 913.079 48.0004C912.569 47.4004 911.849 47.3304 911.169 47.0904C908.939 46.3104 907.049 45.8004 905.109 44.3704C905.109 45.1904 905.109 46.0004 905.109 46.8204C907.519 45.0004 910.139 43.6103 913.089 42.8803C915.659 42.2503 918.319 42.6203 920.839 41.9003C921.369 41.7503 921.479 41.0104 920.999 40.7304Z" fill="#FFF5E9"/>
<path d="M913.789 45.7302C915.709 45.9902 917.639 46.3202 919.559 45.9002C919.849 45.8402 919.849 45.3802 919.559 45.3202C917.639 44.9002 915.719 45.2302 913.789 45.4902C913.679 45.5102 913.679 45.7202 913.789 45.7302Z" fill="#FFF5E9"/>
<path d="M915.921 51.2603C916.931 50.6203 917.961 50.0103 918.951 49.3503C919.821 48.7703 920.821 48.2103 921.301 47.2503C921.491 46.8703 921.271 46.2703 920.761 46.3203C919.671 46.4203 918.831 47.0603 917.961 47.6703C916.981 48.3603 916.021 49.0903 915.051 49.8003C914.191 50.4203 914.971 51.8603 915.921 51.2603Z" fill="#FFF5E9"/>
<path d="M957.279 20.7403C957.769 19.3803 958.489 18.1203 959.449 17.0303C960.199 16.1803 961.549 15.4603 961.989 14.4203C962.139 14.0603 961.969 13.6303 961.529 13.6203C960.109 13.6003 958.849 15.1703 958.069 16.2003C957.109 17.4603 956.429 18.8603 955.979 20.3803C955.729 21.2203 956.989 21.5503 957.279 20.7403Z" fill="#FFF5E9"/>
<path d="M957.919 21.3604C959.619 20.8804 961.228 19.8404 962.818 19.0804C964.438 18.3104 966.219 17.8104 967.609 16.6604C968.029 16.3204 967.669 15.6304 967.179 15.6304C965.379 15.6404 963.738 16.5304 962.158 17.3104C960.508 18.1204 958.618 19.0704 957.388 20.4704C957.068 20.8604 957.389 21.5104 957.919 21.3604Z" fill="#FFF5E9"/>
<path d="M930.737 32.8906C933.167 31.0206 935.627 29.2006 938.137 27.4406C940.377 25.8706 942.977 24.4806 944.847 22.4706C945.207 22.0906 944.857 21.3106 944.297 21.5206C941.577 22.5306 939.187 24.5806 936.877 26.2906C934.497 28.0606 932.157 29.8806 929.847 31.7406C929.217 32.2606 930.087 33.3906 930.737 32.8906Z" fill="#FFF5E9"/>
<g clip-path="url(#clip0)">
<path d="M182.864 476.602C192.939 480.435 203.779 481.702 213.552 486.49C218.361 488.846 229.622 494.396 227.532 501.271C228.082 500.952 228.633 500.634 229.182 500.316C222.762 499.13 213.64 496.161 210.226 503.933C209.311 506.016 212.328 507.257 213.077 505.123C215.232 498.981 223.873 502.093 228.487 502.923C229.228 503.056 229.913 502.717 230.137 501.967C232.423 494.354 223.073 488.706 217.61 485.653C207.303 479.895 194.86 476.755 183.296 474.983C182.228 474.819 181.849 476.215 182.864 476.602Z" fill="#FFF5E9"/>
<path d="M182.133 475.591C180.737 477.475 180.014 480.179 180.356 482.498C180.745 485.123 183.475 486.795 185.579 487.977C187.294 488.941 188.828 486.166 187.096 485.386C185.248 484.554 183.565 483.702 182.56 481.886C181.651 480.245 183.173 477.752 183.495 476.16C183.669 475.302 182.629 474.924 182.133 475.591Z" fill="#FFF5E9"/>
<path d="M188.906 477.34C187.713 479.986 186.944 482.75 185.615 485.35C184.834 486.878 187.08 488.217 187.924 486.702C189.415 484.026 190.381 480.86 190.683 477.815C190.774 476.892 189.286 476.496 188.906 477.34Z" fill="#FFF5E9"/>
<path d="M185.937 486.318C183.181 493.448 176.763 498.325 172.873 504.788C172.269 505.793 173.072 506.889 174.132 506.965C182.219 507.541 187.574 499.001 192.368 493.798C191.572 493.795 190.776 493.791 189.98 493.788C192.128 495.769 196.39 498.2 196.436 501.458C196.476 504.158 200.7 503.672 200.138 500.942C199.245 496.604 195.457 494.184 192.378 491.41C191.732 490.829 190.621 490.68 189.99 491.401C185.897 496.072 181.251 504.482 174.108 504.074C174.528 504.799 174.947 505.525 175.367 506.25C179.317 499.473 185.616 494.588 187.824 486.823C188.177 485.584 186.38 485.17 185.937 486.318Z" fill="#FFF5E9"/>
<path d="M193.411 510.776C197.693 514.255 205.019 517.354 210.572 516.429C211.15 516.332 211.52 515.791 211.702 515.289C212.736 512.429 213.064 509.284 213.392 506.273C213.454 505.703 213.014 505.062 212.538 504.797C207.307 501.877 201.423 501.576 195.572 501.201C194.744 501.148 194.06 501.82 193.827 502.555C193.136 504.725 192.518 506.932 192.185 509.188C191.842 511.505 195.39 512.479 195.736 510.135C196.069 507.881 196.672 505.668 197.349 503.495C196.767 503.946 196.185 504.398 195.603 504.849C200.779 505.149 206.117 505.289 210.794 507.779C210.51 507.286 210.225 506.794 209.941 506.303C209.697 509.041 209.364 511.817 208.589 514.46C208.966 514.08 209.343 513.7 209.719 513.321C204.297 514.574 198.929 511.568 194.088 509.611C193.452 509.353 192.886 510.349 193.411 510.776Z" fill="#FFF5E9"/>
<path d="M193.235 510.901C193.033 513.423 193.057 515.413 190.633 516.882C189.234 517.73 188.212 518.724 187.421 520.16C186.313 522.168 186.689 524.634 185.549 526.7C184.322 528.924 181.21 529.589 180.054 531.892C178.98 534.032 178.913 536.216 178.513 538.545C177.983 541.629 175.229 543.555 172.903 545.287C171.082 546.643 169.182 547.778 167.532 549.353C165.231 551.549 164.422 554.873 162.359 557.275C154.526 566.392 147.532 576.437 142.791 587.52C140.576 592.695 139.06 598.101 138.189 603.658C137.486 608.136 136.354 614.063 138.271 618.35C139.253 620.548 142.611 618.652 141.533 616.461C140.415 614.19 140.831 610.284 140.857 607.798C140.894 604.547 141.445 601.371 142.169 598.212C143.567 592.113 146.127 586.33 149.065 580.833C152.04 575.267 155.667 570.063 159.536 565.087C161.333 562.776 163.223 560.539 165.133 558.321C166.944 556.218 167.698 553.469 169.506 551.344C172.486 547.843 177.197 546.411 179.913 542.516C181.082 540.84 181.366 538.708 181.604 536.738C182.038 533.135 183.997 531.996 186.502 529.89C187.949 528.673 188.774 526.899 189.169 525.091C189.795 522.226 189.802 520.433 192.446 518.665C195.312 516.748 195.224 513.992 195.284 510.884C195.309 509.547 193.339 509.603 193.235 510.901Z" fill="#FFF5E9"/>
<path d="M138.741 618.831C141.796 621.136 146.012 622.338 149.574 623.644C153.896 625.228 158.28 626.583 162.726 627.771C170.301 629.796 178.919 632.289 186.841 632.034C189.288 631.955 189.119 628.602 186.811 628.333C178.944 627.415 171.362 626.229 163.667 624.246C159.586 623.194 155.524 622.032 151.489 620.818C147.549 619.633 143.54 617.704 139.479 617.064C138.373 616.89 137.86 618.166 138.741 618.831Z" fill="#FFF5E9"/>
<path d="M187.617 631.413C193.575 623.787 196.588 613.823 199.923 604.857C201.871 599.622 203.011 594.082 204.214 588.641C205.34 583.549 206.851 578.54 207.072 573.31C207.286 568.263 207.142 564.4 211.002 560.755C214.09 557.839 213.228 553.14 213.128 549.37C212.976 543.625 213.538 537.884 213.281 532.117C213.033 526.555 212.409 521.025 212.092 515.468C211.96 513.151 208.43 513.648 208.961 515.904C211.398 526.269 211.217 537.651 210.406 548.209C210.226 550.549 210.416 552.895 210.314 555.238C210.193 558.019 208.23 559.039 206.61 560.834C204.236 563.466 204.227 567.67 204.097 570.988C203.887 576.371 202.64 581.219 201.437 586.451C200.179 591.913 198.995 597.37 197.256 602.706C195.496 608.107 193.17 613.376 191.113 618.672C190.145 621.166 189.072 623.5 187.726 625.807C186.8 627.395 185.968 628.856 185.973 630.735C185.974 631.498 187.08 632.1 187.617 631.413Z" fill="#FFF5E9"/>
<path d="M188.205 482.199C186.148 483.133 187.921 485.99 188.666 487.174C189.321 488.213 190.01 489.239 190.315 490.442C190.591 491.532 189.188 492.632 190.184 493.637C191.113 494.577 192.401 493.443 192.719 492.522C193.139 491.302 192.959 490.035 192.449 488.872C191.7 487.165 189.159 485.062 189.434 483.141C189.54 482.395 188.907 481.88 188.205 482.199Z" fill="#FFF5E9"/>
<path d="M146.081 607.492C149.421 591.909 155.183 576.505 170.293 568.984C176.122 566.082 183.565 564.005 190.032 563.378C193.366 563.056 197.292 563.44 198.579 567.039C199.788 570.42 198.989 574.83 198.446 578.253C197.383 584.956 195.306 591.447 193.585 597.998C192.376 602.601 191.345 607.232 189.685 611.702C188.446 615.038 187.167 618.342 183.2 618.041C177.792 617.629 172.221 616.145 166.928 615.029C163.901 614.391 160.893 613.659 157.932 612.763C156.399 612.299 153.086 611.623 152.257 610.047C151.105 607.857 147.737 609.801 148.935 611.971C151.14 615.968 158.668 616.837 162.574 617.695C168.684 619.037 174.895 619.968 181.109 620.665C183.344 620.916 185.76 621.076 187.726 619.799C190.06 618.283 191.186 614.797 192.171 612.366C195.434 604.314 197.135 595.182 199.241 586.737C200.836 580.339 203.09 572.129 200.724 565.659C198.607 559.871 190.987 560.635 186.209 561.52C179.109 562.836 171.568 565.275 165.398 569.032C158.636 573.149 153.727 579.56 150.312 586.597C147.201 593.006 145.443 599.996 144.036 606.946C143.767 608.276 145.794 608.832 146.081 607.492Z" fill="#FFF5E9"/>
</g>
<path d="M122.644 28.4067C124.295 38.0587 128.421 47.3341 131.989 56.4342C133.742 60.9035 134.167 65.1184 131.389 69.1868C130.436 70.5821 129.315 71.8889 128.284 73.2272C121.042 82.622 113.746 91.9744 106.477 101.347C97.3387 113.126 88.1857 124.895 79.0105 136.646C75.1008 141.653 71.1864 146.656 67.2605 151.65C65.7659 153.552 64.269 155.451 62.7691 157.348C62.142 158.142 61.5131 158.934 60.8847 159.726C60.5893 160.098 59.5484 161.199 60.0011 161.06C58.0362 161.663 53.2485 159.076 51.0877 157.867C42.9136 153.298 34.9467 146.803 29.6122 139.077C28.3371 137.231 27.2701 135.233 26.5115 133.127C26.4224 132.879 26.2303 132.215 26.2425 132.268C26.4293 133.104 26.1616 132.931 26.655 132.236C27.0079 131.739 27.37 131.248 27.7315 130.757C30.9451 126.397 34.3598 122.182 37.7662 117.973C46.9914 106.571 56.4413 95.3514 65.8722 84.1192C72.9771 75.6575 80.4862 67.3818 87.0119 58.4557C95.1206 47.3636 105.68 26.3458 122.631 30.0355C124.746 30.4958 125.256 26.9607 123.089 26.7326C107.819 25.1264 98.1787 37.799 90.4048 48.8817C83.9024 58.1513 76.8849 66.7848 69.6141 75.4566C60.1831 86.7058 50.7251 97.9334 41.4018 109.272C37.3603 114.187 33.3431 119.123 29.4207 124.134C28.0004 125.948 23.071 130.532 23.7218 133.028C24.8672 137.422 27.8252 141.424 30.7333 144.825C36.3614 151.407 43.8351 156.953 51.4499 161.039C53.9975 162.406 57.4217 164.072 60.416 163.648C62.7723 163.314 65.2394 158.505 66.6035 156.774C83.7671 134.996 100.761 113.082 117.69 91.1216C122.856 84.4206 128.028 77.7238 133.147 70.9875C137.03 65.8772 136.119 60.3563 133.82 54.7091C130.275 45.9989 126.433 37.1715 124.076 28.0685C123.863 27.244 122.502 27.5828 122.644 28.4067Z" fill="#FFF5E9"/>
<path d="M123.599 28.0529C125.919 26.2505 131.04 25.1494 133.971 25.6774C138.43 26.4797 142.888 24.5843 147.236 24.0513C146.829 23.7265 146.422 23.4017 146.016 23.0769C146.447 25.448 147.444 27.3957 148.768 29.4036C150.449 31.9515 154.295 35.7464 150.8 38.1352C148.116 39.9694 145.104 41.3692 142.387 43.1835C139.114 45.369 135.916 47.6393 132.51 49.6223C131.208 50.3807 132.62 52.2795 133.908 51.5306C137.689 49.3278 141.242 46.7898 144.876 44.3627C147.788 42.4182 151.614 41.0378 153.963 38.4045C155.149 37.0744 154.697 35.2003 154.09 33.7225C152.491 29.8363 148.988 27.1152 148.194 22.8511C148.087 22.2743 147.594 21.7987 146.974 21.8767C144.077 22.243 141.212 22.7921 138.313 23.1501C136.021 23.4335 133.802 22.8318 131.595 23.4163C129.136 24.0671 123.567 24.4184 122.433 27.122C122.148 27.8008 122.992 28.5239 123.599 28.0529Z" fill="#FFF5E9"/>
<path d="M133.089 24.5487C133.898 27.8117 135.713 30.6634 136.892 33.8004C138.191 37.256 138.315 41.0919 139.831 44.4648C140.297 45.5004 141.925 45.1773 141.779 44.0049C140.897 36.9217 137.938 30.4604 134.678 24.1735C134.281 23.4068 132.845 23.5677 133.089 24.5487Z" fill="#FFF5E9"/>
<path d="M136.644 29.5815C139.061 29.4494 144.729 29.0107 146.132 31.6275C146.881 33.0236 143.975 35.3661 143.152 36.1303C141.924 37.2685 140.589 38.2909 139.406 39.4762C138.548 40.3355 140.061 41.5419 140.908 40.6758C143.014 38.5213 149.72 34.5017 147.639 30.7132C145.961 27.6585 139.149 27.0547 136.333 28.3511C135.676 28.6518 135.903 29.6223 136.644 29.5815Z" fill="#FFF5E9"/>
<path d="M123.501 26.2155C125.353 30.1442 127.586 33.6764 128.963 37.835C130.271 41.7798 130.529 46.69 132.73 50.2313C133.205 50.9948 134.177 50.396 134.174 49.6835C134.158 45.6425 132.176 40.9495 130.925 37.095C129.605 33.0267 127.737 28.4155 124.384 25.5741C123.961 25.2151 123.257 25.6962 123.501 26.2155Z" fill="#FFF5E9"/>
<path d="M88.5784 61.0921C93.2922 65.0563 98.3281 68.5894 102.97 72.6652C107.517 76.6572 111.998 81.6701 117.339 84.5762C118.128 85.0053 118.579 83.8921 118.064 83.3585C113.862 78.9966 108.682 75.2436 104.126 71.2177C99.562 67.1852 94.7231 62.6915 89.0584 60.2868C88.5528 60.0727 88.164 60.7433 88.5784 61.0921Z" fill="#FFF5E9"/>
<path d="M41.6368 118.675C44.2724 123.825 48.2393 127.842 52.6608 131.521C57.2195 135.314 62.4266 139.028 67.9217 141.3C68.5689 141.568 69.14 140.674 68.5533 140.24C59.3166 133.401 48.9102 128.329 42.8894 118.005C42.4762 117.295 41.2642 117.947 41.6368 118.675Z" fill="#FFF5E9"/>
<path d="M116.795 31.9201C113.896 32.23 112.689 35.8966 111.835 38.2138C110.618 41.5128 109.588 45.2727 110.566 48.8064C112.805 56.8963 121.017 61.8537 129.083 59.1906C129.653 59.0031 129.421 58.0415 128.823 58.1601C121.934 59.5275 115.548 56.867 112.401 50.3316C110.792 46.99 111.393 43.271 112.409 39.9166C113.075 37.7146 114.172 33.1019 116.89 32.7045C117.392 32.6307 117.305 31.8652 116.795 31.9201Z" fill="#FFF5E9"/>
<path d="M101.124 53.6349C99.8782 54.1383 99.0027 55.672 98.1638 56.6609C97.0256 58.0018 95.1836 59.6436 94.6737 61.3503C94.4649 62.0504 95.1323 62.5834 95.7683 62.2246C97.1911 61.4226 98.2362 59.5229 99.2218 58.248C100.096 57.1174 101.63 55.6879 101.867 54.2278C101.932 53.8288 101.499 53.4829 101.124 53.6349Z" fill="#FFF5E9"/>
<path d="M111.531 62.9348C110.335 63.3061 109.389 64.9565 108.603 65.8581C107.644 66.9573 106.13 68.1865 105.826 69.663C105.744 70.0623 106.215 70.4332 106.584 70.2691C107.954 69.6604 108.896 67.9617 109.828 66.8367C110.588 65.9193 112.067 64.7081 112.178 63.4519C112.211 63.0858 111.878 62.8263 111.531 62.9348Z" fill="#FFF5E9"/>
<path d="M121.311 70.6313C120.282 71.4967 119.337 72.4559 118.399 73.4171C117.493 74.3448 116.359 75.5399 116.236 76.8798C116.186 77.42 116.848 77.9515 117.325 77.5416C118.298 76.7042 118.894 75.4686 119.737 74.4871C120.611 73.4703 121.488 72.4715 122.14 71.2946C122.399 70.8263 121.71 70.2955 121.311 70.6313Z" fill="#FFF5E9"/>
<path d="M67.8662 95.946C67.8 86.9574 76.2045 82.4107 84.2482 81.3657C90.0611 80.6106 97.0238 82.8105 101.724 86.2584C110.428 92.6442 98.5565 101.45 92.8144 104.204C85.5993 107.664 72.6465 108.804 69.8286 98.8475C69.3748 97.2454 66.8496 98.1574 67.4018 99.7625C70.9993 110.224 84.226 109.9 92.5432 106.469C98.9133 103.841 110.143 95.8124 105.4 87.6604C101.855 81.567 91.3382 79.2712 84.9258 79.5644C76.6284 79.9441 64.5176 86.1797 66.4556 96.0911C66.6338 97.0049 67.8727 96.85 67.8662 95.946Z" fill="#FFF5E9"/>
<defs>
<clipPath id="clip0">
<rect width="63.017" height="153.804" fill="white" transform="translate(173.087 471.356) rotate(14.9401)"/>
</clipPath>
</defs>
</svg>
