<svg width="1293" height="1030" viewBox="0 0 1293 1030" fill="none" xmlns="http://www.w3.org/2000/svg" xmlns:xlink="http://www.w3.org/1999/xlink">
<path opacity="0.15" d="M475.599 274.528C106.974 316.839 45.4824 482.02 31.4529 533.476C-8.0367 678.313 397.342 791.594 679.811 873.737C962.281 955.88 1010.15 1063.98 1121.2 994.91C1232.25 925.843 1284.93 733.162 1219.02 402.618C1158.41 98.6038 1024.83 74.0523 930.696 63.9718C801.132 50.0977 583.549 262.137 475.599 274.528Z" fill="#CCF0FF"/>
<path opacity="0.55" d="M508.12 324.489C194.266 394.987 156.507 543.051 149.163 588.702C128.492 717.198 488.389 777.429 739.464 822.164C990.538 866.899 1041.78 955.661 1131.13 885.874C1220.48 816.088 1248.1 645.132 1160.78 366.282C1080.47 109.813 963.062 100.979 880.984 100.979C768.018 100.979 600.031 303.843 508.12 324.489Z" fill="#5BC5F2"/>
<path d="M553.554 346.423C212.546 459.743 238.577 566.983 235.43 607.648C225.503 744.257 502.113 745.203 715.138 769.69C928.164 794.177 1059.38 865.996 1129.56 799.186C1199.74 732.375 1240.2 542.1 1109.2 361.044C978.193 179.989 943.04 146.703 832.942 143.802C738.136 141.304 640.666 317.475 553.554 346.423Z" fill="#229BD7"/>
<mask id="mask0" mask-type="alpha" maskUnits="userSpaceOnUse" x="286" y="217" width="894" height="599">
<path d="M555.068 362.311C332.385 451.866 295.118 527.481 288.228 561.267C265.678 674.827 521.243 700.166 715.735 739.583C910.228 779 1068.08 848.449 1139.48 798.708C1210.89 748.968 1185.52 583.791 1082.17 420.492C978.817 257.192 932.777 229.981 831.303 217.78C743.922 207.274 633.052 330.948 555.068 362.311Z" fill="#999999"/>
</mask>
<g mask="url(#mask0)">
<rect x="-42.2285" y="-12.7852" width="1289.68" height="861.487" fill="url(#pattern0)"/>
</g>
<mask id="mask1" mask-type="alpha" maskUnits="userSpaceOnUse" x="476" y="117" width="621" height="563">
<rect x="476.912" y="117" width="619.289" height="562.061" fill="#C4C4C4"/>
</mask>
<g mask="url(#mask1)">
<rect x="-42.2285" y="-12.7852" width="1289.68" height="861.487" fill="url(#pattern1)"/>
</g>
<defs>
<pattern id="pattern0" patternContentUnits="objectBoundingBox" width="1" height="1">
<use xlink:href="#image0" transform="translate(-0.000208909) scale(0.000521051 0.000780031)"/>
</pattern>
<pattern id="pattern1" patternContentUnits="objectBoundingBox" width="1" height="1">
<use xlink:href="#image1" transform="translate(-0.000208909) scale(0.000521051 0.000780031)"/>
</pattern>
<image id="image0" width="1920" height="1282" xlink:href=""/>
<image id="image1" width="1920" height="1282" xlink:href=""/>
</defs>
</svg>
