<svg width="554" height="540" viewBox="0 0 554 540" fill="none" xmlns="http://www.w3.org/2000/svg">
<g filter="url(#filter0_d)">
<path d="M513.704 476.368V30H40.2929V476.368H40.1484V489.234H46.1352C46.1352 485.596 49.624 482.647 53.9345 482.647C58.2408 482.647 61.7337 485.596 61.7337 489.234H66.4488C66.4488 485.596 69.9418 482.647 74.2481 482.647C78.5544 482.647 82.0474 485.596 82.0474 489.234H86.7624C86.7624 485.596 90.2554 482.647 94.5617 482.647C98.868 482.647 102.361 485.596 102.361 489.234H107.076C107.076 485.596 110.569 482.647 114.875 482.647C119.182 482.647 122.675 485.596 122.675 489.234H127.39C127.39 485.596 130.883 482.647 135.189 482.647C139.495 482.647 142.988 485.596 142.988 489.234H147.703C147.703 485.596 151.196 482.647 155.503 482.647C159.809 482.647 163.302 485.596 163.302 489.234H168.017C168.017 485.596 171.51 482.647 175.816 482.647C180.123 482.647 183.615 485.596 183.615 489.234H188.331C188.331 485.596 191.824 482.647 196.13 482.647C200.436 482.647 203.929 485.596 203.929 489.234H207.178H208.644H208.652C208.652 485.596 212.141 482.651 216.448 482.647C220.754 482.651 224.243 485.596 224.243 489.234H224.251H228.958H228.966C228.966 485.596 232.455 482.651 236.761 482.647C241.063 482.651 244.556 485.596 244.556 489.234H244.54H249.247H249.255C249.255 485.596 252.744 482.651 257.05 482.647C261.352 482.651 264.845 485.596 264.845 489.234H264.853H269.564H269.569C269.569 485.596 273.057 482.651 277.364 482.647C281.67 482.651 285.159 485.596 285.159 489.234H285.163H289.874H289.878C289.878 485.596 293.367 482.651 297.673 482.647C301.98 482.651 305.468 485.596 305.468 489.234H305.477H310.183H310.188C310.188 485.596 313.676 482.651 317.983 482.647C322.289 482.651 325.778 485.596 325.778 489.234H325.782H330.493H330.501C330.501 485.596 333.99 482.651 338.296 482.647C342.599 482.651 346.092 485.596 346.092 489.234H346.1H350.815H351.352V486.989C352.446 484.472 355.249 482.647 358.61 482.647C362.916 482.647 366.409 485.596 366.409 489.234H371.124C371.124 485.596 374.617 482.647 378.924 482.647C383.23 482.647 386.723 485.596 386.723 489.234H391.438C391.438 485.596 394.927 482.647 399.237 482.647C403.544 482.647 407.037 485.596 407.037 489.234H411.752C411.752 485.596 415.245 482.647 419.551 482.647C423.857 482.647 427.35 485.596 427.35 489.234H432.065C432.065 485.596 435.558 482.647 439.864 482.647C444.171 482.647 447.664 485.596 447.664 489.234H452.379C452.379 485.596 455.872 482.647 460.178 482.647C464.484 482.647 467.977 485.596 467.977 489.234H472.692C472.692 485.596 476.185 482.647 480.492 482.647C484.798 482.647 488.291 485.596 488.291 489.234H493.006C493.006 485.596 496.499 482.647 500.805 482.647C505.112 482.647 508.605 485.596 508.605 489.234H513.865V476.368H513.704Z" fill="white"/>
</g>
<defs>
<filter id="filter0_d" x="0.148438" y="0" width="553.716" height="539.234" filterUnits="userSpaceOnUse" color-interpolation-filters="sRGB">
<feFlood flood-opacity="0" result="BackgroundImageFix"/>
<feColorMatrix in="SourceAlpha" type="matrix" values="0 0 0 0 0 0 0 0 0 0 0 0 0 0 0 0 0 0 127 0"/>
<feOffset dy="10"/>
<feGaussianBlur stdDeviation="20"/>
<feColorMatrix type="matrix" values="0 0 0 0 0 0 0 0 0 0 0 0 0 0 0 0 0 0 0.1 0"/>
<feBlend mode="normal" in2="BackgroundImageFix" result="effect1_dropShadow"/>
<feBlend mode="normal" in="SourceGraphic" in2="effect1_dropShadow" result="shape"/>
</filter>
</defs>
</svg>
